Idiqlat-Regular.ufo
<glyph name="exclam" format="2">
  <advance width="635"/>
  <unicode hex="0021"/>
  <outline>
    <component base="period" xOffset="-10"/>
    <contour>
      <point x="251" y="520" type="line"/>
      <point x="384" y="520" type="line"/>
      <point x="499" y="1241" type="line" smooth="yes"/>
      <point x="531" y="1443"/>
      <point x="450" y="1587"/>
      <point x="316" y="1587" type="curve" smooth="yes"/>
      <point x="183" y="1587"/>
      <point x="104" y="1443"/>
      <point x="136" y="1241" type="curve" smooth="yes"/>
    </contour>
  </outline>
</glyph>
<glyph name="numbersign" format="2">
  <advance width="1090"/>
  <unicode hex="0023"/>
  <outline>
    <contour>
      <point x="373" y="48" type="line"/>
      <point x="502" y="48" type="line"/>
      <point x="546" y="269" type="line"/>
      <point x="672" y="269" type="line"/>
      <point x="629" y="48" type="line"/>
      <point x="755" y="48" type="line"/>
      <point x="800" y="269" type="line"/>
      <point x="963" y="269" type="line"/>
      <point x="963" y="394" type="line"/>
      <point x="825" y="394" type="line"/>
      <point x="859" y="561" type="line"/>
      <point x="963" y="561" type="line"/>
      <point x="963" y="686" type="line"/>
      <point x="885" y="686" type="line"/>
      <point x="930" y="907" type="line"/>
      <point x="799" y="907" type="line"/>
      <point x="755" y="686" type="line"/>
      <point x="630" y="686" type="line"/>
      <point x="675" y="907" type="line"/>
      <point x="548" y="907" type="line"/>
      <point x="503" y="686" type="line"/>
      <point x="341" y="686" type="line"/>
      <point x="341" y="561" type="line"/>
      <point x="477" y="561" type="line"/>
      <point x="443" y="394" type="line"/>
      <point x="341" y="394" type="line"/>
      <point x="341" y="269" type="line"/>
      <point x="418" y="269" type="line"/>
    </contour>
    <contour>
      <point x="571" y="394" type="line"/>
      <point x="605" y="561" type="line"/>
      <point x="730" y="561" type="line"/>
      <point x="697" y="394" type="line"/>
    </contour>
  </outline>
</glyph>
<glyph name="dollar" format="2">
  <advance width="1176"/>
  <unicode hex="0024"/>
  <note>
dollar
</note>
  <outline>
    <contour>
      <point x="538" y="-19" type="curve" smooth="yes"/>
      <point x="883" y="-19"/>
      <point x="1114" y="151"/>
      <point x="1114" y="385" type="curve" smooth="yes"/>
      <point x="1114" y="821"/>
      <point x="405" y="739"/>
      <point x="405" y="1037" type="curve" smooth="yes"/>
      <point x="405" y="1150"/>
      <point x="541" y="1213"/>
      <point x="659" y="1213" type="curve" smooth="yes"/>
      <point x="722" y="1213"/>
      <point x="773" y="1202"/>
      <point x="821" y="1179" type="curve"/>
      <point x="894" y="952" type="line"/>
      <point x="1043" y="960" type="line"/>
      <point x="1014" y="1296" type="line"/>
      <point x="930" y="1333"/>
      <point x="787" y="1360"/>
      <point x="682" y="1360" type="curve" smooth="yes"/>
      <point x="343" y="1360"/>
      <point x="120" y="1192"/>
      <point x="120" y="946" type="curve" smooth="yes"/>
      <point x="120" y="481"/>
      <point x="807" y="594"/>
      <point x="807" y="285" type="curve" smooth="yes"/>
      <point x="807" y="188"/>
      <point x="701" y="126"/>
      <point x="567" y="126" type="curve" smooth="yes"/>
      <point x="489" y="126"/>
      <point x="402" y="151"/>
      <point x="342" y="189" type="curve"/>
      <point x="266" y="428" type="line"/>
      <point x="115" y="419" type="line"/>
      <point x="126" y="79" type="line"/>
      <point x="236" y="18"/>
      <point x="408" y="-19"/>
    </contour>
    <contour>
      <point x="544" y="-262" type="line"/>
      <point x="680" y="-262" type="line"/>
      <point x="680" y="1599" type="line"/>
      <point x="544" y="1599" type="line"/>
    </contour>
  </outline>
</glyph>
<glyph name="percent" format="2">
  <advance width="1348"/>
  <unicode hex="0025"/>
  <outline>
    <contour>
      <point x="495" y="47" type="line"/>
      <point x="613" y="47" type="line"/>
      <point x="1053" y="924" type="line"/>
      <point x="938" y="924" type="line"/>
    </contour>
    <contour>
      <point x="495" y="486" type="curve" smooth="yes"/>
      <point x="616" y="486"/>
      <point x="677" y="559"/>
      <point x="677" y="705" type="curve" smooth="yes"/>
      <point x="677" y="851"/>
      <point x="615" y="924"/>
      <point x="492" y="924" type="curve" smooth="yes"/>
      <point x="371" y="924"/>
      <point x="310" y="851"/>
      <point x="310" y="705" type="curve" smooth="yes"/>
      <point x="310" y="559"/>
      <point x="372" y="486"/>
    </contour>
    <contour>
      <point x="492" y="577" type="curve" smooth="yes"/>
      <point x="453" y="577"/>
      <point x="434" y="620"/>
      <point x="434" y="706" type="curve" smooth="yes"/>
      <point x="434" y="792"/>
      <point x="453" y="835"/>
      <point x="492" y="835" type="curve" smooth="yes"/>
      <point x="531" y="835"/>
      <point x="550" y="792"/>
      <point x="550" y="706" type="curve" smooth="yes"/>
      <point x="550" y="620"/>
      <point x="531" y="577"/>
    </contour>
    <contour>
      <point x="1056" y="46" type="curve" smooth="yes"/>
      <point x="1177" y="46"/>
      <point x="1238" y="119"/>
      <point x="1238" y="266" type="curve" smooth="yes"/>
      <point x="1238" y="412"/>
      <point x="1177" y="485"/>
      <point x="1054" y="485" type="curve" smooth="yes"/>
      <point x="932" y="485"/>
      <point x="871" y="412"/>
      <point x="871" y="266" type="curve" smooth="yes"/>
      <point x="871" y="119"/>
      <point x="933" y="46"/>
    </contour>
    <contour>
      <point x="1053" y="137" type="curve" smooth="yes"/>
      <point x="1014" y="137"/>
      <point x="995" y="180"/>
      <point x="995" y="266" type="curve" smooth="yes"/>
      <point x="995" y="352"/>
      <point x="1014" y="395"/>
      <point x="1053" y="395" type="curve" smooth="yes"/>
      <point x="1092" y="395"/>
      <point x="1111" y="352"/>
      <point x="1111" y="266" type="curve" smooth="yes"/>
      <point x="1111" y="180"/>
      <point x="1092" y="137"/>
    </contour>
  </outline>
</glyph>
<glyph name="ampersand" format="2">
  <advance width="1773"/>
  <unicode hex="0026"/>
  <note>
ampersand
</note>
  <outline>
    <contour>
      <point x="593" y="-21" type="curve" smooth="yes"/>
      <point x="996" y="-21"/>
      <point x="1301" y="196"/>
      <point x="1511" y="641" type="curve"/>
      <point x="1670" y="666" type="line"/>
      <point x="1663" y="781" type="line"/>
      <point x="1132" y="779" type="line"/>
      <point x="1124" y="662" type="line"/>
      <point x="1284" y="641" type="line"/>
      <point x="1168" y="306"/>
      <point x="981" y="172"/>
      <point x="701" y="172" type="curve" smooth="yes"/>
      <point x="486" y="172"/>
      <point x="397" y="275"/>
      <point x="397" y="400" type="curve" smooth="yes"/>
      <point x="397" y="520"/>
      <point x="473" y="628"/>
      <point x="667" y="721" type="curve"/>
      <point x="983" y="842"/>
      <point x="1137" y="1003"/>
      <point x="1137" y="1197" type="curve" smooth="yes"/>
      <point x="1137" y="1396"/>
      <point x="1003" y="1519"/>
      <point x="768" y="1519" type="curve" smooth="yes"/>
      <point x="512" y="1519"/>
      <point x="319" y="1351"/>
      <point x="319" y="1084" type="curve" smooth="yes"/>
      <point x="319" y="917"/>
      <point x="400" y="753"/>
      <point x="607" y="476" type="curve" smooth="yes"/>
      <point x="849" y="151"/>
      <point x="1054" y="-21"/>
      <point x="1386" y="-21" type="curve" smooth="yes"/>
      <point x="1563" y="-21"/>
      <point x="1717" y="52"/>
      <point x="1808" y="185" type="curve"/>
      <point x="1733" y="267" type="line"/>
      <point x="1665" y="211"/>
      <point x="1578" y="185"/>
      <point x="1503" y="185" type="curve" smooth="yes"/>
      <point x="1302" y="185"/>
      <point x="1165" y="290"/>
      <point x="935" y="578" type="curve" smooth="yes"/>
      <point x="661" y="913"/>
      <point x="607" y="1056"/>
      <point x="607" y="1194" type="curve" smooth="yes"/>
      <point x="607" y="1312"/>
      <point x="671" y="1382"/>
      <point x="755" y="1382" type="curve" smooth="yes"/>
      <point x="826" y="1382"/>
      <point x="878" y="1328"/>
      <point x="878" y="1216" type="curve" smooth="yes"/>
      <point x="878" y="1050"/>
      <point x="820" y="951"/>
      <point x="559" y="790" type="curve"/>
      <point x="256" y="721"/>
      <point x="63" y="560"/>
      <point x="63" y="353" type="curve" smooth="yes"/>
      <point x="63" y="141"/>
      <point x="246" y="-21"/>
    </contour>
  </outline>
</glyph>
<glyph name="quotesingle" format="2">
  <advance width="407"/>
  <unicode hex="0027"/>
  <note>
quotesingle
</note>
  <outline>
    <contour>
      <point x="203" y="980" type="curve" smooth="yes"/>
      <point x="133" y="980"/>
      <point x="82" y="925"/>
      <point x="82" y="834" type="curve" smooth="yes"/>
      <point x="82" y="753"/>
      <point x="142" y="563"/>
      <point x="170" y="457" type="curve"/>
      <point x="236" y="457" type="line"/>
      <point x="263" y="563"/>
      <point x="324" y="753"/>
      <point x="324" y="834" type="curve" smooth="yes"/>
      <point x="324" y="925"/>
      <point x="271" y="980"/>
    </contour>
  </outline>
</glyph>
<glyph name="parenleft" format="2">
  <advance width="892"/>
  <unicode hex="0028"/>
  <note>
parenleft
</note>
  <outline>
    <contour>
      <point x="797" y="1657" type="line"/>
      <point x="408" y="1382"/>
      <point x="206" y="1009"/>
      <point x="206" y="567" type="curve" smooth="yes"/>
      <point x="206" y="130"/>
      <point x="408" y="-238"/>
      <point x="797" y="-520" type="curve"/>
      <point x="892" y="-444" type="line"/>
      <point x="669" y="-220"/>
      <point x="543" y="141"/>
      <point x="543" y="567" type="curve" smooth="yes"/>
      <point x="543" y="991"/>
      <point x="669" y="1357"/>
      <point x="892" y="1581" type="curve"/>
    </contour>
  </outline>
</glyph>
<glyph name="parenright" format="2">
  <advance width="892"/>
  <unicode hex="0029"/>
  <note>
parenright
</note>
  <outline>
    <contour>
      <point x="94" y="1657" type="curve"/>
      <point x="0" y="1581" type="line"/>
      <point x="222" y="1357"/>
      <point x="348" y="991"/>
      <point x="348" y="567" type="curve" smooth="yes"/>
      <point x="348" y="141"/>
      <point x="222" y="-220"/>
      <point x="0" y="-444" type="curve"/>
      <point x="94" y="-520" type="line"/>
      <point x="481" y="-238"/>
      <point x="682" y="130"/>
      <point x="682" y="567" type="curve" smooth="yes"/>
      <point x="682" y="1009"/>
      <point x="481" y="1382"/>
    </contour>
  </outline>
</glyph>
<glyph name="asterisk" format="2">
  <advance width="1153"/>
  <unicode hex="002A"/>
  <note>
asterisk
</note>
  <outline>
    <contour>
      <point x="1054" y="1226" type="curve" smooth="yes"/>
      <point x="1028" y="1304"/>
      <point x="969" y="1343"/>
      <point x="878" y="1314" type="curve" smooth="yes"/>
      <point x="808" y="1291"/>
      <point x="722" y="1218"/>
      <point x="645" y="1168" type="curve"/>
      <point x="669" y="1263"/>
      <point x="711" y="1372"/>
      <point x="711" y="1443" type="curve" smooth="yes"/>
      <point x="711" y="1544"/>
      <point x="653" y="1587"/>
      <point x="575" y="1587" type="curve" smooth="yes"/>
      <point x="497" y="1587"/>
      <point x="436" y="1544"/>
      <point x="436" y="1443" type="curve" smooth="yes"/>
      <point x="436" y="1372"/>
      <point x="481" y="1263"/>
      <point x="505" y="1168" type="curve"/>
      <point x="428" y="1221"/>
      <point x="340" y="1294"/>
      <point x="274" y="1314" type="curve" smooth="yes"/>
      <point x="183" y="1343"/>
      <point x="120" y="1304"/>
      <point x="96" y="1226" type="curve" smooth="yes"/>
      <point x="73" y="1153"/>
      <point x="94" y="1080"/>
      <point x="186" y="1053" type="curve" smooth="yes"/>
      <point x="253" y="1030"/>
      <point x="360" y="1038"/>
      <point x="455" y="1033" type="curve"/>
      <point x="381" y="972"/>
      <point x="285" y="912"/>
      <point x="240" y="855" type="curve" smooth="yes"/>
      <point x="185" y="773"/>
      <point x="206" y="705"/>
      <point x="267" y="659" type="curve" smooth="yes"/>
      <point x="332" y="614"/>
      <point x="407" y="611"/>
      <point x="463" y="693" type="curve" smooth="yes"/>
      <point x="507" y="753"/>
      <point x="538" y="876"/>
      <point x="575" y="967" type="curve"/>
      <point x="614" y="876"/>
      <point x="640" y="753"/>
      <point x="685" y="693" type="curve" smooth="yes"/>
      <point x="745" y="611"/>
      <point x="816" y="612"/>
      <point x="881" y="659" type="curve" smooth="yes"/>
      <point x="943" y="706"/>
      <point x="969" y="773"/>
      <point x="909" y="855" type="curve" smooth="yes"/>
      <point x="867" y="912"/>
      <point x="768" y="972"/>
      <point x="693" y="1033" type="curve"/>
      <point x="789" y="1038"/>
      <point x="896" y="1028"/>
      <point x="962" y="1053" type="curve" smooth="yes"/>
      <point x="1056" y="1084"/>
      <point x="1079" y="1153"/>
    </contour>
  </outline>
</glyph>
<glyph name="plus" format="2">
  <advance width="1226"/>
  <unicode hex="002B"/>
  <outline>
    <contour>
      <point x="1108" y="674" type="line"/>
      <point x="118" y="674" type="line"/>
      <point x="118" y="483" type="line"/>
      <point x="1108" y="483" type="line"/>
    </contour>
    <contour>
      <point x="515" y="1074" type="line"/>
      <point x="515" y="86" type="line"/>
      <point x="713" y="86" type="line"/>
      <point x="713" y="1074" type="line"/>
    </contour>
  </outline>
</glyph>
<glyph name="comma" format="2">
  <advance width="407"/>
  <unicode hex="002C"/>
  <note>
comma
</note>
  <outline>
    <contour>
      <point x="67" y="-299" type="line"/>
      <point x="257" y="-223"/>
      <point x="348" y="-89"/>
      <point x="348" y="64" type="curve" smooth="yes"/>
      <point x="348" y="201"/>
      <point x="269" y="250"/>
      <point x="199" y="250" type="curve" smooth="yes"/>
      <point x="123" y="250"/>
      <point x="67" y="198"/>
      <point x="67" y="132" type="curve" smooth="yes"/>
      <point x="67" y="18"/>
      <point x="191" y="27"/>
      <point x="191" y="-74" type="curve" smooth="yes"/>
      <point x="191" y="-138"/>
      <point x="153" y="-192"/>
      <point x="41" y="-239" type="curve"/>
    </contour>
  </outline>
</glyph>
<glyph name="hyphen" format="2">
  <advance width="682"/>
  <unicode hex="002D"/>
  <outline>
    <contour>
      <point x="100" y="322" type="line"/>
      <point x="582" y="322" type="line"/>
      <point x="582" y="469" type="line"/>
      <point x="100" y="469" type="line"/>
    </contour>
  </outline>
</glyph>
<glyph name="period" format="2">
  <advance width="407"/>
  <unicode hex="002E"/>
  <note>
period
</note>
  <outline>
    <contour>
      <point x="203" y="-13" type="curve" smooth="yes"/>
      <point x="265" y="-13"/>
      <point x="314" y="33"/>
      <point x="314" y="95" type="curve" smooth="yes"/>
      <point x="314" y="157"/>
      <point x="265" y="205"/>
      <point x="203" y="205" type="curve" smooth="yes"/>
      <point x="142" y="205"/>
      <point x="91" y="157"/>
      <point x="91" y="95" type="curve" smooth="yes"/>
      <point x="91" y="33"/>
      <point x="142" y="-13"/>
    </contour>
  </outline>
</glyph>
<glyph name="slash" format="2">
  <advance width="956"/>
  <unicode hex="002F"/>
  <note>
slash
</note>
  <outline>
    <contour>
      <point x="68" y="-408" type="line"/>
      <point x="292" y="-408" type="line"/>
      <point x="977" y="1655" type="line"/>
      <point x="753" y="1655" type="line"/>
    </contour>
  </outline>
</glyph>
<glyph name="zero" format="2">
  <advance width="1194"/>
  <unicode hex="0030"/>
  <outline>
    <contour>
      <point x="611" y="-19" type="curve" smooth="yes"/>
      <point x="904" y="-19"/>
      <point x="1139" y="283"/>
      <point x="1139" y="685" type="curve" smooth="yes"/>
      <point x="1139" y="1093"/>
      <point x="925" y="1354"/>
      <point x="612" y="1354" type="curve" smooth="yes"/>
      <point x="283" y="1354"/>
      <point x="57" y="1074"/>
      <point x="57" y="648" type="curve" smooth="yes"/>
      <point x="57" y="246"/>
      <point x="285" y="-19"/>
    </contour>
    <contour>
      <point x="632" y="146" type="curve" smooth="yes"/>
      <point x="497" y="146"/>
      <point x="403" y="374"/>
      <point x="403" y="716" type="curve" smooth="yes"/>
      <point x="403" y="1038"/>
      <point x="473" y="1207"/>
      <point x="590" y="1207" type="curve" smooth="yes"/>
      <point x="717" y="1207"/>
      <point x="798" y="980"/>
      <point x="798" y="627" type="curve" smooth="yes"/>
      <point x="798" y="292"/>
      <point x="745" y="146"/>
    </contour>
  </outline>
</glyph>
<glyph name="one" format="2">
  <advance width="1194"/>
  <unicode hex="0031"/>
  <outline>
    <contour>
      <point x="769" y="502" type="curve" smooth="yes"/>
      <point x="769" y="802" type="line" smooth="yes"/>
      <point x="769" y="1035"/>
      <point x="776" y="1229"/>
      <point x="787" y="1364" type="curve"/>
      <point x="215" y="1145" type="line"/>
      <point x="224" y="1003" type="line"/>
      <point x="442" y="1050" type="line"/>
      <point x="449" y="1003"/>
      <point x="453" y="870"/>
      <point x="453" y="743" type="curve" smooth="yes"/>
      <point x="453" y="502" type="line" smooth="yes"/>
      <point x="453" y="340"/>
      <point x="447" y="175"/>
      <point x="441" y="151" type="curve"/>
      <point x="246" y="113" type="line"/>
      <point x="253" y="0" type="line"/>
      <point x="972" y="0" type="line"/>
      <point x="978" y="113" type="line"/>
      <point x="786" y="151" type="line"/>
      <point x="777" y="175"/>
      <point x="769" y="337"/>
    </contour>
  </outline>
</glyph>
<glyph name="two" format="2">
  <advance width="1194"/>
  <unicode hex="0032"/>
  <outline>
    <contour>
      <point x="118" y="-6" type="line"/>
      <point x="177" y="0"/>
      <point x="240" y="0"/>
      <point x="295" y="0" type="curve" smooth="yes"/>
      <point x="745" y="0" type="line" smooth="yes"/>
      <point x="810" y="0"/>
      <point x="977" y="-3"/>
      <point x="1061" y="-11" type="curve"/>
      <point x="1135" y="395" type="line"/>
      <point x="991" y="413" type="line"/>
      <point x="923" y="251" type="line"/>
      <point x="876" y="243"/>
      <point x="852" y="241"/>
      <point x="794" y="241" type="curve" smooth="yes"/>
      <point x="402" y="241" type="line"/>
      <point x="403" y="217" type="line"/>
      <point x="776" y="436"/>
      <point x="986" y="690"/>
      <point x="986" y="938" type="curve" smooth="yes"/>
      <point x="986" y="1182"/>
      <point x="803" y="1354"/>
      <point x="544" y="1354" type="curve" smooth="yes"/>
      <point x="326" y="1354"/>
      <point x="149" y="1236"/>
      <point x="58" y="1024" type="curve"/>
      <point x="162" y="951" type="line"/>
      <point x="228" y="1061"/>
      <point x="321" y="1116"/>
      <point x="431" y="1116" type="curve" smooth="yes"/>
      <point x="568" y="1116"/>
      <point x="659" y="1022"/>
      <point x="659" y="879" type="curve" smooth="yes"/>
      <point x="659" y="653"/>
      <point x="502" y="428"/>
      <point x="112" y="118" type="curve"/>
    </contour>
  </outline>
</glyph>
<glyph name="three" format="2">
  <advance width="1194"/>
  <unicode hex="0033"/>
  <outline>
    <contour>
      <point x="578" y="685" type="line"/>
      <point x="815" y="743"/>
      <point x="983" y="863"/>
      <point x="983" y="1051" type="curve" smooth="yes"/>
      <point x="983" y="1218"/>
      <point x="839" y="1354"/>
      <point x="598" y="1354" type="curve" smooth="yes"/>
      <point x="394" y="1354"/>
      <point x="220" y="1242"/>
      <point x="136" y="1069" type="curve"/>
      <point x="236" y="998" type="line"/>
      <point x="290" y="1075"/>
      <point x="381" y="1122"/>
      <point x="483" y="1122" type="curve" smooth="yes"/>
      <point x="593" y="1122"/>
      <point x="666" y="1067"/>
      <point x="666" y="967" type="curve" smooth="yes"/>
      <point x="666" y="841"/>
      <point x="544" y="747"/>
      <point x="358" y="726" type="curve"/>
      <point x="374" y="588" type="line"/>
      <point x="403" y="594"/>
      <point x="439" y="596"/>
      <point x="478" y="596" type="curve" smooth="yes"/>
      <point x="643" y="596"/>
      <point x="748" y="507"/>
      <point x="748" y="363" type="curve" smooth="yes"/>
      <point x="748" y="198"/>
      <point x="628" y="89"/>
      <point x="471" y="136" type="curve"/>
      <point x="554" y="94" type="line"/>
      <point x="394" y="238" type="line" smooth="yes"/>
      <point x="337" y="287"/>
      <point x="304" y="304"/>
      <point x="245" y="304" type="curve" smooth="yes"/>
      <point x="175" y="304"/>
      <point x="126" y="251"/>
      <point x="126" y="183" type="curve" smooth="yes"/>
      <point x="126" y="65"/>
      <point x="279" y="-19"/>
      <point x="488" y="-19" type="curve" smooth="yes"/>
      <point x="849" y="-19"/>
      <point x="1067" y="191"/>
      <point x="1067" y="397" type="curve" smooth="yes"/>
      <point x="1067" y="599"/>
      <point x="907" y="729"/>
      <point x="630" y="732" type="curve"/>
    </contour>
  </outline>
</glyph>
<glyph name="four" format="2">
  <advance width="1194"/>
  <unicode hex="0034"/>
  <outline>
    <contour>
      <point x="957" y="335" type="curve"/>
      <point x="954" y="957" type="line"/>
      <point x="954" y="1096"/>
      <point x="959" y="1234"/>
      <point x="965" y="1343" type="curve"/>
      <point x="786" y="1343" type="line"/>
      <point x="44" y="442" type="line"/>
      <point x="63" y="335" type="line"/>
      <point x="1150" y="335" type="line"/>
      <point x="1150" y="531" type="line"/>
      <point x="274" y="531" type="line"/>
      <point x="285" y="484" type="line"/>
      <point x="682" y="1022" type="line"/>
      <point x="648" y="1032" type="line"/>
      <point x="648" y="335" type="line"/>
      <point x="648" y="217"/>
      <point x="648" y="183"/>
      <point x="645" y="151" type="curve"/>
      <point x="450" y="113" type="line"/>
      <point x="457" y="0" type="line"/>
      <point x="1103" y="0" type="line"/>
      <point x="1111" y="113" type="line"/>
      <point x="960" y="151" type="line"/>
      <point x="959" y="183"/>
      <point x="957" y="217"/>
    </contour>
  </outline>
</glyph>
<glyph name="five" format="2">
  <advance width="1194"/>
  <unicode hex="0035"/>
  <outline>
    <contour>
      <point x="488" y="-19" type="curve" smooth="yes"/>
      <point x="847" y="-19"/>
      <point x="1067" y="185"/>
      <point x="1067" y="411" type="curve" smooth="yes"/>
      <point x="1067" y="674"/>
      <point x="836" y="821"/>
      <point x="371" y="852" type="curve"/>
      <point x="436" y="771" type="line"/>
      <point x="468" y="1075" type="line"/>
      <point x="975" y="1075" type="line"/>
      <point x="998" y="1335" type="line"/>
      <point x="347" y="1335" type="line"/>
      <point x="262" y="594" type="line"/>
      <point x="607" y="568"/>
      <point x="747" y="494"/>
      <point x="747" y="329" type="curve" smooth="yes"/>
      <point x="747" y="199"/>
      <point x="625" y="87"/>
      <point x="471" y="136" type="curve"/>
      <point x="554" y="94" type="line"/>
      <point x="392" y="238" type="line" smooth="yes"/>
      <point x="329" y="290"/>
      <point x="298" y="304"/>
      <point x="246" y="304" type="curve" smooth="yes"/>
      <point x="175" y="304"/>
      <point x="126" y="253"/>
      <point x="126" y="183" type="curve" smooth="yes"/>
      <point x="126" y="65"/>
      <point x="280" y="-19"/>
    </contour>
  </outline>
</glyph>
<glyph name="six" format="2">
  <advance width="1194"/>
  <unicode hex="0036"/>
  <outline>
    <contour>
      <point x="360" y="598" type="curve"/>
      <point x="361" y="489" type="line"/>
      <point x="402" y="543"/>
      <point x="497" y="612"/>
      <point x="598" y="612" type="curve" smooth="yes"/>
      <point x="721" y="612"/>
      <point x="795" y="509"/>
      <point x="795" y="347" type="curve" smooth="yes"/>
      <point x="795" y="220"/>
      <point x="724" y="120"/>
      <point x="625" y="120" type="curve" smooth="yes"/>
      <point x="505" y="120"/>
      <point x="413" y="283"/>
      <point x="413" y="488" type="curve" smooth="yes"/>
      <point x="413" y="912"/>
      <point x="599" y="1135"/>
      <point x="1020" y="1234" type="curve"/>
      <point x="981" y="1375" type="line"/>
      <point x="416" y="1326"/>
      <point x="86" y="936"/>
      <point x="86" y="522" type="curve" smooth="yes"/>
      <point x="86" y="220"/>
      <point x="296" y="-19"/>
      <point x="601" y="-19" type="curve" smooth="yes"/>
      <point x="891" y="-19"/>
      <point x="1106" y="181"/>
      <point x="1106" y="441" type="curve" smooth="yes"/>
      <point x="1106" y="662"/>
      <point x="938" y="834"/>
      <point x="724" y="834" type="curve" smooth="yes"/>
      <point x="601" y="834"/>
      <point x="463" y="732"/>
    </contour>
  </outline>
</glyph>
<glyph name="seven" format="2">
  <advance width="1194"/>
  <unicode hex="0037"/>
  <outline>
    <contour>
      <point x="590" y="0" type="line"/>
      <point x="1079" y="1220" type="line"/>
      <point x="1071" y="1336" type="line"/>
      <point x="1014" y="1336"/>
      <point x="952" y="1335"/>
      <point x="902" y="1335" type="curve" smooth="yes"/>
      <point x="476" y="1335" type="line" smooth="yes"/>
      <point x="403" y="1335"/>
      <point x="246" y="1338"/>
      <point x="159" y="1339" type="curve"/>
      <point x="113" y="922" type="line"/>
      <point x="254" y="910" type="line"/>
      <point x="295" y="1062" type="line"/>
      <point x="332" y="1067"/>
      <point x="385" y="1071"/>
      <point x="418" y="1071" type="curve" smooth="yes"/>
      <point x="902" y="1071" type="line"/>
      <point x="902" y="1163" type="line"/>
      <point x="337" y="89" type="line"/>
      <point x="337" y="0" type="line"/>
    </contour>
  </outline>
</glyph>
<glyph name="eight" format="2">
  <advance width="1194"/>
  <unicode hex="0038"/>
  <outline>
    <contour>
      <point x="581" y="-19" type="curve" smooth="yes"/>
      <point x="925" y="-19"/>
      <point x="1153" y="136"/>
      <point x="1153" y="385" type="curve" smooth="yes"/>
      <point x="1153" y="821"/>
      <point x="408" y="729"/>
      <point x="408" y="1046" type="curve" smooth="yes"/>
      <point x="408" y="1147"/>
      <point x="484" y="1207"/>
      <point x="601" y="1207" type="curve" smooth="yes"/>
      <point x="727" y="1207"/>
      <point x="805" y="1126"/>
      <point x="805" y="981" type="curve" smooth="yes"/>
      <point x="805" y="875"/>
      <point x="777" y="800"/>
      <point x="703" y="693" type="curve"/>
      <point x="726" y="667" type="line"/>
      <point x="964" y="713"/>
      <point x="1098" y="832"/>
      <point x="1098" y="1004" type="curve" smooth="yes"/>
      <point x="1098" y="1208"/>
      <point x="931" y="1354"/>
      <point x="628" y="1354" type="curve" smooth="yes"/>
      <point x="306" y="1354"/>
      <point x="96" y="1194"/>
      <point x="96" y="965" type="curve" smooth="yes"/>
      <point x="96" y="496"/>
      <point x="836" y="591"/>
      <point x="836" y="295" type="curve" smooth="yes"/>
      <point x="836" y="202"/>
      <point x="752" y="141"/>
      <point x="617" y="141" type="curve" smooth="yes"/>
      <point x="465" y="141"/>
      <point x="358" y="219"/>
      <point x="358" y="360" type="curve" smooth="yes"/>
      <point x="358" y="445"/>
      <point x="392" y="523"/>
      <point x="476" y="622" type="curve"/>
      <point x="441" y="674" type="line"/>
      <point x="199" y="627"/>
      <point x="42" y="510"/>
      <point x="42" y="337" type="curve" smooth="yes"/>
      <point x="42" y="130"/>
      <point x="253" y="-19"/>
    </contour>
  </outline>
</glyph>
<glyph name="nine" format="2">
  <advance width="1194"/>
  <unicode hex="0039"/>
  <outline>
    <contour>
      <point x="832" y="734" type="curve"/>
      <point x="834" y="847" type="line"/>
      <point x="794" y="790"/>
      <point x="698" y="721"/>
      <point x="594" y="721" type="curve" smooth="yes"/>
      <point x="473" y="721"/>
      <point x="398" y="823"/>
      <point x="398" y="986" type="curve" smooth="yes"/>
      <point x="398" y="1111"/>
      <point x="470" y="1211"/>
      <point x="568" y="1211" type="curve" smooth="yes"/>
      <point x="688" y="1211"/>
      <point x="782" y="1050"/>
      <point x="782" y="845" type="curve" smooth="yes"/>
      <point x="782" y="421"/>
      <point x="594" y="198"/>
      <point x="172" y="100" type="curve"/>
      <point x="212" y="-40" type="line"/>
      <point x="776" y="6"/>
      <point x="1106" y="397"/>
      <point x="1106" y="810" type="curve" smooth="yes"/>
      <point x="1106" y="1113"/>
      <point x="897" y="1354"/>
      <point x="593" y="1354" type="curve" smooth="yes"/>
      <point x="303" y="1354"/>
      <point x="87" y="1150"/>
      <point x="87" y="891" type="curve" smooth="yes"/>
      <point x="87" y="671"/>
      <point x="254" y="499"/>
      <point x="470" y="499" type="curve" smooth="yes"/>
      <point x="594" y="499"/>
      <point x="730" y="599"/>
    </contour>
  </outline>
</glyph>
<glyph name="colon" format="2">
  <advance width="481"/>
  <unicode hex="003A"/>
  <outline>
    <contour>
      <point x="203" y="374" type="curve" smooth="yes"/>
      <point x="278" y="374"/>
      <point x="338" y="428"/>
      <point x="338" y="500" type="curve" smooth="yes"/>
      <point x="338" y="574"/>
      <point x="278" y="632"/>
      <point x="203" y="632" type="curve" smooth="yes"/>
      <point x="129" y="632"/>
      <point x="67" y="574"/>
      <point x="67" y="500" type="curve" smooth="yes"/>
      <point x="67" y="428"/>
      <point x="129" y="374"/>
    </contour>
    <contour>
      <point x="207" y="-14" type="curve" smooth="yes"/>
      <point x="283" y="-14"/>
      <point x="343" y="42"/>
      <point x="343" y="117" type="curve" smooth="yes"/>
      <point x="343" y="192"/>
      <point x="283" y="250"/>
      <point x="207" y="250" type="curve" smooth="yes"/>
      <point x="133" y="250"/>
      <point x="73" y="192"/>
      <point x="73" y="117" type="curve" smooth="yes"/>
      <point x="73" y="43"/>
      <point x="132" y="-14"/>
    </contour>
  </outline>
</glyph>
<glyph name="less" format="2">
  <advance width="1226"/>
  <unicode hex="003C"/>
  <outline>
    <contour>
      <point x="120" y="470" type="line"/>
      <point x="1106" y="65" type="line"/>
      <point x="1106" y="283" type="line"/>
      <point x="196" y="648" type="line"/>
      <point x="196" y="504" type="line"/>
      <point x="1106" y="875" type="line"/>
      <point x="1106" y="1096" type="line"/>
      <point x="120" y="692" type="line"/>
    </contour>
  </outline>
</glyph>
<glyph name="equal" format="2">
  <advance width="1226"/>
  <unicode hex="003D"/>
  <outline>
    <contour>
      <point x="1106" y="881" type="line"/>
      <point x="120" y="881" type="line"/>
      <point x="120" y="680" type="line"/>
      <point x="1106" y="680" type="line"/>
    </contour>
    <contour>
      <point x="1106" y="476" type="line"/>
      <point x="120" y="476" type="line"/>
      <point x="120" y="274" type="line"/>
      <point x="1106" y="274" type="line"/>
    </contour>
  </outline>
</glyph>
<glyph name="greater" format="2">
  <advance width="1226"/>
  <unicode hex="003E"/>
  <outline>
    <contour>
      <point x="1106" y="470" type="line"/>
      <point x="1106" y="692" type="line"/>
      <point x="120" y="1096" type="line"/>
      <point x="120" y="875" type="line"/>
      <point x="1028" y="504" type="line"/>
      <point x="1028" y="648" type="line"/>
      <point x="120" y="283" type="line"/>
      <point x="120" y="65" type="line"/>
    </contour>
  </outline>
</glyph>
<glyph name="question" format="2">
  <advance width="868"/>
  <unicode hex="003F"/>
  <note>
question
</note>
  <outline>
    <component base="period" xOffset="-6"/>
    <contour>
      <point x="240" y="520" type="curve"/>
      <point x="377" y="520" type="line"/>
      <point x="373" y="559"/>
      <point x="369" y="581"/>
      <point x="369" y="601" type="curve" smooth="yes"/>
      <point x="369" y="784"/>
      <point x="786" y="755"/>
      <point x="786" y="1084" type="curve" smooth="yes"/>
      <point x="786" y="1359"/>
      <point x="518" y="1587"/>
      <point x="215" y="1587" type="curve" smooth="yes"/>
      <point x="89" y="1587"/>
      <point x="10" y="1524"/>
      <point x="10" y="1435" type="curve" smooth="yes"/>
      <point x="10" y="1343"/>
      <point x="91" y="1278"/>
      <point x="204" y="1278" type="curve" smooth="yes"/>
      <point x="287" y="1278"/>
      <point x="355" y="1317"/>
      <point x="431" y="1317" type="curve" smooth="yes"/>
      <point x="515" y="1317"/>
      <point x="565" y="1267"/>
      <point x="565" y="1205" type="curve" smooth="yes"/>
      <point x="565" y="1030"/>
      <point x="188" y="980"/>
      <point x="188" y="734" type="curve" smooth="yes"/>
      <point x="188" y="664"/>
      <point x="204" y="603"/>
    </contour>
  </outline>
</glyph>
<glyph name="at" format="2">
  <advance width="2224"/>
  <unicode hex="0040"/>
  <note>
at
</note>
  <outline>
    <contour>
      <point x="1139" y="-515" type="curve" smooth="yes"/>
      <point x="1305" y="-515"/>
      <point x="1461" y="-483"/>
      <point x="1590" y="-426" type="curve"/>
      <point x="1548" y="-306" type="line"/>
      <point x="1435" y="-351"/>
      <point x="1307" y="-376"/>
      <point x="1156" y="-376" type="curve" smooth="yes"/>
      <point x="685" y="-376"/>
      <point x="387" y="-102"/>
      <point x="387" y="402" type="curve" smooth="yes"/>
      <point x="387" y="905"/>
      <point x="696" y="1215"/>
      <point x="1207" y="1215" type="curve" smooth="yes"/>
      <point x="1631" y="1215"/>
      <point x="1898" y="1045"/>
      <point x="1898" y="640" type="curve" smooth="yes"/>
      <point x="1898" y="313"/>
      <point x="1765" y="141"/>
      <point x="1607" y="141" type="curve"/>
      <point x="1592" y="172"/>
      <point x="1589" y="212"/>
      <point x="1589" y="324" type="curve"/>
      <point x="1595" y="677" type="line"/>
      <point x="1595" y="886"/>
      <point x="1422" y="1019"/>
      <point x="1150" y="1019" type="curve"/>
      <point x="1014" y="1001"/>
      <point x="724" y="858"/>
      <point x="724" y="739" type="curve" smooth="yes"/>
      <point x="724" y="662"/>
      <point x="792" y="619"/>
      <point x="896" y="619" type="curve" smooth="yes"/>
      <point x="923" y="619"/>
      <point x="952" y="622"/>
      <point x="986" y="628" type="curve"/>
      <point x="999" y="771" type="line" smooth="yes"/>
      <point x="1004" y="832"/>
      <point x="1020" y="852"/>
      <point x="1069" y="852" type="curve" smooth="yes"/>
      <point x="1177" y="852"/>
      <point x="1283" y="761"/>
      <point x="1283" y="666" type="curve" smooth="yes"/>
      <point x="1283" y="588" type="line"/>
      <point x="923" y="484" type="line" smooth="yes"/>
      <point x="781" y="442"/>
      <point x="716" y="371"/>
      <point x="716" y="258" type="curve" smooth="yes"/>
      <point x="716" y="143"/>
      <point x="842" y="-16"/>
      <point x="1054" y="-16" type="curve" smooth="yes"/>
      <point x="1145" y="-16"/>
      <point x="1247" y="50"/>
      <point x="1341" y="168" type="curve"/>
      <point x="1291" y="178" type="line"/>
      <point x="1335" y="73" type="line" smooth="yes"/>
      <point x="1356" y="11"/>
      <point x="1398" y="-16"/>
      <point x="1493" y="-16" type="curve" smooth="yes"/>
      <point x="1809" y="-16"/>
      <point x="2123" y="292"/>
      <point x="2123" y="645" type="curve" smooth="yes"/>
      <point x="2123" y="1103"/>
      <point x="1714" y="1348"/>
      <point x="1210" y="1348" type="curve" smooth="yes"/>
      <point x="590" y="1348"/>
      <point x="112" y="973"/>
      <point x="112" y="379" type="curve" smooth="yes"/>
      <point x="112" y="-180"/>
      <point x="551" y="-515"/>
    </contour>
    <contour>
      <point x="1176" y="189" type="curve" smooth="yes"/>
      <point x="1100" y="189"/>
      <point x="1033" y="259"/>
      <point x="1033" y="329" type="curve" smooth="yes"/>
      <point x="1033" y="385"/>
      <point x="1062" y="423"/>
      <point x="1137" y="432" type="curve" smooth="yes"/>
      <point x="1284" y="458" type="line"/>
      <point x="1284" y="238" type="line"/>
      <point x="1254" y="206"/>
      <point x="1213" y="189"/>
    </contour>
  </outline>
</glyph>
<glyph name="A" format="2">
  <advance width="1393"/>
  <unicode hex="0041"/>
  <note>
A
</note>
  <anchor x="667" y="1335" name="above"/>
  <anchor x="614" y="0" name="below"/>
  <anchor x="1299" y="0" name="ogonek"/>
  <outline>
    <contour>
      <point x="0" y="0" type="line"/>
      <point x="444" y="0" type="line"/>
      <point x="450" y="115" type="line"/>
      <point x="303" y="151" type="line"/>
      <point x="410" y="458" type="line"/>
      <point x="431" y="526" type="line"/>
      <point x="615" y="1027" type="line"/>
      <point x="549" y="1051" type="line"/>
      <point x="774" y="518" type="line"/>
      <point x="798" y="441" type="line"/>
      <point x="920" y="151" type="line"/>
      <point x="774" y="115" type="line"/>
      <point x="781" y="0" type="line"/>
      <point x="1403" y="0" type="line"/>
      <point x="1411" y="115" type="line"/>
      <point x="1292" y="151" type="line"/>
      <point x="768" y="1375" type="line"/>
      <point x="573" y="1267" type="line"/>
      <point x="110" y="151" type="line"/>
      <point x="-3" y="115" type="line"/>
    </contour>
    <contour>
      <point x="353" y="382" type="line"/>
      <point x="407" y="385"/>
      <point x="479" y="389"/>
      <point x="606" y="389" type="curve" smooth="yes"/>
      <point x="732" y="389"/>
      <point x="807" y="385"/>
      <point x="860" y="385" type="curve"/>
      <point x="860" y="539" type="line"/>
      <point x="802" y="538"/>
      <point x="727" y="530"/>
      <point x="606" y="530" type="curve" smooth="yes"/>
      <point x="483" y="530"/>
      <point x="413" y="538"/>
      <point x="353" y="539" type="curve"/>
    </contour>
  </outline>
</glyph>
<glyph name="B" format="2">
  <advance width="1382"/>
  <unicode hex="0042"/>
  <note>
B
</note>
  <anchor x="701" y="1335" name="above"/>
  <anchor x="701" y="0" name="below"/>
  <outline>
    <contour>
      <point x="222" y="151" type="curve"/>
      <point x="76" y="115" type="line"/>
      <point x="83" y="0" type="line"/>
      <point x="688" y="0" type="line" smooth="yes"/>
      <point x="1066" y="0"/>
      <point x="1284" y="141"/>
      <point x="1284" y="390" type="curve" smooth="yes"/>
      <point x="1284" y="590"/>
      <point x="1122" y="714"/>
      <point x="836" y="727" type="curve"/>
      <point x="818" y="709" type="line"/>
      <point x="1056" y="722"/>
      <point x="1216" y="847"/>
      <point x="1216" y="1012" type="curve" smooth="yes"/>
      <point x="1216" y="1228"/>
      <point x="1059" y="1335"/>
      <point x="739" y="1335" type="curve" smooth="yes"/>
      <point x="83" y="1335" type="line"/>
      <point x="76" y="1220" type="line"/>
      <point x="222" y="1181" type="line"/>
      <point x="232" y="1165"/>
      <point x="238" y="1014"/>
      <point x="238" y="828" type="curve" smooth="yes"/>
      <point x="238" y="504" type="line" smooth="yes"/>
      <point x="238" y="319"/>
      <point x="232" y="170"/>
    </contour>
    <contour>
      <point x="552" y="402" type="curve" smooth="yes"/>
      <point x="552" y="928" type="line" smooth="yes"/>
      <point x="552" y="1067"/>
      <point x="554" y="1177"/>
      <point x="557" y="1203" type="curve"/>
      <point x="635" y="1203" type="line" smooth="yes"/>
      <point x="802" y="1203"/>
      <point x="876" y="1118"/>
      <point x="876" y="981" type="curve" smooth="yes"/>
      <point x="876" y="834"/>
      <point x="797" y="750"/>
      <point x="635" y="750" type="curve" smooth="yes"/>
      <point x="596" y="750"/>
      <point x="567" y="753"/>
      <point x="520" y="755" type="curve"/>
      <point x="520" y="601" type="line"/>
      <point x="560" y="604"/>
      <point x="594" y="606"/>
      <point x="646" y="606" type="curve" smooth="yes"/>
      <point x="854" y="606"/>
      <point x="946" y="526"/>
      <point x="946" y="356" type="curve" smooth="yes"/>
      <point x="946" y="217"/>
      <point x="854" y="133"/>
      <point x="695" y="133" type="curve" smooth="yes"/>
      <point x="649" y="133"/>
      <point x="590" y="141"/>
      <point x="560" y="152" type="curve"/>
      <point x="554" y="186"/>
      <point x="552" y="279"/>
    </contour>
  </outline>
</glyph>
<glyph name="C" format="2">
  <advance width="1420"/>
  <unicode hex="0043"/>
  <note>
C
</note>
  <anchor x="802" y="1335" name="above"/>
  <anchor x="802" y="0" name="below"/>
  <outline>
    <contour>
      <point x="852" y="-19" type="curve" smooth="yes"/>
      <point x="1032" y="-19"/>
      <point x="1203" y="31"/>
      <point x="1302" y="94" type="curve"/>
      <point x="1367" y="398" type="line"/>
      <point x="1211" y="416" type="line"/>
      <point x="1129" y="206" type="line"/>
      <point x="1072" y="160"/>
      <point x="991" y="138"/>
      <point x="907" y="138" type="curve" smooth="yes"/>
      <point x="671" y="138"/>
      <point x="481" y="350"/>
      <point x="481" y="700" type="curve" smooth="yes"/>
      <point x="481" y="1011"/>
      <point x="625" y="1202"/>
      <point x="883" y="1202" type="curve" smooth="yes"/>
      <point x="951" y="1202"/>
      <point x="1022" y="1186"/>
      <point x="1080" y="1156" type="curve"/>
      <point x="1163" y="917" type="line"/>
      <point x="1305" y="926" type="line"/>
      <point x="1289" y="1276" type="line"/>
      <point x="1195" y="1322"/>
      <point x="1043" y="1354"/>
      <point x="904" y="1354" type="curve" smooth="yes"/>
      <point x="444" y="1354"/>
      <point x="102" y="1087"/>
      <point x="102" y="643" type="curve" smooth="yes"/>
      <point x="102" y="220"/>
      <point x="405" y="-19"/>
    </contour>
  </outline>
</glyph>
<glyph name="D" format="2">
  <advance width="1615"/>
  <unicode hex="0044"/>
  <note>
D
</note>
  <anchor x="795" y="1335" name="above"/>
  <anchor x="773" y="0" name="below"/>
  <anchor x="818" y="667" name="center"/>
  <anchor x="488" y="667" name="stroke"/>
  <outline>
    <contour>
      <point x="86" y="1335" type="line"/>
      <point x="78" y="1218" type="line"/>
      <point x="225" y="1182" type="line"/>
      <point x="233" y="1165"/>
      <point x="240" y="1017"/>
      <point x="240" y="828" type="curve" smooth="yes"/>
      <point x="240" y="504" type="line" smooth="yes"/>
      <point x="240" y="317"/>
      <point x="233" y="170"/>
      <point x="225" y="151" type="curve"/>
      <point x="78" y="115" type="line"/>
      <point x="86" y="0" type="line"/>
      <point x="742" y="0" type="line" smooth="yes"/>
      <point x="1184" y="0"/>
      <point x="1501" y="285"/>
      <point x="1501" y="683" type="curve" smooth="yes"/>
      <point x="1501" y="1093"/>
      <point x="1213" y="1335"/>
      <point x="721" y="1335" type="curve" smooth="yes"/>
    </contour>
    <contour>
      <point x="560" y="1181" type="curve"/>
      <point x="607" y="1187"/>
      <point x="658" y="1192"/>
      <point x="701" y="1192" type="curve" smooth="yes"/>
      <point x="936" y="1192"/>
      <point x="1148" y="1040"/>
      <point x="1148" y="611" type="curve" smooth="yes"/>
      <point x="1148" y="293"/>
      <point x="1020" y="151"/>
      <point x="766" y="151" type="curve" smooth="yes"/>
      <point x="705" y="151"/>
      <point x="633" y="159"/>
      <point x="568" y="172" type="curve"/>
      <point x="560" y="236"/>
      <point x="557" y="385"/>
      <point x="557" y="504" type="curve" smooth="yes"/>
      <point x="557" y="828" type="line" smooth="yes"/>
      <point x="557" y="1028"/>
      <point x="560" y="1148"/>
    </contour>
  </outline>
</glyph>
<glyph name="E" format="2">
  <advance width="1330"/>
  <unicode hex="0045"/>
  <note>
E
</note>
  <anchor x="669" y="1335" name="above"/>
  <anchor x="669" y="0" name="below"/>
  <anchor x="1194" y="0" name="ogonek"/>
  <anchor x="65" y="1335" name="topleft"/>
  <outline>
    <contour>
      <point x="1190" y="-13" type="curve"/>
      <point x="1292" y="356" type="line"/>
      <point x="1161" y="382" type="line"/>
      <point x="1037" y="152" type="line"/>
      <point x="999" y="147"/>
      <point x="993" y="144"/>
      <point x="876" y="144" type="curve" smooth="yes"/>
      <point x="761" y="144" type="line" smooth="yes"/>
      <point x="666" y="144"/>
      <point x="614" y="147"/>
      <point x="559" y="154" type="curve"/>
      <point x="554" y="194"/>
      <point x="552" y="290"/>
      <point x="552" y="444" type="curve" smooth="yes"/>
      <point x="552" y="910" type="line" smooth="yes"/>
      <point x="552" y="1064"/>
      <point x="554" y="1155"/>
      <point x="559" y="1192" type="curve"/>
      <point x="590" y="1197"/>
      <point x="648" y="1199"/>
      <point x="708" y="1199" type="curve" smooth="yes"/>
      <point x="873" y="1199" type="line" smooth="yes"/>
      <point x="907" y="1199"/>
      <point x="936" y="1197"/>
      <point x="977" y="1187" type="curve"/>
      <point x="1062" y="986" type="line"/>
      <point x="1197" y="1006" type="line"/>
      <point x="1135" y="1346" type="line"/>
      <point x="1045" y="1338"/>
      <point x="875" y="1335"/>
      <point x="781" y="1335" type="curve" smooth="yes"/>
      <point x="84" y="1335" type="line"/>
      <point x="76" y="1218" type="line"/>
      <point x="222" y="1181" type="line"/>
      <point x="230" y="1165"/>
      <point x="238" y="1016"/>
      <point x="238" y="828" type="curve" smooth="yes"/>
      <point x="238" y="504" type="line" smooth="yes"/>
      <point x="238" y="321"/>
      <point x="230" y="170"/>
      <point x="222" y="151" type="curve"/>
      <point x="76" y="115" type="line"/>
      <point x="84" y="0" type="line"/>
      <point x="867" y="0" type="line"/>
      <point x="964" y="0"/>
      <point x="1101" y="-6"/>
    </contour>
    <contour>
      <point x="897" y="452" type="line"/>
      <point x="1027" y="452" type="line"/>
      <point x="1027" y="913" type="line"/>
      <point x="897" y="913" type="line"/>
      <point x="875" y="761" type="line"/>
      <point x="854" y="761"/>
      <point x="803" y="760"/>
      <point x="745" y="760" type="curve" smooth="yes"/>
      <point x="627" y="760" type="line" smooth="yes"/>
      <point x="573" y="760"/>
      <point x="523" y="764"/>
      <point x="502" y="766" type="curve"/>
      <point x="502" y="603" type="line"/>
      <point x="523" y="604"/>
      <point x="573" y="609"/>
      <point x="627" y="609" type="curve" smooth="yes"/>
      <point x="745" y="609" type="line" smooth="yes"/>
      <point x="803" y="609"/>
      <point x="854" y="606"/>
      <point x="875" y="604" type="curve"/>
    </contour>
  </outline>
</glyph>
<glyph name="F" format="2">
  <advance width="1234"/>
  <unicode hex="0046"/>
  <note>
F
</note>
  <anchor x="599" y="1335" name="above"/>
  <anchor x="395" y="0" name="below"/>
  <outline>
    <contour>
      <point x="94" y="0" type="line"/>
      <point x="747" y="0" type="line"/>
      <point x="755" y="118" type="line"/>
      <point x="570" y="151" type="line"/>
      <point x="564" y="170"/>
      <point x="554" y="306"/>
      <point x="554" y="382" type="curve"/>
      <point x="552" y="913" type="line"/>
      <point x="552" y="1139"/>
      <point x="551" y="1158"/>
      <point x="554" y="1187" type="curve"/>
      <point x="585" y="1195"/>
      <point x="640" y="1199"/>
      <point x="693" y="1199" type="curve" smooth="yes"/>
      <point x="858" y="1199" type="line" smooth="yes"/>
      <point x="894" y="1199"/>
      <point x="922" y="1197"/>
      <point x="960" y="1187" type="curve"/>
      <point x="1050" y="986" type="line"/>
      <point x="1184" y="1006" type="line"/>
      <point x="1121" y="1346" type="line"/>
      <point x="1043" y="1341"/>
      <point x="862" y="1335"/>
      <point x="763" y="1335" type="curve" smooth="yes"/>
      <point x="89" y="1335" type="line"/>
      <point x="81" y="1218" type="line"/>
      <point x="227" y="1181" type="line"/>
      <point x="233" y="1165"/>
      <point x="240" y="1014"/>
      <point x="240" y="828" type="curve"/>
      <point x="238" y="504" type="line"/>
      <point x="238" y="319"/>
      <point x="230" y="170"/>
      <point x="224" y="151" type="curve"/>
      <point x="86" y="115" type="line"/>
    </contour>
    <contour>
      <point x="878" y="426" type="line"/>
      <point x="1014" y="426" type="line"/>
      <point x="1014" y="901" type="line"/>
      <point x="878" y="901" type="line"/>
      <point x="857" y="752" type="line"/>
      <point x="836" y="750"/>
      <point x="787" y="745"/>
      <point x="726" y="745" type="curve" smooth="yes"/>
      <point x="601" y="745" type="line" smooth="yes"/>
      <point x="547" y="745"/>
      <point x="496" y="750"/>
      <point x="465" y="753" type="curve"/>
      <point x="465" y="588" type="line"/>
      <point x="499" y="590"/>
      <point x="546" y="596"/>
      <point x="601" y="596" type="curve" smooth="yes"/>
      <point x="726" y="596" type="line" smooth="yes"/>
      <point x="769" y="596"/>
      <point x="818" y="593"/>
      <point x="857" y="588" type="curve"/>
    </contour>
  </outline>
</glyph>
<glyph name="G" format="2">
  <advance width="1505"/>
  <unicode hex="0047"/>
  <note>
G
</note>
  <anchor x="798" y="1335" name="above"/>
  <anchor x="798" y="0" name="below"/>
  <outline>
    <contour>
      <point x="844" y="-19" type="curve" smooth="yes"/>
      <point x="1009" y="-19"/>
      <point x="1186" y="18"/>
      <point x="1318" y="99" type="curve"/>
      <point x="1315" y="186"/>
      <point x="1312" y="253"/>
      <point x="1312" y="304" type="curve" smooth="yes"/>
      <point x="1312" y="369"/>
      <point x="1310" y="442"/>
      <point x="1312" y="476" type="curve"/>
      <point x="1427" y="513" type="line"/>
      <point x="1420" y="630" type="line"/>
      <point x="837" y="630" type="line"/>
      <point x="829" y="510" type="line"/>
      <point x="993" y="475" type="line"/>
      <point x="998" y="432"/>
      <point x="1003" y="351"/>
      <point x="1003" y="290" type="curve" smooth="yes"/>
      <point x="1003" y="47" type="line"/>
      <point x="1053" y="172" type="line"/>
      <point x="1007" y="147"/>
      <point x="944" y="138"/>
      <point x="904" y="138" type="curve" smooth="yes"/>
      <point x="662" y="138"/>
      <point x="471" y="350"/>
      <point x="471" y="700" type="curve" smooth="yes"/>
      <point x="471" y="1011"/>
      <point x="622" y="1202"/>
      <point x="881" y="1202" type="curve" smooth="yes"/>
      <point x="941" y="1202"/>
      <point x="1016" y="1190"/>
      <point x="1075" y="1156" type="curve"/>
      <point x="1147" y="947" type="line"/>
      <point x="1292" y="952" type="line"/>
      <point x="1283" y="1276" type="line"/>
      <point x="1192" y="1322"/>
      <point x="1041" y="1354"/>
      <point x="902" y="1354" type="curve" smooth="yes"/>
      <point x="437" y="1354"/>
      <point x="97" y="1087"/>
      <point x="97" y="633" type="curve" smooth="yes"/>
      <point x="97" y="220"/>
      <point x="403" y="-19"/>
    </contour>
  </outline>
</glyph>
<glyph name="H" format="2">
  <advance width="1607"/>
  <unicode hex="0048"/>
  <note>
H
</note>
  <anchor x="800" y="1335" name="above"/>
  <anchor x="800" y="0" name="below"/>
  <anchor x="800" y="986" name="center"/>
  <anchor x="65" y="1335" name="topleft"/>
  <outline>
    <contour>
      <point x="899" y="0" type="line"/>
      <point x="1521" y="0" type="line"/>
      <point x="1527" y="115" type="line"/>
      <point x="1383" y="151" type="line"/>
      <point x="1375" y="175"/>
      <point x="1365" y="353"/>
      <point x="1365" y="504" type="curve" smooth="yes"/>
      <point x="1365" y="828" type="line" smooth="yes"/>
      <point x="1365" y="986"/>
      <point x="1375" y="1163"/>
      <point x="1383" y="1182" type="curve"/>
      <point x="1527" y="1218" type="line"/>
      <point x="1521" y="1335" type="line"/>
      <point x="899" y="1335" type="line"/>
      <point x="892" y="1218" type="line"/>
      <point x="1033" y="1182" type="line"/>
      <point x="1041" y="1163"/>
      <point x="1048" y="1007"/>
      <point x="1048" y="828" type="curve" smooth="yes"/>
      <point x="1048" y="504" type="line" smooth="yes"/>
      <point x="1048" y="329"/>
      <point x="1041" y="175"/>
      <point x="1033" y="151" type="curve"/>
      <point x="892" y="115" type="line"/>
    </contour>
    <contour>
      <point x="84" y="0" type="line"/>
      <point x="705" y="0" type="line"/>
      <point x="711" y="115" type="line"/>
      <point x="570" y="151" type="line"/>
      <point x="560" y="175"/>
      <point x="554" y="329"/>
      <point x="554" y="504" type="curve" smooth="yes"/>
      <point x="554" y="828" type="line" smooth="yes"/>
      <point x="554" y="1007"/>
      <point x="560" y="1163"/>
      <point x="570" y="1182" type="curve"/>
      <point x="711" y="1218" type="line"/>
      <point x="705" y="1335" type="line"/>
      <point x="84" y="1335" type="line"/>
      <point x="78" y="1218" type="line"/>
      <point x="222" y="1182" type="line"/>
      <point x="230" y="1168"/>
      <point x="238" y="1014"/>
      <point x="238" y="828" type="curve" smooth="yes"/>
      <point x="238" y="504" type="line" smooth="yes"/>
      <point x="238" y="322"/>
      <point x="230" y="170"/>
      <point x="222" y="151" type="curve"/>
      <point x="78" y="115" type="line"/>
    </contour>
    <contour>
      <point x="500" y="591" type="line"/>
      <point x="564" y="594"/>
      <point x="651" y="601"/>
      <point x="802" y="601" type="curve" smooth="yes"/>
      <point x="951" y="601"/>
      <point x="1040" y="594"/>
      <point x="1103" y="591" type="curve"/>
      <point x="1103" y="768" type="line"/>
      <point x="1027" y="760"/>
      <point x="943" y="756"/>
      <point x="802" y="756" type="curve" smooth="yes"/>
      <point x="661" y="756"/>
      <point x="575" y="760"/>
      <point x="500" y="768" type="curve"/>
    </contour>
  </outline>
</glyph>
<glyph name="I" format="2">
  <advance width="795"/>
  <unicode hex="0049"/>
  <note>
I
</note>
  <anchor x="397" y="1335" name="above"/>
  <anchor x="397" y="0" name="below"/>
  <anchor x="567" y="0" name="ogonek"/>
  <anchor x="65" y="1335" name="topleft"/>
  <outline>
    <contour>
      <point x="84" y="0" type="line"/>
      <point x="708" y="0" type="line"/>
      <point x="714" y="115" type="line"/>
      <point x="570" y="151" type="line"/>
      <point x="560" y="175"/>
      <point x="554" y="329"/>
      <point x="554" y="504" type="curve" smooth="yes"/>
      <point x="554" y="828" type="line" smooth="yes"/>
      <point x="554" y="1007"/>
      <point x="560" y="1163"/>
      <point x="570" y="1182" type="curve"/>
      <point x="714" y="1218" type="line"/>
      <point x="708" y="1335" type="line"/>
      <point x="84" y="1335" type="line"/>
      <point x="78" y="1218" type="line"/>
      <point x="222" y="1182" type="line"/>
      <point x="230" y="1168"/>
      <point x="238" y="1014"/>
      <point x="238" y="828" type="curve" smooth="yes"/>
      <point x="238" y="504" type="line" smooth="yes"/>
      <point x="238" y="322"/>
      <point x="230" y="170"/>
      <point x="222" y="151" type="curve"/>
      <point x="78" y="115" type="line"/>
    </contour>
  </outline>
</glyph>
<glyph name="J" format="2">
  <advance width="795"/>
  <unicode hex="004A"/>
  <note>
J
</note>
  <anchor x="397" y="1335" name="above"/>
  <outline>
    <contour>
      <point x="570" y="1182" type="curve"/>
      <point x="714" y="1218" type="line"/>
      <point x="708" y="1335" type="line"/>
      <point x="68" y="1335" type="line"/>
      <point x="62" y="1218" type="line"/>
      <point x="222" y="1186" type="line"/>
      <point x="230" y="1161"/>
      <point x="238" y="1003"/>
      <point x="238" y="839" type="curve"/>
      <point x="240" y="-47" type="line"/>
      <point x="240" y="-303"/>
      <point x="217" y="-351"/>
      <point x="110" y="-332" type="curve"/>
      <point x="240" y="-379" type="line"/>
      <point x="76" y="-224" type="line" smooth="yes"/>
      <point x="19" y="-168"/>
      <point x="-24" y="-144"/>
      <point x="-81" y="-144" type="curve" smooth="yes"/>
      <point x="-147" y="-144"/>
      <point x="-201" y="-196"/>
      <point x="-201" y="-267" type="curve" smooth="yes"/>
      <point x="-201" y="-381"/>
      <point x="-62" y="-460"/>
      <point x="125" y="-460" type="curve" smooth="yes"/>
      <point x="387" y="-460"/>
      <point x="559" y="-279"/>
      <point x="559" y="6" type="curve"/>
      <point x="554" y="832" type="line"/>
      <point x="554" y="1016"/>
      <point x="560" y="1165"/>
    </contour>
  </outline>
</glyph>
<glyph name="K" format="2">
  <advance width="1505"/>
  <unicode hex="004B"/>
  <note>
K
</note>
  <anchor x="760" y="1335" name="above"/>
  <anchor x="760" y="0" name="below"/>
  <outline>
    <contour>
      <point x="845" y="0" type="line"/>
      <point x="1534" y="0" type="line"/>
      <point x="1534" y="117" type="line"/>
      <point x="1417" y="134" type="line"/>
      <point x="1396" y="157"/>
      <point x="1359" y="191"/>
      <point x="1250" y="322" type="curve" smooth="yes"/>
      <point x="811" y="850" type="line"/>
      <point x="820" y="748" type="line"/>
      <point x="1315" y="1190" type="line"/>
      <point x="1469" y="1213" type="line"/>
      <point x="1463" y="1335" type="line"/>
      <point x="939" y="1335" type="line"/>
      <point x="933" y="1218" type="line"/>
      <point x="1077" y="1192" type="line"/>
      <point x="609" y="711" type="line"/>
      <point x="515" y="692" type="line"/>
      <point x="515" y="585" type="line"/>
      <point x="604" y="585" type="line"/>
      <point x="879" y="246" type="line" smooth="yes"/>
      <point x="922" y="191"/>
      <point x="936" y="170"/>
      <point x="954" y="138" type="curve"/>
      <point x="837" y="115" type="line"/>
    </contour>
    <contour>
      <point x="92" y="0" type="line"/>
      <point x="675" y="0" type="line"/>
      <point x="682" y="115" type="line"/>
      <point x="568" y="151" type="line"/>
      <point x="560" y="170"/>
      <point x="557" y="313"/>
      <point x="557" y="504" type="curve" smooth="yes"/>
      <point x="557" y="828" type="line" smooth="yes"/>
      <point x="557" y="1006"/>
      <point x="564" y="1160"/>
      <point x="572" y="1181" type="curve"/>
      <point x="716" y="1218" type="line"/>
      <point x="711" y="1335" type="line"/>
      <point x="86" y="1335" type="line"/>
      <point x="79" y="1218" type="line"/>
      <point x="224" y="1181" type="line"/>
      <point x="233" y="1165"/>
      <point x="240" y="1014"/>
      <point x="240" y="828" type="curve" smooth="yes"/>
      <point x="240" y="504" type="line" smooth="yes"/>
      <point x="240" y="313"/>
      <point x="236" y="170"/>
      <point x="230" y="151" type="curve"/>
      <point x="84" y="115" type="line"/>
    </contour>
  </outline>
</glyph>
<glyph name="L" format="2">
  <advance width="1263"/>
  <unicode hex="004C"/>
  <note>
L
</note>
  <anchor x="397" y="1335" name="above"/>
  <anchor x="680" y="0" name="below"/>
  <anchor x="462" y="688" name="center"/>
  <anchor x="889" y="726" name="dotacc"/>
  <anchor x="873" y="1335" name="topright"/>
  <outline>
    <contour>
      <point x="1140" y="-15" type="curve"/>
      <point x="1252" y="398" type="line"/>
      <point x="1111" y="431" type="line"/>
      <point x="980" y="181" type="line"/>
      <point x="949" y="175"/>
      <point x="894" y="167"/>
      <point x="834" y="167" type="curve" smooth="yes"/>
      <point x="748" y="167" type="line" smooth="yes"/>
      <point x="671" y="167"/>
      <point x="620" y="170"/>
      <point x="568" y="178" type="curve"/>
      <point x="560" y="217"/>
      <point x="557" y="324"/>
      <point x="557" y="504" type="curve" smooth="yes"/>
      <point x="557" y="828" type="line" smooth="yes"/>
      <point x="557" y="1014"/>
      <point x="565" y="1163"/>
      <point x="572" y="1179" type="curve"/>
      <point x="761" y="1213" type="line"/>
      <point x="755" y="1335" type="line"/>
      <point x="86" y="1335" type="line"/>
      <point x="79" y="1218" type="line"/>
      <point x="227" y="1181" type="line"/>
      <point x="233" y="1160"/>
      <point x="238" y="999"/>
      <point x="238" y="828" type="curve" smooth="yes"/>
      <point x="238" y="504" type="line" smooth="yes"/>
      <point x="238" y="337"/>
      <point x="233" y="175"/>
      <point x="227" y="151" type="curve"/>
      <point x="79" y="115" type="line"/>
      <point x="86" y="0" type="line"/>
      <point x="771" y="0" type="line"/>
      <point x="847" y="0"/>
      <point x="1022" y="-3"/>
    </contour>
  </outline>
</glyph>
<glyph name="M" format="2">
  <advance width="2037"/>
  <unicode hex="004D"/>
  <note>
M
</note>
  <anchor x="952" y="1335" name="above"/>
  <anchor x="952" y="0" name="below"/>
  <outline>
    <contour>
      <point x="107" y="1335" type="line"/>
      <point x="100" y="1218" type="line"/>
      <point x="245" y="1181" type="line"/>
      <point x="245" y="1142"/>
      <point x="248" y="1046"/>
      <point x="245" y="894" type="curve" smooth="yes"/>
      <point x="238" y="473" type="line" smooth="yes"/>
      <point x="236" y="329"/>
      <point x="233" y="178"/>
      <point x="228" y="151" type="curve"/>
      <point x="70" y="115" type="line"/>
      <point x="76" y="0" type="line"/>
      <point x="578" y="0" type="line"/>
      <point x="585" y="115" type="line"/>
      <point x="428" y="151" type="line"/>
      <point x="423" y="168"/>
      <point x="421" y="253"/>
      <point x="421" y="484" type="curve" smooth="yes"/>
      <point x="418" y="1268" type="line"/>
      <point x="269" y="1268" type="line"/>
      <point x="879" y="-5" type="line"/>
      <point x="1028" y="-5" type="line"/>
      <point x="1569" y="1268" type="line"/>
      <point x="1463" y="1268" type="line"/>
      <point x="1469" y="502" type="line" smooth="yes"/>
      <point x="1472" y="304"/>
      <point x="1469" y="175"/>
      <point x="1466" y="151" type="curve"/>
      <point x="1318" y="115" type="line"/>
      <point x="1326" y="0" type="line"/>
      <point x="1957" y="0" type="line"/>
      <point x="1963" y="115" type="line"/>
      <point x="1816" y="151" type="line"/>
      <point x="1811" y="173"/>
      <point x="1801" y="313"/>
      <point x="1793" y="502" type="curve"/>
      <point x="1780" y="899" type="line" smooth="yes"/>
      <point x="1777" y="1038"/>
      <point x="1773" y="1134"/>
      <point x="1777" y="1182" type="curve"/>
      <point x="1921" y="1218" type="line"/>
      <point x="1914" y="1335" type="line"/>
      <point x="1425" y="1335" type="line"/>
      <point x="999" y="334" type="line"/>
      <point x="1069" y="334" type="line"/>
      <point x="593" y="1335" type="line"/>
    </contour>
  </outline>
</glyph>
<glyph name="N" format="2">
  <advance width="1595"/>
  <unicode hex="004E"/>
  <note>
N
</note>
  <anchor x="797" y="1335" name="above"/>
  <anchor x="797" y="0" name="below"/>
  <outline>
    <contour>
      <point x="1184" y="424" type="line"/>
      <point x="1280" y="424" type="line"/>
      <point x="452" y="1335" type="line"/>
      <point x="87" y="1335" type="line"/>
      <point x="81" y="1218" type="line"/>
      <point x="225" y="1181" type="line"/>
      <point x="230" y="1150"/>
      <point x="241" y="1003"/>
      <point x="241" y="896" type="curve" smooth="yes"/>
      <point x="241" y="599" type="line" smooth="yes"/>
      <point x="241" y="373"/>
      <point x="233" y="178"/>
      <point x="225" y="151" type="curve"/>
      <point x="81" y="115" type="line"/>
      <point x="87" y="0" type="line"/>
      <point x="585" y="0" type="line"/>
      <point x="593" y="115" type="line"/>
      <point x="432" y="151" type="line"/>
      <point x="421" y="178"/>
      <point x="416" y="356"/>
      <point x="416" y="599" type="curve" smooth="yes"/>
      <point x="416" y="1040" type="line"/>
      <point x="288" y="1040" type="line"/>
      <point x="1210" y="-11" type="line"/>
      <point x="1351" y="-11" type="line"/>
      <point x="1351" y="92"/>
      <point x="1352" y="193"/>
      <point x="1352" y="339" type="curve" smooth="yes"/>
      <point x="1352" y="761" type="line" smooth="yes"/>
      <point x="1352" y="980"/>
      <point x="1359" y="1160"/>
      <point x="1367" y="1181" type="curve"/>
      <point x="1513" y="1218" type="line"/>
      <point x="1506" y="1335" type="line"/>
      <point x="1017" y="1335" type="line"/>
      <point x="1011" y="1218" type="line"/>
      <point x="1168" y="1181" type="line"/>
      <point x="1179" y="1160"/>
      <point x="1184" y="977"/>
      <point x="1184" y="761" type="curve" smooth="yes"/>
    </contour>
  </outline>
</glyph>
<glyph name="O" format="2">
  <advance width="1616"/>
  <unicode hex="004F"/>
  <note>
O
</note>
  <anchor x="808" y="1335" name="above"/>
  <anchor x="808" y="0" name="below"/>
  <anchor x="808" y="667" name="center"/>
  <anchor x="975" y="0" name="ogonek"/>
  <anchor x="37" y="1335" name="topleft"/>
  <anchor x="1576" y="1335" name="topright"/>
  <outline>
    <contour>
      <point x="821" y="-19" type="curve" smooth="yes"/>
      <point x="1122" y="-19"/>
      <point x="1516" y="211"/>
      <point x="1516" y="685" type="curve" smooth="yes"/>
      <point x="1516" y="1079"/>
      <point x="1229" y="1354"/>
      <point x="821" y="1354" type="curve" smooth="yes"/>
      <point x="403" y="1354"/>
      <point x="97" y="1054"/>
      <point x="97" y="648" type="curve" smooth="yes"/>
      <point x="97" y="258"/>
      <point x="402" y="-19"/>
    </contour>
    <contour>
      <point x="839" y="151" type="curve" smooth="yes"/>
      <point x="620" y="151"/>
      <point x="468" y="384"/>
      <point x="468" y="716" type="curve" smooth="yes"/>
      <point x="468" y="1019"/>
      <point x="593" y="1200"/>
      <point x="795" y="1200" type="curve" smooth="yes"/>
      <point x="1009" y="1200"/>
      <point x="1148" y="975"/>
      <point x="1148" y="627" type="curve" smooth="yes"/>
      <point x="1148" y="322"/>
      <point x="1045" y="151"/>
    </contour>
  </outline>
</glyph>
<glyph name="P" format="2">
  <advance width="1307"/>
  <unicode hex="0050"/>
  <note>
P
</note>
  <anchor x="662" y="1335" name="above"/>
  <anchor x="398" y="0" name="below"/>
  <outline>
    <contour>
      <point x="92" y="0" type="line"/>
      <point x="752" y="0" type="line"/>
      <point x="758" y="118" type="line"/>
      <point x="573" y="152" type="line"/>
      <point x="570" y="170"/>
      <point x="559" y="314"/>
      <point x="559" y="492" type="curve"/>
      <point x="557" y="850" type="line"/>
      <point x="557" y="1062"/>
      <point x="557" y="1169"/>
      <point x="560" y="1203" type="curve"/>
      <point x="617" y="1203" type="line" smooth="yes"/>
      <point x="795" y="1203"/>
      <point x="896" y="1114"/>
      <point x="896" y="912" type="curve" smooth="yes"/>
      <point x="896" y="740"/>
      <point x="816" y="648"/>
      <point x="674" y="648" type="curve" smooth="yes"/>
      <point x="607" y="648"/>
      <point x="557" y="661"/>
      <point x="526" y="672" type="curve"/>
      <point x="526" y="513" type="line"/>
      <point x="572" y="505"/>
      <point x="625" y="499"/>
      <point x="674" y="499" type="curve" smooth="yes"/>
      <point x="1030" y="499"/>
      <point x="1233" y="690"/>
      <point x="1233" y="943" type="curve" smooth="yes"/>
      <point x="1233" y="1194"/>
      <point x="1050" y="1335"/>
      <point x="671" y="1335" type="curve" smooth="yes"/>
      <point x="86" y="1335" type="line"/>
      <point x="79" y="1218" type="line"/>
      <point x="224" y="1187" type="line"/>
      <point x="233" y="1169"/>
      <point x="240" y="1019"/>
      <point x="240" y="850" type="curve"/>
      <point x="238" y="492" type="line"/>
      <point x="238" y="314"/>
      <point x="232" y="170"/>
      <point x="222" y="151" type="curve"/>
      <point x="86" y="115" type="line"/>
    </contour>
  </outline>
</glyph>
<glyph name="Q" format="2">
  <advance width="1616"/>
  <unicode hex="0051"/>
  <note>
Q
</note>
  <anchor x="808" y="1335" name="above"/>
  <outline>
    <contour>
      <point x="821" y="-13" type="curve"/>
      <point x="852" y="-6" type="line"/>
      <point x="1135" y="-6"/>
      <point x="1516" y="215"/>
      <point x="1516" y="685" type="curve" smooth="yes"/>
      <point x="1516" y="1079"/>
      <point x="1229" y="1354"/>
      <point x="821" y="1354" type="curve" smooth="yes"/>
      <point x="403" y="1354"/>
      <point x="97" y="1054"/>
      <point x="97" y="648" type="curve" smooth="yes"/>
      <point x="97" y="258"/>
      <point x="402" y="-13"/>
    </contour>
    <contour>
      <point x="1388" y="-335" type="curve" smooth="yes"/>
      <point x="1522" y="-335"/>
      <point x="1639" y="-298"/>
      <point x="1718" y="-245" type="curve"/>
      <point x="1684" y="-120" type="line"/>
      <point x="1629" y="-136"/>
      <point x="1578" y="-141"/>
      <point x="1542" y="-141" type="curve" smooth="yes"/>
      <point x="1461" y="-141"/>
      <point x="1399" y="-121"/>
      <point x="1286" y="-57" type="curve" smooth="yes"/>
      <point x="1192" y="-3"/>
      <point x="1066" y="23"/>
      <point x="949" y="24" type="curve"/>
      <point x="598" y="24" type="line"/>
      <point x="679" y="-6"/>
      <point x="748" y="-58"/>
      <point x="852" y="-147" type="curve" smooth="yes"/>
      <point x="972" y="-251"/>
      <point x="1127" y="-335"/>
    </contour>
    <contour>
      <point x="839" y="151" type="curve" smooth="yes"/>
      <point x="620" y="151"/>
      <point x="468" y="384"/>
      <point x="468" y="716" type="curve" smooth="yes"/>
      <point x="468" y="1019"/>
      <point x="593" y="1200"/>
      <point x="795" y="1200" type="curve" smooth="yes"/>
      <point x="1009" y="1200"/>
      <point x="1148" y="975"/>
      <point x="1148" y="627" type="curve" smooth="yes"/>
      <point x="1148" y="316"/>
      <point x="1041" y="151"/>
    </contour>
  </outline>
</glyph>
<glyph name="R" format="2">
  <advance width="1435"/>
  <unicode hex="0052"/>
  <note>
R
</note>
  <anchor x="693" y="1335" name="above"/>
  <anchor x="768" y="0" name="below"/>
  <outline>
    <contour>
      <point x="94" y="0" type="line"/>
      <point x="683" y="0" type="line"/>
      <point x="688" y="115" type="line"/>
      <point x="562" y="152" type="line"/>
      <point x="560" y="215"/>
      <point x="554" y="387"/>
      <point x="554" y="504" type="curve" smooth="yes"/>
      <point x="554" y="844" type="line" smooth="yes"/>
      <point x="554" y="1012"/>
      <point x="557" y="1184"/>
      <point x="560" y="1203" type="curve"/>
      <point x="643" y="1203" type="line" smooth="yes"/>
      <point x="787" y="1203"/>
      <point x="867" y="1127"/>
      <point x="867" y="988" type="curve" smooth="yes"/>
      <point x="867" y="834"/>
      <point x="766" y="734"/>
      <point x="619" y="734" type="curve" smooth="yes"/>
      <point x="513" y="734" type="line"/>
      <point x="513" y="599" type="line"/>
      <point x="666" y="599" type="line" smooth="yes"/>
      <point x="977" y="599"/>
      <point x="1200" y="761"/>
      <point x="1200" y="986" type="curve" smooth="yes"/>
      <point x="1200" y="1226"/>
      <point x="1033" y="1335"/>
      <point x="682" y="1335" type="curve" smooth="yes"/>
      <point x="86" y="1335" type="line"/>
      <point x="78" y="1218" type="line"/>
      <point x="224" y="1181" type="line"/>
      <point x="233" y="1165"/>
      <point x="240" y="1014"/>
      <point x="240" y="828" type="curve" smooth="yes"/>
      <point x="240" y="504" type="line" smooth="yes"/>
      <point x="240" y="387"/>
      <point x="236" y="189"/>
      <point x="233" y="152" type="curve"/>
      <point x="87" y="115" type="line"/>
    </contour>
    <contour>
      <point x="1291" y="-26" type="curve" smooth="yes"/>
      <point x="1341" y="-26"/>
      <point x="1388" y="-23"/>
      <point x="1438" y="-11" type="curve"/>
      <point x="1440" y="92" type="line"/>
      <point x="1326" y="123"/>
      <point x="1237" y="193"/>
      <point x="1147" y="319" type="curve" smooth="yes"/>
      <point x="873" y="696" type="line"/>
      <point x="617" y="637" type="line"/>
      <point x="742" y="356" type="line" smooth="yes"/>
      <point x="862" y="91"/>
      <point x="1032" y="-26"/>
    </contour>
  </outline>
</glyph>
<glyph name="S" format="2">
  <advance width="1176"/>
  <unicode hex="0053"/>
  <note>
S
</note>
  <anchor x="604" y="1335" name="above"/>
  <anchor x="604" y="0" name="below"/>
  <outline>
    <contour>
      <point x="538" y="-19" type="curve" smooth="yes"/>
      <point x="883" y="-19"/>
      <point x="1114" y="151"/>
      <point x="1114" y="385" type="curve" smooth="yes"/>
      <point x="1114" y="821"/>
      <point x="449" y="739"/>
      <point x="449" y="1037" type="curve" smooth="yes"/>
      <point x="449" y="1148"/>
      <point x="541" y="1213"/>
      <point x="659" y="1213" type="curve" smooth="yes"/>
      <point x="722" y="1213"/>
      <point x="773" y="1200"/>
      <point x="821" y="1179" type="curve"/>
      <point x="894" y="951" type="line"/>
      <point x="1043" y="960" type="line"/>
      <point x="1014" y="1296" type="line"/>
      <point x="930" y="1333"/>
      <point x="787" y="1360"/>
      <point x="682" y="1360" type="curve" smooth="yes"/>
      <point x="343" y="1360"/>
      <point x="120" y="1192"/>
      <point x="120" y="946" type="curve" smooth="yes"/>
      <point x="120" y="481"/>
      <point x="773" y="594"/>
      <point x="773" y="285" type="curve" smooth="yes"/>
      <point x="773" y="189"/>
      <point x="701" y="128"/>
      <point x="567" y="128" type="curve" smooth="yes"/>
      <point x="489" y="128"/>
      <point x="402" y="152"/>
      <point x="342" y="191" type="curve"/>
      <point x="266" y="428" type="line"/>
      <point x="115" y="419" type="line"/>
      <point x="126" y="79" type="line"/>
      <point x="236" y="18"/>
      <point x="408" y="-19"/>
    </contour>
  </outline>
</glyph>
<glyph name="T" format="2">
  <advance width="1406"/>
  <unicode hex="0054"/>
  <note>
T
</note>
  <anchor x="703" y="1335" name="above"/>
  <anchor x="701" y="0" name="below"/>
  <anchor x="703" y="688" name="stroke"/>
  <outline>
    <contour>
      <point x="1314" y="1346" type="line"/>
      <point x="1249" y="1344"/>
      <point x="1067" y="1335"/>
      <point x="985" y="1335" type="curve" smooth="yes"/>
      <point x="411" y="1335" type="line" smooth="yes"/>
      <point x="329" y="1335"/>
      <point x="149" y="1344"/>
      <point x="84" y="1346" type="curve"/>
      <point x="37" y="938" type="line"/>
      <point x="181" y="923" type="line"/>
      <point x="266" y="1190" type="line"/>
      <point x="295" y="1195"/>
      <point x="335" y="1199"/>
      <point x="376" y="1199" type="curve" smooth="yes"/>
      <point x="453" y="1199" type="line" smooth="yes"/>
      <point x="481" y="1199"/>
      <point x="520" y="1199"/>
      <point x="538" y="1192" type="curve"/>
      <point x="539" y="1165"/>
      <point x="543" y="941"/>
      <point x="543" y="739" type="curve" smooth="yes"/>
      <point x="543" y="534" type="line" smooth="yes"/>
      <point x="543" y="366"/>
      <point x="536" y="222"/>
      <point x="534" y="151" type="curve"/>
      <point x="337" y="118" type="line"/>
      <point x="343" y="0" type="line"/>
      <point x="1061" y="0" type="line"/>
      <point x="1067" y="118" type="line"/>
      <point x="870" y="151" type="line"/>
      <point x="867" y="222"/>
      <point x="863" y="366"/>
      <point x="863" y="534" type="curve" smooth="yes"/>
      <point x="863" y="739" type="line" smooth="yes"/>
      <point x="863" y="941"/>
      <point x="865" y="1165"/>
      <point x="867" y="1192" type="curve"/>
      <point x="886" y="1199"/>
      <point x="923" y="1199"/>
      <point x="951" y="1199" type="curve" smooth="yes"/>
      <point x="1027" y="1199" type="line" smooth="yes"/>
      <point x="1067" y="1199"/>
      <point x="1101" y="1195"/>
      <point x="1131" y="1190" type="curve"/>
      <point x="1223" y="930" type="line"/>
      <point x="1365" y="941" type="line"/>
    </contour>
  </outline>
</glyph>
<glyph name="U" format="2">
  <advance width="1608"/>
  <unicode hex="0055"/>
  <note>
U
</note>
  <anchor x="868" y="1335" name="above"/>
  <anchor x="867" y="0" name="below"/>
  <anchor x="994" y="0" name="ogonek"/>
  <anchor x="1527" y="1335" name="topright"/>
  <outline>
    <contour>
      <point x="81" y="1335" type="line"/>
      <point x="75" y="1218" type="line"/>
      <point x="219" y="1181" type="line"/>
      <point x="225" y="1165"/>
      <point x="232" y="1014"/>
      <point x="232" y="828" type="curve" smooth="yes"/>
      <point x="232" y="564" type="line" smooth="yes"/>
      <point x="232" y="189"/>
      <point x="445" y="-19"/>
      <point x="829" y="-19" type="curve" smooth="yes"/>
      <point x="1168" y="-19"/>
      <point x="1375" y="202"/>
      <point x="1375" y="562" type="curve" smooth="yes"/>
      <point x="1375" y="787" type="line" smooth="yes"/>
      <point x="1375" y="985"/>
      <point x="1382" y="1166"/>
      <point x="1388" y="1181" type="curve"/>
      <point x="1535" y="1218" type="line"/>
      <point x="1529" y="1335" type="line"/>
      <point x="1017" y="1335" type="line"/>
      <point x="1009" y="1218" type="line"/>
      <point x="1169" y="1181" type="line"/>
      <point x="1177" y="1165"/>
      <point x="1184" y="975"/>
      <point x="1184" y="787" type="curve" smooth="yes"/>
      <point x="1184" y="604" type="line" smooth="yes"/>
      <point x="1184" y="330"/>
      <point x="1084" y="198"/>
      <point x="873" y="198" type="curve" smooth="yes"/>
      <point x="659" y="198"/>
      <point x="551" y="335"/>
      <point x="552" y="603" type="curve"/>
      <point x="552" y="828" type="line"/>
      <point x="552" y="1003"/>
      <point x="559" y="1129"/>
      <point x="564" y="1181" type="curve"/>
      <point x="709" y="1218" type="line"/>
      <point x="703" y="1335" type="line"/>
    </contour>
  </outline>
</glyph>
<glyph name="V" format="2">
  <advance width="1403"/>
  <unicode hex="0056"/>
  <note>
V
</note>
  <anchor x="688" y="1335" name="above"/>
  <anchor x="688" y="0" name="below"/>
  <outline>
    <contour>
      <point x="633" y="-5" type="line"/>
      <point x="758" y="-5" type="line"/>
      <point x="1297" y="1181" type="line"/>
      <point x="1416" y="1221" type="line"/>
      <point x="1406" y="1335" type="line"/>
      <point x="936" y="1335" type="line"/>
      <point x="930" y="1218" type="line"/>
      <point x="1088" y="1181" type="line"/>
      <point x="748" y="308" type="line"/>
      <point x="841" y="308" type="line"/>
      <point x="466" y="1181" type="line"/>
      <point x="609" y="1218" type="line"/>
      <point x="601" y="1335" type="line"/>
      <point x="-5" y="1335" type="line"/>
      <point x="-11" y="1221" type="line"/>
      <point x="104" y="1181" type="line"/>
    </contour>
  </outline>
</glyph>
<glyph name="W" format="2">
  <advance width="2233"/>
  <unicode hex="0057"/>
  <note>
W
</note>
  <anchor x="1132" y="1335" name="above"/>
  <anchor x="1132" y="0" name="below"/>
  <outline>
    <contour>
      <point x="1142" y="905" type="line"/>
      <point x="1040" y="1109" type="line"/>
      <point x="724" y="308" type="line"/>
      <point x="841" y="308" type="line"/>
      <point x="481" y="1181" type="line"/>
      <point x="594" y="1218" type="line"/>
      <point x="588" y="1335" type="line"/>
      <point x="2" y="1335" type="line"/>
      <point x="-2" y="1218" type="line"/>
      <point x="113" y="1181" type="line"/>
      <point x="628" y="-5" type="line"/>
      <point x="753" y="-5" type="line"/>
    </contour>
    <contour>
      <point x="1475" y="-5" type="line"/>
      <point x="1599" y="-5" type="line"/>
      <point x="2115" y="1181" type="line"/>
      <point x="2235" y="1218" type="line"/>
      <point x="2229" y="1335" type="line"/>
      <point x="1757" y="1335" type="line"/>
      <point x="1749" y="1218" type="line"/>
      <point x="1906" y="1181" type="line"/>
      <point x="1576" y="308" type="line"/>
      <point x="1673" y="308" type="line"/>
      <point x="1310" y="1181" type="line"/>
      <point x="1454" y="1218" type="line"/>
      <point x="1448" y="1335" type="line"/>
      <point x="845" y="1335" type="line"/>
      <point x="839" y="1218" type="line"/>
      <point x="954" y="1181" type="line"/>
    </contour>
  </outline>
</glyph>
<glyph name="X" format="2">
  <advance width="1388"/>
  <unicode hex="0058"/>
  <note>
X
</note>
  <anchor x="683" y="1335" name="above"/>
  <anchor x="683" y="0" name="below"/>
  <outline>
    <contour>
      <point x="1380" y="0" type="line"/>
      <point x="1386" y="115" type="line"/>
      <point x="1271" y="152" type="line"/>
      <point x="841" y="764" type="line"/>
      <point x="753" y="891" type="line"/>
      <point x="552" y="1181" type="line"/>
      <point x="659" y="1218" type="line"/>
      <point x="653" y="1335" type="line"/>
      <point x="66" y="1335" type="line"/>
      <point x="60" y="1218" type="line"/>
      <point x="177" y="1181" type="line"/>
      <point x="544" y="648" type="line"/>
      <point x="640" y="520" type="line"/>
      <point x="892" y="152" type="line"/>
      <point x="750" y="115" type="line"/>
      <point x="756" y="0" type="line"/>
    </contour>
    <contour>
      <point x="954" y="1181" type="line"/>
      <point x="753" y="891" type="line"/>
      <point x="544" y="648" type="line"/>
      <point x="165" y="152" type="line"/>
      <point x="50" y="115" type="line"/>
      <point x="57" y="0" type="line"/>
      <point x="530" y="0" type="line"/>
      <point x="534" y="115" type="line"/>
      <point x="385" y="152" type="line"/>
      <point x="640" y="520" type="line"/>
      <point x="841" y="764" type="line"/>
      <point x="1176" y="1181" type="line"/>
      <point x="1291" y="1218" type="line"/>
      <point x="1286" y="1335" type="line"/>
      <point x="844" y="1335" type="line"/>
      <point x="837" y="1218" type="line"/>
    </contour>
  </outline>
</glyph>
<glyph name="Y" format="2">
  <advance width="1344"/>
  <unicode hex="0059"/>
  <note>
Y
</note>
  <anchor x="671" y="1335" name="above"/>
  <anchor x="671" y="0" name="below"/>
  <anchor x="55" y="1335" name="topleft"/>
  <outline>
    <contour>
      <point x="1208" y="1181" type="line"/>
      <point x="1325" y="1218" type="line"/>
      <point x="1317" y="1335" type="line"/>
      <point x="863" y="1335" type="line"/>
      <point x="857" y="1218" type="line"/>
      <point x="1017" y="1181" type="line"/>
      <point x="730" y="687" type="line"/>
      <point x="786" y="687" type="line"/>
      <point x="499" y="1181" type="line"/>
      <point x="643" y="1218" type="line"/>
      <point x="637" y="1335" type="line"/>
      <point x="26" y="1335" type="line"/>
      <point x="19" y="1218" type="line"/>
      <point x="136" y="1181" type="line"/>
      <point x="590" y="408" type="line"/>
      <point x="515" y="641" type="line"/>
      <point x="515" y="413" type="line" smooth="yes"/>
      <point x="515" y="314"/>
      <point x="510" y="170"/>
      <point x="504" y="151" type="curve"/>
      <point x="343" y="117" type="line"/>
      <point x="350" y="0" type="line"/>
      <point x="993" y="0" type="line"/>
      <point x="999" y="117" type="line"/>
      <point x="841" y="151" type="line"/>
      <point x="832" y="170"/>
      <point x="828" y="314"/>
      <point x="828" y="413" type="curve" smooth="yes"/>
      <point x="828" y="641" type="line"/>
      <point x="724" y="408" type="line"/>
    </contour>
  </outline>
</glyph>
<glyph name="Z" format="2">
  <advance width="1263"/>
  <unicode hex="005A"/>
  <note>
Z
</note>
  <anchor x="625" y="1335" name="above"/>
  <anchor x="625" y="0" name="below"/>
  <outline>
    <contour>
      <point x="1155" y="-11" type="curve"/>
      <point x="1224" y="395" type="line"/>
      <point x="1082" y="415" type="line"/>
      <point x="986" y="154" type="line"/>
      <point x="946" y="147"/>
      <point x="920" y="144"/>
      <point x="858" y="144" type="curve" smooth="yes"/>
      <point x="447" y="144" type="line"/>
      <point x="447" y="50" type="line"/>
      <point x="1150" y="1216" type="line"/>
      <point x="1150" y="1338" type="line"/>
      <point x="1092" y="1336"/>
      <point x="1028" y="1335"/>
      <point x="970" y="1335" type="curve" smooth="yes"/>
      <point x="317" y="1335" type="line" smooth="yes"/>
      <point x="261" y="1335"/>
      <point x="164" y="1335"/>
      <point x="92" y="1339" type="curve"/>
      <point x="97" y="952" type="line"/>
      <point x="243" y="952" type="line"/>
      <point x="285" y="1186" type="line"/>
      <point x="335" y="1192"/>
      <point x="382" y="1199"/>
      <point x="475" y="1199" type="curve" smooth="yes"/>
      <point x="850" y="1199" type="line"/>
      <point x="850" y="1296" type="line"/>
      <point x="134" y="113" type="line"/>
      <point x="134" y="-6" type="line"/>
      <point x="191" y="0"/>
      <point x="254" y="0"/>
      <point x="317" y="0" type="curve" smooth="yes"/>
      <point x="842" y="0" type="line" smooth="yes"/>
      <point x="923" y="0"/>
      <point x="1090" y="-8"/>
    </contour>
  </outline>
</glyph>
<glyph name="bracketleft" format="2">
  <advance width="792"/>
  <unicode hex="005B"/>
  <note>
bracketleft
</note>
  <outline>
    <contour>
      <point x="726" y="-499" type="line"/>
      <point x="726" y="-363" type="line"/>
      <point x="497" y="-363" type="line"/>
      <point x="497" y="1505" type="line"/>
      <point x="726" y="1505" type="line"/>
      <point x="726" y="1641" type="line"/>
      <point x="204" y="1641" type="line"/>
      <point x="204" y="-499" type="line"/>
    </contour>
  </outline>
</glyph>
<glyph name="backslash" format="2">
  <advance width="956"/>
  <unicode hex="005C"/>
  <note>
backslash
</note>
  <outline>
    <contour>
      <point x="886" y="-408" type="line"/>
      <point x="201" y="1655" type="line"/>
      <point x="-21" y="1655" type="line"/>
      <point x="661" y="-408" type="line"/>
    </contour>
  </outline>
</glyph>
<glyph name="bracketright" format="2">
  <advance width="792"/>
  <unicode hex="005D"/>
  <note>
bracketright
</note>
  <outline>
    <contour>
      <point x="65" y="-499" type="line"/>
      <point x="588" y="-499" type="line"/>
      <point x="588" y="1641" type="line"/>
      <point x="65" y="1641" type="line"/>
      <point x="65" y="1505" type="line"/>
      <point x="292" y="1505" type="line"/>
      <point x="292" y="-363" type="line"/>
      <point x="65" y="-363" type="line"/>
    </contour>
  </outline>
</glyph>
<glyph name="asciicircum" format="2">
  <advance width="1226"/>
  <unicode hex="005E"/>
  <outline>
    <contour>
      <point x="716" y="1276" type="line"/>
      <point x="509" y="1276" type="line"/>
      <point x="99" y="288" type="line"/>
      <point x="308" y="288" type="line"/>
      <point x="682" y="1194" type="line"/>
      <point x="544" y="1194" type="line"/>
      <point x="915" y="288" type="line"/>
      <point x="1131" y="288" type="line"/>
    </contour>
  </outline>
</glyph>
<glyph name="underscore" format="2">
  <advance width="1105"/>
  <unicode hex="005F"/>
  <note>
underscore
</note>
  <outline>
    <contour>
      <point x="66" y="-168" type="line"/>
      <point x="1038" y="-168" type="line"/>
      <point x="1038" y="0" type="line"/>
      <point x="66" y="0" type="line"/>
    </contour>
  </outline>
</glyph>
<glyph name="a" format="2">
  <advance width="1145"/>
  <unicode hex="0061"/>
  <note>
a
</note>
  <anchor x="564" y="1001" name="above"/>
  <anchor x="575" y="0" name="below"/>
  <anchor x="1035" y="0" name="ogonek"/>
  <outline>
    <contour>
      <point x="428" y="-16" type="curve" smooth="yes"/>
      <point x="518" y="-16"/>
      <point x="622" y="50"/>
      <point x="714" y="168" type="curve"/>
      <point x="667" y="178" type="line"/>
      <point x="708" y="73" type="line" smooth="yes"/>
      <point x="732" y="11"/>
      <point x="773" y="-16"/>
      <point x="834" y="-16" type="curve" smooth="yes"/>
      <point x="878" y="-16"/>
      <point x="923" y="-3"/>
      <point x="978" y="16" type="curve" smooth="yes"/>
      <point x="1131" y="81" type="line"/>
      <point x="1131" y="181" type="line"/>
      <point x="980" y="209" type="line"/>
      <point x="967" y="238"/>
      <point x="962" y="280"/>
      <point x="962" y="366" type="curve"/>
      <point x="969" y="677" type="line"/>
      <point x="969" y="886"/>
      <point x="797" y="1019"/>
      <point x="523" y="1019" type="curve"/>
      <point x="387" y="1001"/>
      <point x="99" y="858"/>
      <point x="99" y="739" type="curve" smooth="yes"/>
      <point x="99" y="643"/>
      <point x="209" y="598"/>
      <point x="361" y="628" type="curve"/>
      <point x="374" y="771" type="line" smooth="yes"/>
      <point x="377" y="832"/>
      <point x="394" y="852"/>
      <point x="442" y="852" type="curve" smooth="yes"/>
      <point x="552" y="852"/>
      <point x="658" y="761"/>
      <point x="658" y="666" type="curve" smooth="yes"/>
      <point x="658" y="588" type="line"/>
      <point x="300" y="484" type="line" smooth="yes"/>
      <point x="155" y="442"/>
      <point x="89" y="371"/>
      <point x="89" y="258" type="curve" smooth="yes"/>
      <point x="89" y="143"/>
      <point x="215" y="-16"/>
    </contour>
    <contour>
      <point x="549" y="189" type="curve" smooth="yes"/>
      <point x="473" y="189"/>
      <point x="408" y="259"/>
      <point x="408" y="329" type="curve" smooth="yes"/>
      <point x="408" y="385"/>
      <point x="437" y="423"/>
      <point x="513" y="432" type="curve" smooth="yes"/>
      <point x="659" y="458" type="line"/>
      <point x="659" y="238" type="line"/>
      <point x="627" y="206"/>
      <point x="588" y="189"/>
    </contour>
  </outline>
</glyph>
<glyph name="b" format="2">
  <advance width="1275"/>
  <unicode hex="0062"/>
  <note>
b
</note>
  <anchor x="635" y="1500" name="above"/>
  <anchor x="635" y="0" name="below"/>
  <outline>
    <contour>
      <point x="152" y="65" type="curve"/>
      <point x="295" y="6"/>
      <point x="428" y="-18"/>
      <point x="575" y="-18" type="curve" smooth="yes"/>
      <point x="959" y="-18"/>
      <point x="1197" y="240"/>
      <point x="1197" y="552" type="curve" smooth="yes"/>
      <point x="1197" y="844"/>
      <point x="994" y="1019"/>
      <point x="769" y="1019" type="curve" smooth="yes"/>
      <point x="649" y="1019"/>
      <point x="525" y="936"/>
      <point x="463" y="845" type="curve"/>
      <point x="457" y="849" type="line"/>
      <point x="465" y="1207"/>
      <point x="468" y="1356"/>
      <point x="481" y="1545" type="curve"/>
      <point x="416" y="1586" type="line"/>
      <point x="-21" y="1471" type="line"/>
      <point x="-16" y="1370" type="line"/>
      <point x="149" y="1349" type="line"/>
      <point x="154" y="1281"/>
      <point x="160" y="1105"/>
      <point x="160" y="818" type="curve"/>
      <point x="160" y="556" type="line"/>
      <point x="160" y="387"/>
      <point x="159" y="214"/>
    </contour>
    <contour>
      <point x="633" y="155" type="curve" smooth="yes"/>
      <point x="572" y="155"/>
      <point x="507" y="178"/>
      <point x="463" y="212" type="curve"/>
      <point x="463" y="722" type="line"/>
      <point x="504" y="768"/>
      <point x="567" y="797"/>
      <point x="635" y="797" type="curve" smooth="yes"/>
      <point x="756" y="797"/>
      <point x="871" y="705"/>
      <point x="870" y="484" type="curve" smooth="yes"/>
      <point x="870" y="249"/>
      <point x="768" y="155"/>
    </contour>
  </outline>
</glyph>
<glyph name="c" format="2">
  <advance width="1050"/>
  <unicode hex="0063"/>
  <note>
c
</note>
  <anchor x="593" y="1001" name="above"/>
  <anchor x="593" y="0" name="below"/>
  <outline>
    <contour>
      <point x="591" y="-16" type="curve" smooth="yes"/>
      <point x="768" y="-16"/>
      <point x="931" y="78"/>
      <point x="1019" y="266" type="curve"/>
      <point x="947" y="334" type="line"/>
      <point x="867" y="238"/>
      <point x="782" y="206"/>
      <point x="700" y="206" type="curve" smooth="yes"/>
      <point x="533" y="206"/>
      <point x="407" y="326"/>
      <point x="407" y="557" type="curve" smooth="yes"/>
      <point x="407" y="790"/>
      <point x="546" y="907"/>
      <point x="677" y="879" type="curve"/>
      <point x="557" y="907" type="line"/>
      <point x="729" y="758" type="line" smooth="yes"/>
      <point x="784" y="708"/>
      <point x="824" y="690"/>
      <point x="884" y="690" type="curve" smooth="yes"/>
      <point x="949" y="690"/>
      <point x="1006" y="730"/>
      <point x="1006" y="807" type="curve" smooth="yes"/>
      <point x="1006" y="928"/>
      <point x="847" y="1019"/>
      <point x="646" y="1019" type="curve" smooth="yes"/>
      <point x="313" y="1019"/>
      <point x="76" y="763"/>
      <point x="76" y="475" type="curve" smooth="yes"/>
      <point x="76" y="186"/>
      <point x="304" y="-16"/>
    </contour>
  </outline>
</glyph>
<glyph name="d" format="2">
  <advance width="1280"/>
  <unicode hex="0064"/>
  <note>
d
</note>
  <anchor x="640" y="1500" name="above"/>
  <anchor x="680" y="0" name="below"/>
  <anchor x="640" y="500" name="center"/>
  <anchor x="818" y="1176" name="stroke"/>
  <anchor x="1184" y="1565" name="topright"/>
  <outline>
    <contour>
      <point x="863" y="-29" type="line"/>
      <point x="1257" y="76" type="line"/>
      <point x="1257" y="175" type="line"/>
      <point x="1105" y="207" type="line"/>
      <point x="1098" y="283"/>
      <point x="1090" y="361"/>
      <point x="1090" y="509" type="curve"/>
      <point x="1093" y="1037" type="line" smooth="yes"/>
      <point x="1093" y="1210"/>
      <point x="1103" y="1357"/>
      <point x="1111" y="1545" type="curve"/>
      <point x="1048" y="1586" type="line"/>
      <point x="607" y="1471" type="line"/>
      <point x="612" y="1372" type="line"/>
      <point x="781" y="1348" type="line"/>
      <point x="786" y="1281"/>
      <point x="790" y="1105"/>
      <point x="790" y="985" type="curve"/>
      <point x="753" y="1004"/>
      <point x="687" y="1014"/>
      <point x="632" y="1014" type="curve" smooth="yes"/>
      <point x="356" y="1014"/>
      <point x="75" y="805"/>
      <point x="75" y="466" type="curve" smooth="yes"/>
      <point x="75" y="172"/>
      <point x="285" y="-21"/>
      <point x="523" y="-21" type="curve" smooth="yes"/>
      <point x="620" y="-21"/>
      <point x="717" y="23"/>
      <point x="794" y="157" type="curve"/>
      <point x="802" y="152" type="line"/>
      <point x="798" y="3" type="line"/>
    </contour>
    <contour>
      <point x="637" y="202" type="curve" smooth="yes"/>
      <point x="509" y="202"/>
      <point x="400" y="322"/>
      <point x="400" y="547" type="curve" smooth="yes"/>
      <point x="400" y="750"/>
      <point x="500" y="876"/>
      <point x="640" y="876" type="curve" smooth="yes"/>
      <point x="696" y="876"/>
      <point x="753" y="857"/>
      <point x="794" y="807" type="curve"/>
      <point x="794" y="296" type="line"/>
      <point x="750" y="228"/>
      <point x="682" y="202"/>
    </contour>
  </outline>
</glyph>
<glyph name="e" format="2">
  <advance width="1090"/>
  <unicode hex="0065"/>
  <note>
e
</note>
  <anchor x="578" y="1001" name="above"/>
  <anchor x="578" y="0" name="below"/>
  <anchor x="894" y="0" name="ogonek"/>
  <outline>
    <contour>
      <point x="588" y="-16" type="curve" smooth="yes"/>
      <point x="782" y="-16"/>
      <point x="946" y="78"/>
      <point x="1032" y="261" type="curve"/>
      <point x="960" y="329" type="line"/>
      <point x="881" y="240"/>
      <point x="800" y="204"/>
      <point x="696" y="204" type="curve" smooth="yes"/>
      <point x="505" y="204"/>
      <point x="382" y="345"/>
      <point x="382" y="554" type="curve" smooth="yes"/>
      <point x="382" y="603" type="line" smooth="yes"/>
      <point x="382" y="795"/>
      <point x="468" y="888"/>
      <point x="578" y="888" type="curve" smooth="yes"/>
      <point x="687" y="888"/>
      <point x="752" y="802"/>
      <point x="752" y="659" type="curve" smooth="yes"/>
      <point x="752" y="578" type="line"/>
      <point x="790" y="637" type="line"/>
      <point x="348" y="637" type="line"/>
      <point x="348" y="515" type="line"/>
      <point x="1019" y="515" type="line"/>
      <point x="1019" y="572" type="line" smooth="yes"/>
      <point x="1019" y="839"/>
      <point x="863" y="1017"/>
      <point x="594" y="1019" type="curve" smooth="yes"/>
      <point x="329" y="1019"/>
      <point x="78" y="798"/>
      <point x="78" y="484" type="curve" smooth="yes"/>
      <point x="78" y="199"/>
      <point x="290" y="-16"/>
    </contour>
  </outline>
</glyph>
<glyph name="f" format="2">
  <advance width="753"/>
  <unicode hex="0066"/>
  <note>
f
</note>
  <outline>
    <contour>
      <point x="685" y="0" type="line"/>
      <point x="693" y="105" type="line"/>
      <point x="505" y="144" type="line"/>
      <point x="496" y="258"/>
      <point x="492" y="429"/>
      <point x="492" y="583" type="curve"/>
      <point x="489" y="849" type="line"/>
      <point x="484" y="996" type="line"/>
      <point x="484" y="1168" type="line" smooth="yes"/>
      <point x="484" y="1370"/>
      <point x="533" y="1480"/>
      <point x="622" y="1480" type="curve"/>
      <point x="517" y="1495" type="line"/>
      <point x="649" y="1373" type="line" smooth="yes"/>
      <point x="696" y="1331"/>
      <point x="737" y="1312"/>
      <point x="784" y="1312" type="curve" smooth="yes"/>
      <point x="850" y="1312"/>
      <point x="892" y="1351"/>
      <point x="892" y="1416" type="curve" smooth="yes"/>
      <point x="892" y="1516"/>
      <point x="782" y="1587"/>
      <point x="627" y="1587" type="curve" smooth="yes"/>
      <point x="373" y="1587"/>
      <point x="185" y="1365"/>
      <point x="185" y="1064" type="curve" smooth="yes"/>
      <point x="185" y="849" type="line"/>
      <point x="188" y="580" type="line"/>
      <point x="188" y="306"/>
      <point x="188" y="262"/>
      <point x="183" y="144" type="curve"/>
      <point x="42" y="104" type="line"/>
      <point x="49" y="0" type="line"/>
    </contour>
    <contour>
      <point x="21" y="849" type="line"/>
      <point x="727" y="849" type="line"/>
      <point x="727" y="996" type="line"/>
      <point x="316" y="996" type="line"/>
      <point x="185" y="1004" type="line"/>
      <point x="21" y="957" type="line"/>
    </contour>
  </outline>
</glyph>
<glyph name="g" format="2">
  <advance width="1187"/>
  <unicode hex="0067"/>
  <note>
g
</note>
  <anchor x="578" y="1001" name="above"/>
  <anchor x="590" y="-499" name="below"/>
  <outline>
    <contour>
      <point x="556" y="-517" type="curve" smooth="yes"/>
      <point x="888" y="-517"/>
      <point x="1134" y="-348"/>
      <point x="1134" y="-134" type="curve" smooth="yes"/>
      <point x="1134" y="19"/>
      <point x="1028" y="121"/>
      <point x="802" y="144" type="curve" smooth="yes"/>
      <point x="444" y="180" type="line" smooth="yes"/>
      <point x="403" y="183"/>
      <point x="381" y="202"/>
      <point x="381" y="236" type="curve" smooth="yes"/>
      <point x="381" y="262"/>
      <point x="402" y="285"/>
      <point x="436" y="308" type="curve"/>
      <point x="398" y="345" type="line"/>
      <point x="228" y="296"/>
      <point x="125" y="206"/>
      <point x="125" y="110" type="curve" smooth="yes"/>
      <point x="125" y="15"/>
      <point x="215" y="-47"/>
      <point x="373" y="-47" type="curve"/>
      <point x="392" y="-58" type="line"/>
      <point x="690" y="-84" type="line" smooth="yes"/>
      <point x="815" y="-97"/>
      <point x="862" y="-131"/>
      <point x="862" y="-206" type="curve" smooth="yes"/>
      <point x="862" y="-309"/>
      <point x="742" y="-387"/>
      <point x="578" y="-387" type="curve" smooth="yes"/>
      <point x="416" y="-387"/>
      <point x="326" y="-329"/>
      <point x="326" y="-228" type="curve" smooth="yes"/>
      <point x="326" y="-159"/>
      <point x="371" y="-89"/>
      <point x="441" y="-37" type="curve"/>
      <point x="342" y="-29" type="line"/>
      <point x="157" y="-76"/>
      <point x="37" y="-170"/>
      <point x="37" y="-270" type="curve" smooth="yes"/>
      <point x="37" y="-424"/>
      <point x="230" y="-517"/>
    </contour>
    <contour>
      <point x="564" y="266" type="curve" smooth="yes"/>
      <point x="837" y="266"/>
      <point x="1027" y="418"/>
      <point x="1027" y="637" type="curve" smooth="yes"/>
      <point x="1027" y="854"/>
      <point x="834" y="1022"/>
      <point x="575" y="1022" type="curve" smooth="yes"/>
      <point x="308" y="1022"/>
      <point x="102" y="862"/>
      <point x="102" y="637" type="curve" smooth="yes"/>
      <point x="102" y="415"/>
      <point x="285" y="266"/>
    </contour>
    <contour>
      <point x="583" y="400" type="curve" smooth="yes"/>
      <point x="488" y="400"/>
      <point x="421" y="500"/>
      <point x="421" y="648" type="curve" smooth="yes"/>
      <point x="421" y="789"/>
      <point x="483" y="888"/>
      <point x="572" y="888" type="curve" smooth="yes"/>
      <point x="667" y="888"/>
      <point x="729" y="784"/>
      <point x="729" y="633" type="curve" smooth="yes"/>
      <point x="729" y="489"/>
      <point x="672" y="400"/>
    </contour>
    <contour>
      <point x="1150" y="808" type="line"/>
      <point x="1150" y="994" type="line"/>
      <point x="781" y="949" type="line"/>
      <point x="841" y="841" type="line"/>
    </contour>
  </outline>
</glyph>
<glyph name="h" format="2">
  <advance width="1344"/>
  <unicode hex="0068"/>
  <note>
h
</note>
  <anchor x="340" y="1500" name="above"/>
  <anchor x="679" y="0" name="below"/>
  <anchor x="462" y="1176" name="stroke"/>
  <outline>
    <contour>
      <point x="40" y="0" type="line"/>
      <point x="630" y="0" type="line"/>
      <point x="637" y="104" type="line"/>
      <point x="500" y="144" type="line"/>
      <point x="494" y="167"/>
      <point x="489" y="261"/>
      <point x="489" y="371" type="curve" smooth="yes"/>
      <point x="489" y="703" type="line"/>
      <point x="539" y="768"/>
      <point x="606" y="800"/>
      <point x="679" y="800" type="curve" smooth="yes"/>
      <point x="781" y="800"/>
      <point x="867" y="729"/>
      <point x="867" y="559" type="curve" smooth="yes"/>
      <point x="867" y="373" type="line" smooth="yes"/>
      <point x="867" y="293"/>
      <point x="862" y="189"/>
      <point x="855" y="144" type="curve"/>
      <point x="729" y="104" type="line"/>
      <point x="735" y="0" type="line"/>
      <point x="1312" y="0" type="line"/>
      <point x="1318" y="104" type="line"/>
      <point x="1179" y="144" type="line"/>
      <point x="1171" y="168"/>
      <point x="1168" y="272"/>
      <point x="1168" y="374" type="curve" smooth="yes"/>
      <point x="1168" y="607" type="line" smooth="yes"/>
      <point x="1168" y="868"/>
      <point x="1020" y="1019"/>
      <point x="824" y="1019" type="curve" smooth="yes"/>
      <point x="696" y="1019"/>
      <point x="581" y="957"/>
      <point x="489" y="837" type="curve"/>
      <point x="483" y="839" type="line"/>
      <point x="489" y="1221"/>
      <point x="492" y="1362"/>
      <point x="505" y="1545" type="curve"/>
      <point x="441" y="1586" type="line"/>
      <point x="2" y="1471" type="line"/>
      <point x="6" y="1370" type="line"/>
      <point x="173" y="1348" type="line"/>
      <point x="183" y="1244"/>
      <point x="188" y="1027"/>
      <point x="188" y="818" type="curve" smooth="yes"/>
      <point x="188" y="530" type="line" smooth="yes"/>
      <point x="188" y="387"/>
      <point x="178" y="198"/>
      <point x="173" y="144" type="curve"/>
      <point x="32" y="104" type="line"/>
    </contour>
  </outline>
</glyph>
<glyph name="k" format="2">
  <advance width="1280"/>
  <unicode hex="006B"/>
  <note>
k
</note>
  <anchor x="340" y="1500" name="above"/>
  <anchor x="661" y="0" name="below"/>
  <outline>
    <contour>
      <point x="52" y="0" type="line"/>
      <point x="632" y="0" type="line"/>
      <point x="638" y="104" type="line"/>
      <point x="499" y="144" type="line"/>
      <point x="492" y="172"/>
      <point x="491" y="272"/>
      <point x="491" y="369" type="curve"/>
      <point x="492" y="878" type="line"/>
      <point x="492" y="1244"/>
      <point x="496" y="1373"/>
      <point x="509" y="1545" type="curve"/>
      <point x="442" y="1586" type="line"/>
      <point x="5" y="1471" type="line"/>
      <point x="8" y="1370" type="line"/>
      <point x="177" y="1348" type="line"/>
      <point x="183" y="1245"/>
      <point x="188" y="1035"/>
      <point x="188" y="818" type="curve" smooth="yes"/>
      <point x="188" y="531" type="line" smooth="yes"/>
      <point x="188" y="390"/>
      <point x="180" y="209"/>
      <point x="173" y="144" type="curve"/>
      <point x="44" y="104" type="line"/>
    </contour>
    <contour>
      <point x="1286" y="0" type="line"/>
      <point x="1296" y="105" type="line"/>
      <point x="1211" y="121" type="line"/>
      <point x="1187" y="141"/>
      <point x="1147" y="188"/>
      <point x="1088" y="258" type="curve" smooth="yes"/>
      <point x="740" y="659" type="line"/>
      <point x="713" y="556" type="line"/>
      <point x="1085" y="865" type="line"/>
      <point x="1236" y="892" type="line"/>
      <point x="1228" y="1001" type="line"/>
      <point x="717" y="1001" type="line"/>
      <point x="713" y="892" type="line"/>
      <point x="862" y="867" type="line"/>
      <point x="528" y="547" type="line"/>
      <point x="463" y="533" type="line"/>
      <point x="460" y="447" type="line"/>
      <point x="517" y="447" type="line"/>
      <point x="773" y="152" type="line" smooth="yes"/>
      <point x="815" y="107"/>
      <point x="849" y="58"/>
      <point x="892" y="0" type="curve"/>
    </contour>
  </outline>
</glyph>
<glyph name="l" format="2">
  <advance width="683"/>
  <unicode hex="006C"/>
  <note>
l
</note>
  <anchor x="342" y="1500" name="above"/>
  <anchor x="342" y="0" name="below"/>
  <anchor x="342" y="771" name="center"/>
  <anchor x="758" y="771" name="dotacc"/>
  <anchor x="588" y="1565" name="topright"/>
  <outline>
    <contour>
      <point x="32" y="0" type="line"/>
      <point x="648" y="0" type="line"/>
      <point x="653" y="109" type="line"/>
      <point x="504" y="144" type="line"/>
      <point x="499" y="177"/>
      <point x="496" y="334"/>
      <point x="496" y="549" type="curve"/>
      <point x="497" y="879" type="line" smooth="yes"/>
      <point x="499" y="1210"/>
      <point x="499" y="1357"/>
      <point x="510" y="1545" type="curve"/>
      <point x="445" y="1586" type="line"/>
      <point x="2" y="1471" type="line"/>
      <point x="6" y="1370" type="line"/>
      <point x="173" y="1348" type="line"/>
      <point x="183" y="1244"/>
      <point x="188" y="1028"/>
      <point x="188" y="818" type="curve" smooth="yes"/>
      <point x="188" y="530" type="line" smooth="yes"/>
      <point x="188" y="387"/>
      <point x="178" y="198"/>
      <point x="173" y="144" type="curve"/>
      <point x="26" y="109" type="line"/>
    </contour>
  </outline>
</glyph>
<glyph name="m" format="2">
  <advance width="1982"/>
  <unicode hex="006D"/>
  <note>
m
</note>
  <anchor x="998" y="1001" name="above"/>
  <anchor x="998" y="0" name="below"/>
  <outline>
    <contour>
      <point x="42" y="0" type="line"/>
      <point x="622" y="0" type="line"/>
      <point x="628" y="104" type="line"/>
      <point x="504" y="144" type="line"/>
      <point x="496" y="168"/>
      <point x="492" y="272"/>
      <point x="492" y="371" type="curve" smooth="yes"/>
      <point x="492" y="703" type="line"/>
      <point x="534" y="764"/>
      <point x="606" y="800"/>
      <point x="672" y="800" type="curve" smooth="yes"/>
      <point x="773" y="800"/>
      <point x="847" y="742"/>
      <point x="847" y="583" type="curve"/>
      <point x="850" y="373" type="line"/>
      <point x="850" y="293"/>
      <point x="845" y="189"/>
      <point x="839" y="144" type="curve"/>
      <point x="724" y="104" type="line"/>
      <point x="732" y="0" type="line"/>
      <point x="1276" y="0" type="line"/>
      <point x="1283" y="104" type="line"/>
      <point x="1163" y="144" type="line"/>
      <point x="1155" y="168"/>
      <point x="1152" y="272"/>
      <point x="1152" y="374" type="curve"/>
      <point x="1148" y="609" type="line"/>
      <point x="1148" y="888"/>
      <point x="988" y="1019"/>
      <point x="808" y="1019" type="curve" smooth="yes"/>
      <point x="693" y="1019"/>
      <point x="586" y="964"/>
      <point x="489" y="837" type="curve"/>
      <point x="483" y="841" type="line"/>
      <point x="497" y="973" type="line"/>
      <point x="431" y="1014" type="line"/>
      <point x="26" y="909" type="line"/>
      <point x="26" y="805" type="line"/>
      <point x="172" y="773" type="line"/>
      <point x="183" y="690"/>
      <point x="188" y="628"/>
      <point x="189" y="543" type="curve"/>
      <point x="188" y="371" type="line" smooth="yes"/>
      <point x="185" y="266"/>
      <point x="178" y="165"/>
      <point x="177" y="144" type="curve"/>
      <point x="34" y="104" type="line"/>
    </contour>
    <contour>
      <point x="1383" y="0" type="line"/>
      <point x="1950" y="0" type="line"/>
      <point x="1957" y="104" type="line"/>
      <point x="1816" y="144" type="line"/>
      <point x="1808" y="168"/>
      <point x="1804" y="272"/>
      <point x="1804" y="374" type="curve"/>
      <point x="1801" y="609" type="line"/>
      <point x="1801" y="870"/>
      <point x="1649" y="1019"/>
      <point x="1432" y="1019" type="curve" smooth="yes"/>
      <point x="1288" y="1019"/>
      <point x="1165" y="941"/>
      <point x="1056" y="792" type="curve"/>
      <point x="1126" y="709" type="line"/>
      <point x="1169" y="768"/>
      <point x="1241" y="800"/>
      <point x="1312" y="800" type="curve" smooth="yes"/>
      <point x="1417" y="800"/>
      <point x="1498" y="737"/>
      <point x="1498" y="559" type="curve"/>
      <point x="1505" y="373" type="line"/>
      <point x="1505" y="296"/>
      <point x="1500" y="189"/>
      <point x="1493" y="144" type="curve"/>
      <point x="1377" y="104" type="line"/>
    </contour>
  </outline>
</glyph>
<glyph name="n" format="2">
  <advance width="1344"/>
  <unicode hex="006E"/>
  <note>
n
</note>
  <anchor x="679" y="1001" name="above"/>
  <anchor x="679" y="0" name="below"/>
  <outline>
    <contour>
      <point x="40" y="0" type="line"/>
      <point x="630" y="0" type="line"/>
      <point x="637" y="104" type="line"/>
      <point x="500" y="144" type="line"/>
      <point x="494" y="168"/>
      <point x="489" y="270"/>
      <point x="489" y="371" type="curve" smooth="yes"/>
      <point x="489" y="703" type="line"/>
      <point x="539" y="768"/>
      <point x="606" y="800"/>
      <point x="679" y="800" type="curve" smooth="yes"/>
      <point x="781" y="800"/>
      <point x="867" y="730"/>
      <point x="867" y="559" type="curve" smooth="yes"/>
      <point x="867" y="373" type="line" smooth="yes"/>
      <point x="867" y="293"/>
      <point x="862" y="189"/>
      <point x="855" y="144" type="curve"/>
      <point x="729" y="104" type="line"/>
      <point x="735" y="0" type="line"/>
      <point x="1312" y="0" type="line"/>
      <point x="1318" y="104" type="line"/>
      <point x="1179" y="144" type="line"/>
      <point x="1171" y="168"/>
      <point x="1168" y="272"/>
      <point x="1168" y="374" type="curve" smooth="yes"/>
      <point x="1168" y="609" type="line" smooth="yes"/>
      <point x="1168" y="868"/>
      <point x="1020" y="1019"/>
      <point x="824" y="1019" type="curve" smooth="yes"/>
      <point x="696" y="1019"/>
      <point x="581" y="957"/>
      <point x="488" y="836" type="curve"/>
      <point x="481" y="837" type="line"/>
      <point x="494" y="973" type="line"/>
      <point x="431" y="1014" type="line"/>
      <point x="23" y="909" type="line"/>
      <point x="23" y="805" type="line"/>
      <point x="168" y="773" type="line"/>
      <point x="181" y="695"/>
      <point x="188" y="637"/>
      <point x="188" y="544" type="curve"/>
      <point x="185" y="371" type="line" smooth="yes"/>
      <point x="183" y="266"/>
      <point x="177" y="165"/>
      <point x="173" y="144" type="curve"/>
      <point x="32" y="104" type="line"/>
    </contour>
  </outline>
</glyph>
<glyph name="o" format="2">
  <advance width="1218"/>
  <unicode hex="006F"/>
  <note>
o
</note>
  <anchor x="609" y="1001" name="above"/>
  <anchor x="609" y="0" name="below"/>
  <anchor x="609" y="500" name="center"/>
  <anchor x="771" y="0" name="ogonek"/>
  <anchor x="1181" y="1001" name="topright"/>
  <outline>
    <contour>
      <point x="615" y="-16" type="curve" smooth="yes"/>
      <point x="907" y="-16"/>
      <point x="1140" y="212"/>
      <point x="1140" y="512" type="curve" smooth="yes"/>
      <point x="1140" y="808"/>
      <point x="930" y="1019"/>
      <point x="625" y="1019" type="curve" smooth="yes"/>
      <point x="340" y="1019"/>
      <point x="76" y="826"/>
      <point x="76" y="489" type="curve" smooth="yes"/>
      <point x="76" y="191"/>
      <point x="298" y="-16"/>
    </contour>
    <contour>
      <point x="638" y="130" type="curve" smooth="yes"/>
      <point x="507" y="130"/>
      <point x="408" y="313"/>
      <point x="408" y="556" type="curve" smooth="yes"/>
      <point x="408" y="756"/>
      <point x="478" y="878"/>
      <point x="590" y="878" type="curve" smooth="yes"/>
      <point x="722" y="878"/>
      <point x="813" y="700"/>
      <point x="813" y="437" type="curve" smooth="yes"/>
      <point x="813" y="243"/>
      <point x="750" y="130"/>
    </contour>
  </outline>
</glyph>
<glyph name="p" format="2">
  <advance width="1288"/>
  <unicode hex="0070"/>
  <note>
p
</note>
  <anchor x="649" y="1001" name="above"/>
  <outline>
    <contour>
      <point x="34" y="-499" type="line"/>
      <point x="675" y="-499" type="line"/>
      <point x="683" y="-390" type="line"/>
      <point x="496" y="-353" type="line"/>
      <point x="489" y="-326"/>
      <point x="486" y="-230"/>
      <point x="486" y="-130" type="curve" smooth="yes"/>
      <point x="486" y="8" type="line"/>
      <point x="539" y="-6"/>
      <point x="596" y="-15"/>
      <point x="641" y="-15" type="curve" smooth="yes"/>
      <point x="990" y="-15"/>
      <point x="1207" y="245"/>
      <point x="1207" y="543" type="curve" smooth="yes"/>
      <point x="1207" y="845"/>
      <point x="1007" y="1019"/>
      <point x="790" y="1019" type="curve" smooth="yes"/>
      <point x="667" y="1019"/>
      <point x="552" y="944"/>
      <point x="483" y="828" type="curve"/>
      <point x="475" y="832" type="line"/>
      <point x="492" y="973" type="line"/>
      <point x="428" y="1014" type="line"/>
      <point x="21" y="909" type="line"/>
      <point x="21" y="805" type="line"/>
      <point x="165" y="773" type="line"/>
      <point x="180" y="695"/>
      <point x="185" y="630"/>
      <point x="185" y="541" type="curve" smooth="yes"/>
      <point x="180" y="97" type="line" smooth="yes"/>
      <point x="178" y="-86"/>
      <point x="170" y="-314"/>
      <point x="167" y="-353" type="curve"/>
      <point x="26" y="-394" type="line"/>
    </contour>
    <contour>
      <point x="646" y="147" type="curve" smooth="yes"/>
      <point x="590" y="147"/>
      <point x="530" y="165"/>
      <point x="486" y="194" type="curve"/>
      <point x="486" y="709" type="line"/>
      <point x="528" y="761"/>
      <point x="590" y="797"/>
      <point x="653" y="797" type="curve" smooth="yes"/>
      <point x="768" y="797"/>
      <point x="881" y="705"/>
      <point x="879" y="470" type="curve" smooth="yes"/>
      <point x="878" y="238"/>
      <point x="779" y="147"/>
    </contour>
  </outline>
</glyph>
<glyph name="q" format="2">
  <advance width="1255"/>
  <unicode hex="0071"/>
  <note>
q
</note>
  <anchor x="643" y="1001" name="above"/>
  <outline>
    <contour>
      <point x="633" y="-499" type="line"/>
      <point x="1237" y="-499" type="line"/>
      <point x="1244" y="-394" type="line"/>
      <point x="1103" y="-353" type="line"/>
      <point x="1098" y="-326"/>
      <point x="1095" y="-219"/>
      <point x="1092" y="-39" type="curve" smooth="yes"/>
      <point x="1088" y="565" type="line" smooth="yes"/>
      <point x="1087" y="729"/>
      <point x="1090" y="931"/>
      <point x="1096" y="1051" type="curve"/>
      <point x="1004" y="1051" type="line"/>
      <point x="902" y="962" type="line"/>
      <point x="829" y="996"/>
      <point x="743" y="1014"/>
      <point x="646" y="1014" type="curve" smooth="yes"/>
      <point x="351" y="1014"/>
      <point x="78" y="810"/>
      <point x="78" y="466" type="curve" smooth="yes"/>
      <point x="78" y="172"/>
      <point x="283" y="-21"/>
      <point x="523" y="-21" type="curve" smooth="yes"/>
      <point x="619" y="-21"/>
      <point x="714" y="19"/>
      <point x="790" y="157" type="curve"/>
      <point x="797" y="152" type="line"/>
      <point x="795" y="-130" type="line" smooth="yes"/>
      <point x="795" y="-246"/>
      <point x="792" y="-317"/>
      <point x="790" y="-353" type="curve"/>
      <point x="627" y="-394" type="line"/>
    </contour>
    <contour>
      <point x="635" y="202" type="curve" smooth="yes"/>
      <point x="512" y="202"/>
      <point x="402" y="322"/>
      <point x="402" y="547" type="curve" smooth="yes"/>
      <point x="402" y="758"/>
      <point x="504" y="876"/>
      <point x="640" y="876" type="curve" smooth="yes"/>
      <point x="692" y="876"/>
      <point x="750" y="857"/>
      <point x="790" y="811" type="curve"/>
      <point x="789" y="296" type="line"/>
      <point x="748" y="228"/>
      <point x="677" y="202"/>
    </contour>
  </outline>
</glyph>
<glyph name="r" format="2">
  <advance width="944"/>
  <unicode hex="0072"/>
  <note>
r
</note>
  <anchor x="447" y="1001" name="above"/>
  <anchor x="345" y="0" name="below"/>
  <outline>
    <contour>
      <point x="42" y="0" type="line"/>
      <point x="698" y="0" type="line"/>
      <point x="705" y="109" type="line"/>
      <point x="507" y="144" type="line"/>
      <point x="504" y="172"/>
      <point x="499" y="295"/>
      <point x="497" y="466" type="curve" smooth="yes"/>
      <point x="494" y="643" type="line"/>
      <point x="525" y="705"/>
      <point x="567" y="760"/>
      <point x="615" y="792" type="curve"/>
      <point x="547" y="797" type="line"/>
      <point x="617" y="727"/>
      <point x="671" y="705"/>
      <point x="743" y="705" type="curve" smooth="yes"/>
      <point x="832" y="705"/>
      <point x="912" y="766"/>
      <point x="912" y="865" type="curve" smooth="yes"/>
      <point x="912" y="964"/>
      <point x="837" y="1011"/>
      <point x="756" y="1011" type="curve" smooth="yes"/>
      <point x="659" y="1011"/>
      <point x="570" y="960"/>
      <point x="486" y="792" type="curve"/>
      <point x="478" y="794" type="line"/>
      <point x="488" y="975" type="line"/>
      <point x="426" y="1014" type="line"/>
      <point x="26" y="909" type="line"/>
      <point x="26" y="805" type="line"/>
      <point x="172" y="773" type="line"/>
      <point x="183" y="690"/>
      <point x="189" y="630"/>
      <point x="189" y="543" type="curve"/>
      <point x="188" y="371" type="line" smooth="yes"/>
      <point x="185" y="269"/>
      <point x="178" y="164"/>
      <point x="177" y="144" type="curve"/>
      <point x="34" y="104" type="line"/>
    </contour>
  </outline>
</glyph>
<glyph name="s" format="2">
  <advance width="957"/>
  <unicode hex="0073"/>
  <note>
s
</note>
  <anchor x="479" y="1001" name="above"/>
  <anchor x="473" y="0" name="below"/>
  <outline>
    <contour>
      <point x="444" y="-16" type="curve" smooth="yes"/>
      <point x="716" y="-16"/>
      <point x="902" y="109"/>
      <point x="902" y="303" type="curve" smooth="yes"/>
      <point x="902" y="439"/>
      <point x="824" y="526"/>
      <point x="625" y="606" type="curve" smooth="yes"/>
      <point x="447" y="677"/>
      <point x="392" y="714"/>
      <point x="392" y="786" type="curve" smooth="yes"/>
      <point x="392" y="850"/>
      <point x="450" y="892"/>
      <point x="541" y="892" type="curve" smooth="yes"/>
      <point x="578" y="892"/>
      <point x="627" y="881"/>
      <point x="659" y="863" type="curve"/>
      <point x="708" y="700" type="line"/>
      <point x="857" y="700" type="line"/>
      <point x="831" y="967" type="line"/>
      <point x="764" y="996"/>
      <point x="656" y="1019"/>
      <point x="557" y="1019" type="curve" smooth="yes"/>
      <point x="285" y="1019"/>
      <point x="97" y="886"/>
      <point x="97" y="696" type="curve" smooth="yes"/>
      <point x="97" y="552"/>
      <point x="175" y="462"/>
      <point x="397" y="381" type="curve" smooth="yes"/>
      <point x="562" y="319"/>
      <point x="599" y="282"/>
      <point x="599" y="212" type="curve" smooth="yes"/>
      <point x="599" y="152"/>
      <point x="551" y="113"/>
      <point x="460" y="113" type="curve" smooth="yes"/>
      <point x="398" y="113"/>
      <point x="340" y="128"/>
      <point x="280" y="164" type="curve"/>
      <point x="232" y="327" type="line"/>
      <point x="81" y="327" type="line"/>
      <point x="92" y="58" type="line"/>
      <point x="180" y="13"/>
      <point x="314" y="-16"/>
    </contour>
  </outline>
</glyph>
<glyph name="t" format="2">
  <advance width="844"/>
  <unicode hex="0074"/>
  <note>
t
</note>
  <anchor x="405" y="1229" name="above"/>
  <anchor x="455" y="0" name="below"/>
  <anchor x="314" y="612" name="stroke"/>
  <anchor x="567" y="1565" name="topright"/>
  <outline>
    <contour>
      <point x="852" y="193" type="curve"/>
      <point x="794" y="261" type="line"/>
      <point x="750" y="224"/>
      <point x="693" y="201"/>
      <point x="640" y="201" type="curve" smooth="yes"/>
      <point x="531" y="201"/>
      <point x="466" y="248"/>
      <point x="466" y="374" type="curve"/>
      <point x="471" y="912" type="line"/>
      <point x="476" y="1237" type="line"/>
      <point x="407" y="1237" type="line"/>
      <point x="6" y="923" type="line"/>
      <point x="6" y="852" type="line"/>
      <point x="165" y="852" type="line"/>
      <point x="159" y="347" type="line"/>
      <point x="159" y="99"/>
      <point x="309" y="-21"/>
      <point x="523" y="-21" type="curve" smooth="yes"/>
      <point x="672" y="-21"/>
      <point x="805" y="60"/>
    </contour>
    <contour>
      <point x="363" y="852" type="line"/>
      <point x="790" y="852" type="line"/>
      <point x="790" y="998" type="line"/>
      <point x="363" y="998" type="line"/>
    </contour>
  </outline>
</glyph>
<glyph name="u" format="2">
  <advance width="1330"/>
  <unicode hex="0075"/>
  <note>
u
</note>
  <anchor x="661" y="1001" name="above"/>
  <anchor x="661" y="0" name="below"/>
  <anchor x="999" y="0" name="ogonek"/>
  <anchor x="1085" y="1001" name="topright"/>
  <outline>
    <contour>
      <point x="1155" y="207" type="line"/>
      <point x="1145" y="309"/>
      <point x="1143" y="384"/>
      <point x="1143" y="450" type="curve" smooth="yes"/>
      <point x="1143" y="633" type="line" smooth="yes"/>
      <point x="1143" y="803"/>
      <point x="1143" y="904"/>
      <point x="1150" y="975" type="curve"/>
      <point x="1087" y="1014" type="line"/>
      <point x="672" y="909" type="line"/>
      <point x="672" y="805" type="line"/>
      <point x="831" y="773" type="line"/>
      <point x="839" y="688"/>
      <point x="842" y="632"/>
      <point x="842" y="513" type="curve" smooth="yes"/>
      <point x="842" y="304" type="line"/>
      <point x="797" y="230"/>
      <point x="727" y="201"/>
      <point x="669" y="201" type="curve" smooth="yes"/>
      <point x="549" y="201"/>
      <point x="476" y="270"/>
      <point x="476" y="426" type="curve"/>
      <point x="478" y="612" type="line"/>
      <point x="478" y="745"/>
      <point x="484" y="884"/>
      <point x="491" y="973" type="curve"/>
      <point x="423" y="1014" type="line"/>
      <point x="6" y="909" type="line"/>
      <point x="6" y="805" type="line"/>
      <point x="162" y="773" type="line"/>
      <point x="168" y="716"/>
      <point x="172" y="654"/>
      <point x="172" y="583" type="curve" smooth="yes"/>
      <point x="172" y="389" type="line" smooth="yes"/>
      <point x="172" y="115"/>
      <point x="321" y="-21"/>
      <point x="541" y="-21" type="curve" smooth="yes"/>
      <point x="651" y="-21"/>
      <point x="758" y="23"/>
      <point x="844" y="168" type="curve"/>
      <point x="850" y="165" type="line"/>
      <point x="849" y="3" type="line"/>
      <point x="912" y="-29" type="line"/>
      <point x="1305" y="76" type="line"/>
      <point x="1305" y="175" type="line"/>
    </contour>
  </outline>
</glyph>
<glyph name="v" format="2">
  <advance width="1139"/>
  <unicode hex="0076"/>
  <note>
v
</note>
  <anchor x="570" y="1001" name="above"/>
  <anchor x="570" y="0" name="below"/>
  <outline>
    <contour>
      <point x="512" y="-8" type="line"/>
      <point x="614" y="-8" type="line"/>
      <point x="1051" y="855" type="line"/>
      <point x="1160" y="896" type="line"/>
      <point x="1153" y="1001" type="line"/>
      <point x="737" y="1001" type="line"/>
      <point x="730" y="896" type="line"/>
      <point x="871" y="855" type="line"/>
      <point x="638" y="313" type="line"/>
      <point x="703" y="311" type="line"/>
      <point x="450" y="855" type="line"/>
      <point x="591" y="896" type="line"/>
      <point x="585" y="1001" type="line"/>
      <point x="-5" y="1001" type="line"/>
      <point x="-11" y="896" type="line"/>
      <point x="92" y="855" type="line"/>
    </contour>
  </outline>
</glyph>
<glyph name="w" format="2">
  <advance width="1866"/>
  <unicode hex="0077"/>
  <note>
w
</note>
  <anchor x="1012" y="1001" name="above"/>
  <anchor x="923" y="0" name="below"/>
  <outline>
    <contour>
      <point x="1234" y="-8" type="line"/>
      <point x="1338" y="-8" type="line"/>
      <point x="1773" y="855" type="line"/>
      <point x="1880" y="896" type="line"/>
      <point x="1874" y="1001" type="line"/>
      <point x="1485" y="1001" type="line"/>
      <point x="1479" y="896" type="line"/>
      <point x="1597" y="855" type="line"/>
      <point x="1360" y="313" type="line"/>
      <point x="1417" y="311" type="line"/>
      <point x="1189" y="855" type="line"/>
      <point x="1307" y="896" type="line"/>
      <point x="1302" y="1001" type="line"/>
      <point x="737" y="1001" type="line"/>
      <point x="730" y="896" type="line"/>
      <point x="837" y="855" type="line"/>
    </contour>
    <contour>
      <point x="509" y="-8" type="line"/>
      <point x="612" y="-8" type="line"/>
      <point x="975" y="705" type="line"/>
      <point x="891" y="857" type="line"/>
      <point x="635" y="313" type="line"/>
      <point x="700" y="311" type="line"/>
      <point x="460" y="855" type="line"/>
      <point x="567" y="896" type="line"/>
      <point x="560" y="1001" type="line"/>
      <point x="2" y="1001" type="line"/>
      <point x="-5" y="896" type="line"/>
      <point x="100" y="855" type="line"/>
    </contour>
  </outline>
</glyph>
<glyph name="x" format="2">
  <advance width="1194"/>
  <unicode hex="0078"/>
  <note>
x
</note>
  <anchor x="611" y="1001" name="above"/>
  <anchor x="611" y="0" name="below"/>
  <outline>
    <contour>
      <point x="1174" y="0" type="line"/>
      <point x="1181" y="104" type="line"/>
      <point x="1074" y="144" type="line"/>
      <point x="748" y="552" type="line"/>
      <point x="669" y="653" type="line"/>
      <point x="510" y="855" type="line"/>
      <point x="604" y="896" type="line"/>
      <point x="598" y="1001" type="line"/>
      <point x="45" y="1001" type="line"/>
      <point x="39" y="896" type="line"/>
      <point x="146" y="855" type="line"/>
      <point x="432" y="492" type="line"/>
      <point x="513" y="395" type="line"/>
      <point x="713" y="144" type="line"/>
      <point x="606" y="104" type="line"/>
      <point x="612" y="0" type="line"/>
    </contour>
    <contour>
      <point x="821" y="855" type="line"/>
      <point x="669" y="653" type="line"/>
      <point x="432" y="492" type="line"/>
      <point x="138" y="144" type="line"/>
      <point x="31" y="104" type="line"/>
      <point x="39" y="0" type="line"/>
      <point x="434" y="0" type="line"/>
      <point x="441" y="104" type="line"/>
      <point x="334" y="144" type="line"/>
      <point x="513" y="395" type="line"/>
      <point x="748" y="552" type="line"/>
      <point x="1014" y="855" type="line"/>
      <point x="1122" y="896" type="line"/>
      <point x="1114" y="1001" type="line"/>
      <point x="734" y="1001" type="line"/>
      <point x="727" y="896" type="line"/>
    </contour>
  </outline>
</glyph>
<glyph name="y" format="2">
  <advance width="1139"/>
  <unicode hex="0079"/>
  <note>
y
</note>
  <anchor x="659" y="1001" name="above"/>
  <anchor x="753" y="0" name="below"/>
  <outline>
    <contour>
      <point x="512" y="-8" type="line"/>
      <point x="700" y="311" type="line"/>
      <point x="450" y="855" type="line"/>
      <point x="591" y="896" type="line"/>
      <point x="585" y="1001" type="line"/>
      <point x="-5" y="1001" type="line"/>
      <point x="-11" y="896" type="line"/>
      <point x="92" y="855" type="line"/>
    </contour>
    <contour>
      <point x="1152" y="1001" type="line"/>
      <point x="737" y="1001" type="line"/>
      <point x="730" y="896" type="line"/>
      <point x="871" y="855" type="line"/>
      <point x="633" y="313" type="line"/>
      <point x="601" y="256" type="line"/>
      <point x="326" y="-254" type="line"/>
      <point x="479" y="-151" type="line"/>
      <point x="207" y="-225" type="line" smooth="yes"/>
      <point x="97" y="-254"/>
      <point x="40" y="-314"/>
      <point x="40" y="-387" type="curve" smooth="yes"/>
      <point x="40" y="-458"/>
      <point x="107" y="-517"/>
      <point x="211" y="-517" type="curve" smooth="yes"/>
      <point x="306" y="-517"/>
      <point x="390" y="-473"/>
      <point x="475" y="-300" type="curve" smooth="yes"/>
      <point x="654" y="73" type="line"/>
      <point x="1051" y="855" type="line"/>
      <point x="1160" y="896" type="line"/>
    </contour>
  </outline>
</glyph>
<glyph name="z" format="2">
  <advance width="1074"/>
  <unicode hex="007A"/>
  <note>
z
</note>
  <anchor x="541" y="1001" name="above"/>
  <anchor x="541" y="0" name="below"/>
  <outline>
    <contour>
      <point x="424" y="40" type="line"/>
      <point x="975" y="894" type="line"/>
      <point x="975" y="1006" type="line"/>
      <point x="909" y="1003"/>
      <point x="839" y="1001"/>
      <point x="774" y="1001" type="curve" smooth="yes"/>
      <point x="317" y="1001" type="line" smooth="yes"/>
      <point x="254" y="1001"/>
      <point x="155" y="1001"/>
      <point x="75" y="1004" type="curve"/>
      <point x="81" y="664" type="line"/>
      <point x="228" y="664" type="line"/>
      <point x="259" y="854" type="line"/>
      <point x="306" y="860"/>
      <point x="361" y="865"/>
      <point x="444" y="865" type="curve" smooth="yes"/>
      <point x="672" y="865" type="line"/>
      <point x="671" y="957" type="line"/>
      <point x="105" y="102" type="line"/>
      <point x="105" y="-6" type="line"/>
      <point x="172" y="0"/>
      <point x="241" y="0"/>
      <point x="304" y="0" type="curve" smooth="yes"/>
      <point x="758" y="0" type="line" smooth="yes"/>
      <point x="821" y="0"/>
      <point x="920" y="0"/>
      <point x="998" y="-3" type="curve"/>
      <point x="1043" y="347" type="line"/>
      <point x="894" y="347" type="line"/>
      <point x="831" y="147" type="line"/>
      <point x="782" y="143"/>
      <point x="732" y="138"/>
      <point x="672" y="138" type="curve" smooth="yes"/>
      <point x="408" y="138" type="line"/>
    </contour>
  </outline>
</glyph>
<glyph name="braceleft" format="2">
  <advance width="867"/>
  <unicode hex="007B"/>
  <note>
braceleft
</note>
  <outline>
    <contour>
      <point x="564" y="-173" type="curve" smooth="yes"/>
      <point x="564" y="-19"/>
      <point x="653" y="91"/>
      <point x="653" y="272" type="curve" smooth="yes"/>
      <point x="653" y="444"/>
      <point x="526" y="577"/>
      <point x="335" y="599" type="curve"/>
      <point x="335" y="567" type="line"/>
      <point x="525" y="590"/>
      <point x="653" y="695"/>
      <point x="653" y="867" type="curve" smooth="yes"/>
      <point x="653" y="1048"/>
      <point x="564" y="1161"/>
      <point x="564" y="1315" type="curve" smooth="yes"/>
      <point x="564" y="1459"/>
      <point x="658" y="1521"/>
      <point x="789" y="1539" type="curve"/>
      <point x="756" y="1659" type="line"/>
      <point x="428" y="1621"/>
      <point x="217" y="1509"/>
      <point x="217" y="1276" type="curve" smooth="yes"/>
      <point x="217" y="1108"/>
      <point x="343" y="944"/>
      <point x="343" y="808" type="curve" smooth="yes"/>
      <point x="343" y="705"/>
      <point x="300" y="649"/>
      <point x="112" y="643" type="curve"/>
      <point x="112" y="496" type="line"/>
      <point x="300" y="488"/>
      <point x="343" y="434"/>
      <point x="343" y="330" type="curve" smooth="yes"/>
      <point x="343" y="194"/>
      <point x="217" y="32"/>
      <point x="217" y="-134" type="curve" smooth="yes"/>
      <point x="217" y="-368"/>
      <point x="428" y="-479"/>
      <point x="756" y="-517" type="curve"/>
      <point x="789" y="-397" type="line"/>
      <point x="658" y="-379"/>
      <point x="564" y="-317"/>
    </contour>
  </outline>
</glyph>
<glyph name="bar" format="2">
  <advance width="609"/>
  <unicode hex="007C"/>
  <note>
bar
</note>
  <outline>
    <contour>
      <point x="204" y="-499" type="line"/>
      <point x="405" y="-499" type="line"/>
      <point x="405" y="1641" type="line"/>
      <point x="204" y="1641" type="line"/>
    </contour>
  </outline>
</glyph>
<glyph name="braceright" format="2">
  <advance width="867"/>
  <unicode hex="007D"/>
  <note>
braceright
</note>
  <outline>
    <contour>
      <point x="301" y="-173" type="curve" smooth="yes"/>
      <point x="301" y="-317"/>
      <point x="206" y="-379"/>
      <point x="78" y="-397" type="curve"/>
      <point x="109" y="-517" type="line"/>
      <point x="439" y="-479"/>
      <point x="648" y="-368"/>
      <point x="648" y="-134" type="curve" smooth="yes"/>
      <point x="648" y="32"/>
      <point x="523" y="194"/>
      <point x="523" y="330" type="curve" smooth="yes"/>
      <point x="523" y="434"/>
      <point x="564" y="488"/>
      <point x="753" y="496" type="curve"/>
      <point x="753" y="643" type="line"/>
      <point x="564" y="649"/>
      <point x="523" y="705"/>
      <point x="523" y="808" type="curve" smooth="yes"/>
      <point x="523" y="944"/>
      <point x="648" y="1108"/>
      <point x="648" y="1276" type="curve" smooth="yes"/>
      <point x="648" y="1509"/>
      <point x="439" y="1621"/>
      <point x="109" y="1659" type="curve"/>
      <point x="78" y="1539" type="line"/>
      <point x="206" y="1521"/>
      <point x="301" y="1459"/>
      <point x="301" y="1315" type="curve" smooth="yes"/>
      <point x="301" y="1161"/>
      <point x="211" y="1048"/>
      <point x="211" y="867" type="curve" smooth="yes"/>
      <point x="211" y="695"/>
      <point x="337" y="590"/>
      <point x="530" y="567" type="curve"/>
      <point x="530" y="599" type="line"/>
      <point x="339" y="577"/>
      <point x="211" y="444"/>
      <point x="211" y="272" type="curve" smooth="yes"/>
      <point x="211" y="91"/>
      <point x="301" y="-19"/>
    </contour>
  </outline>
</glyph>
<glyph name="asciitilde" format="2">
  <advance width="1226"/>
  <unicode hex="007E"/>
  <outline>
    <contour>
      <point x="1009" y="705" type="line"/>
      <point x="973" y="638"/>
      <point x="925" y="601"/>
      <point x="863" y="601" type="curve" smooth="yes"/>
      <point x="758" y="601"/>
      <point x="557" y="748"/>
      <point x="392" y="748" type="curve" smooth="yes"/>
      <point x="269" y="748"/>
      <point x="164" y="662"/>
      <point x="120" y="517" type="curve"/>
      <point x="217" y="452" type="line"/>
      <point x="256" y="522"/>
      <point x="304" y="559"/>
      <point x="363" y="559" type="curve" smooth="yes"/>
      <point x="466" y="559"/>
      <point x="667" y="411"/>
      <point x="832" y="411" type="curve" smooth="yes"/>
      <point x="956" y="411"/>
      <point x="1062" y="500"/>
      <point x="1106" y="641" type="curve"/>
    </contour>
  </outline>
</glyph>
<glyph name="cent" format="2">
  <advance width="1050"/>
  <unicode hex="00A2"/>
  <note>
cent
</note>
  <outline>
    <contour>
      <point x="591" y="-16" type="curve" smooth="yes"/>
      <point x="768" y="-16"/>
      <point x="931" y="78"/>
      <point x="1019" y="266" type="curve"/>
      <point x="947" y="334" type="line"/>
      <point x="867" y="236"/>
      <point x="782" y="206"/>
      <point x="700" y="206" type="curve" smooth="yes"/>
      <point x="533" y="206"/>
      <point x="407" y="326"/>
      <point x="407" y="557" type="curve" smooth="yes"/>
      <point x="407" y="790"/>
      <point x="546" y="909"/>
      <point x="677" y="881" type="curve"/>
      <point x="559" y="907" type="line"/>
      <point x="730" y="760" type="line" smooth="yes"/>
      <point x="787" y="709"/>
      <point x="824" y="692"/>
      <point x="884" y="692" type="curve" smooth="yes"/>
      <point x="949" y="692"/>
      <point x="1006" y="730"/>
      <point x="1006" y="807" type="curve" smooth="yes"/>
      <point x="1006" y="928"/>
      <point x="847" y="1019"/>
      <point x="646" y="1019" type="curve" smooth="yes"/>
      <point x="313" y="1019"/>
      <point x="76" y="764"/>
      <point x="76" y="475" type="curve" smooth="yes"/>
      <point x="76" y="186"/>
      <point x="304" y="-16"/>
    </contour>
    <contour>
      <point x="583" y="-262" type="line"/>
      <point x="721" y="-262" type="line"/>
      <point x="721" y="1247" type="line"/>
      <point x="583" y="1247" type="line"/>
    </contour>
  </outline>
</glyph>
<glyph name="sterling" format="2">
  <advance width="1283"/>
  <unicode hex="00A3"/>
  <note>
sterling
</note>
  <outline>
    <contour>
      <point x="118" y="-28" type="line"/>
      <point x="324" y="34"/>
      <point x="377" y="40"/>
      <point x="453" y="40" type="curve" smooth="yes"/>
      <point x="627" y="40"/>
      <point x="671" y="-19"/>
      <point x="901" y="-19" type="curve" smooth="yes"/>
      <point x="1085" y="-19"/>
      <point x="1220" y="117"/>
      <point x="1286" y="326" type="curve"/>
      <point x="1184" y="376" type="line"/>
      <point x="1134" y="277"/>
      <point x="1093" y="240"/>
      <point x="990" y="240" type="curve" smooth="yes"/>
      <point x="889" y="240"/>
      <point x="790" y="283"/>
      <point x="700" y="283" type="curve" smooth="yes"/>
      <point x="586" y="283"/>
      <point x="518" y="235"/>
      <point x="322" y="105" type="curve"/>
      <point x="334" y="70" type="line"/>
      <point x="596" y="298"/>
      <point x="637" y="381"/>
      <point x="637" y="557" type="curve" smooth="yes"/>
      <point x="637" y="726"/>
      <point x="534" y="879"/>
      <point x="534" y="1017" type="curve" smooth="yes"/>
      <point x="534" y="1147"/>
      <point x="624" y="1244"/>
      <point x="792" y="1223" type="curve"/>
      <point x="679" y="1288" type="line"/>
      <point x="897" y="1087" type="line" smooth="yes"/>
      <point x="947" y="1043"/>
      <point x="988" y="1027"/>
      <point x="1046" y="1027" type="curve" smooth="yes"/>
      <point x="1119" y="1027"/>
      <point x="1169" y="1079"/>
      <point x="1169" y="1147" type="curve" smooth="yes"/>
      <point x="1169" y="1273"/>
      <point x="1014" y="1354"/>
      <point x="782" y="1354" type="curve" smooth="yes"/>
      <point x="431" y="1354"/>
      <point x="194" y="1176"/>
      <point x="194" y="925" type="curve" smooth="yes"/>
      <point x="194" y="794"/>
      <point x="348" y="598"/>
      <point x="348" y="376" type="curve" smooth="yes"/>
      <point x="348" y="215"/>
      <point x="283" y="146"/>
      <point x="92" y="96" type="curve"/>
    </contour>
    <contour>
      <point x="57" y="620" type="line"/>
      <point x="981" y="620" type="line"/>
      <point x="981" y="760" type="line"/>
      <point x="57" y="760" type="line"/>
    </contour>
  </outline>
</glyph>
<glyph name="currency" format="2">
  <advance width="1226"/>
  <unicode hex="00A4"/>
  <note>
currency
</note>
  <outline>
    <contour>
      <point x="607" y="235" type="curve" smooth="yes"/>
      <point x="886" y="235"/>
      <point x="1108" y="465"/>
      <point x="1108" y="745" type="curve" smooth="yes"/>
      <point x="1108" y="1030"/>
      <point x="886" y="1260"/>
      <point x="607" y="1260" type="curve" smooth="yes"/>
      <point x="330" y="1260"/>
      <point x="107" y="1030"/>
      <point x="107" y="745" type="curve" smooth="yes"/>
      <point x="107" y="465"/>
      <point x="330" y="235"/>
    </contour>
    <contour>
      <point x="149" y="152" type="line"/>
      <point x="423" y="431" type="line"/>
      <point x="303" y="552" type="line"/>
      <point x="29" y="270" type="line"/>
    </contour>
    <contour>
      <point x="1072" y="154" type="line"/>
      <point x="1192" y="270" type="line"/>
      <point x="896" y="573" type="line"/>
      <point x="786" y="447" type="line"/>
    </contour>
    <contour>
      <point x="607" y="366" type="curve" smooth="yes"/>
      <point x="494" y="366"/>
      <point x="407" y="536"/>
      <point x="407" y="748" type="curve" smooth="yes"/>
      <point x="407" y="960"/>
      <point x="496" y="1129"/>
      <point x="607" y="1129" type="curve" smooth="yes"/>
      <point x="716" y="1126"/>
      <point x="807" y="960"/>
      <point x="807" y="748" type="curve" smooth="yes"/>
      <point x="807" y="536"/>
      <point x="716" y="366"/>
    </contour>
    <contour>
      <point x="264" y="981" type="line"/>
      <point x="392" y="1095" type="line"/>
      <point x="149" y="1344" type="line"/>
      <point x="29" y="1223" type="line"/>
    </contour>
    <contour>
      <point x="939" y="960" type="line"/>
      <point x="1194" y="1220" type="line"/>
      <point x="1066" y="1349" type="line"/>
      <point x="808" y="1084" type="line"/>
    </contour>
  </outline>
</glyph>
<glyph name="yen" format="2">
  <advance width="1344"/>
  <unicode hex="00A5"/>
  <note>
yen
</note>
  <outline>
    <contour>
      <point x="180" y="557" type="line"/>
      <point x="1156" y="557" type="line"/>
      <point x="1156" y="692" type="line"/>
      <point x="180" y="692" type="line"/>
    </contour>
    <contour>
      <point x="180" y="293" type="line"/>
      <point x="1156" y="293" type="line"/>
      <point x="1156" y="429" type="line"/>
      <point x="180" y="429" type="line"/>
    </contour>
    <contour>
      <point x="1207" y="1181" type="line"/>
      <point x="1323" y="1218" type="line"/>
      <point x="1314" y="1335" type="line"/>
      <point x="862" y="1335" type="line"/>
      <point x="855" y="1218" type="line"/>
      <point x="1014" y="1181" type="line"/>
      <point x="730" y="687" type="line"/>
      <point x="786" y="687" type="line"/>
      <point x="497" y="1181" type="line"/>
      <point x="643" y="1218" type="line"/>
      <point x="637" y="1335" type="line"/>
      <point x="26" y="1335" type="line"/>
      <point x="19" y="1218" type="line"/>
      <point x="133" y="1181" type="line"/>
      <point x="588" y="408" type="line"/>
      <point x="512" y="641" type="line"/>
      <point x="512" y="413" type="line" smooth="yes"/>
      <point x="512" y="314"/>
      <point x="510" y="170"/>
      <point x="500" y="151" type="curve"/>
      <point x="342" y="117" type="line"/>
      <point x="350" y="0" type="line"/>
      <point x="993" y="0" type="line"/>
      <point x="999" y="117" type="line"/>
      <point x="841" y="151" type="line"/>
      <point x="831" y="170"/>
      <point x="828" y="314"/>
      <point x="828" y="413" type="curve" smooth="yes"/>
      <point x="828" y="641" type="line"/>
      <point x="722" y="408" type="line"/>
    </contour>
  </outline>
</glyph>
<glyph name="brokenbar" format="2">
  <advance width="609"/>
  <unicode hex="00A6"/>
  <note>
brokenbar
</note>
  <outline>
    <contour>
      <point x="204" y="794" type="line"/>
      <point x="405" y="794" type="line"/>
      <point x="405" y="1641" type="line"/>
      <point x="204" y="1641" type="line"/>
    </contour>
    <contour>
      <point x="204" y="-499" type="line"/>
      <point x="405" y="-499" type="line"/>
      <point x="405" y="343" type="line"/>
      <point x="204" y="343" type="line"/>
    </contour>
  </outline>
</glyph>
<glyph name="section" format="2">
  <advance width="1084"/>
  <unicode hex="00A7"/>
  <note>
section
</note>
  <outline>
    <contour>
      <point x="538" y="541" type="line"/>
      <point x="735" y="541"/>
      <point x="994" y="643"/>
      <point x="994" y="854" type="curve" smooth="yes"/>
      <point x="994" y="1200"/>
      <point x="439" y="1161"/>
      <point x="439" y="1349" type="curve" smooth="yes"/>
      <point x="439" y="1422"/>
      <point x="500" y="1459"/>
      <point x="593" y="1459" type="curve" smooth="yes"/>
      <point x="624" y="1459"/>
      <point x="674" y="1454"/>
      <point x="705" y="1440" type="curve"/>
      <point x="747" y="1296" type="line"/>
      <point x="897" y="1296" type="line"/>
      <point x="875" y="1539" type="line"/>
      <point x="811" y="1566"/>
      <point x="693" y="1587"/>
      <point x="581" y="1587" type="curve" smooth="yes"/>
      <point x="345" y="1587"/>
      <point x="147" y="1458"/>
      <point x="147" y="1284" type="curve" smooth="yes"/>
      <point x="147" y="960"/>
      <point x="726" y="998"/>
      <point x="726" y="763" type="curve" smooth="yes"/>
      <point x="726" y="671"/>
      <point x="643" y="606"/>
      <point x="499" y="583" type="curve"/>
    </contour>
    <contour>
      <point x="479" y="-16" type="curve" smooth="yes"/>
      <point x="729" y="-16"/>
      <point x="926" y="113"/>
      <point x="926" y="287" type="curve" smooth="yes"/>
      <point x="926" y="603"/>
      <point x="363" y="567"/>
      <point x="363" y="797" type="curve" smooth="yes"/>
      <point x="363" y="892"/>
      <point x="444" y="957"/>
      <point x="599" y="983" type="curve"/>
      <point x="562" y="1027" type="line"/>
      <point x="355" y="1025"/>
      <point x="89" y="917"/>
      <point x="89" y="698" type="curve" smooth="yes"/>
      <point x="89" y="369"/>
      <point x="630" y="402"/>
      <point x="630" y="225" type="curve" smooth="yes"/>
      <point x="630" y="159"/>
      <point x="573" y="113"/>
      <point x="463" y="113" type="curve" smooth="yes"/>
      <point x="432" y="113"/>
      <point x="382" y="123"/>
      <point x="350" y="139" type="curve"/>
      <point x="316" y="283" type="line"/>
      <point x="162" y="283" type="line"/>
      <point x="173" y="36" type="line"/>
      <point x="238" y="3"/>
      <point x="351" y="-16"/>
    </contour>
  </outline>
</glyph>
<glyph name="copyright" format="2">
  <advance width="1856"/>
  <unicode hex="00A9"/>
  <outline>
    <contour>
      <point x="930" y="-23" type="curve" smooth="yes"/>
      <point x="1395" y="-23"/>
      <point x="1756" y="330"/>
      <point x="1756" y="794" type="curve" smooth="yes"/>
      <point x="1756" y="1257"/>
      <point x="1395" y="1610"/>
      <point x="930" y="1610" type="curve" smooth="yes"/>
      <point x="460" y="1610"/>
      <point x="97" y="1257"/>
      <point x="97" y="794" type="curve" smooth="yes"/>
      <point x="97" y="330"/>
      <point x="463" y="-23"/>
    </contour>
    <contour>
      <point x="972" y="347" type="curve" smooth="yes"/>
      <point x="1105" y="347"/>
      <point x="1247" y="390"/>
      <point x="1304" y="431" type="curve"/>
      <point x="1354" y="643" type="line"/>
      <point x="1216" y="659" type="line"/>
      <point x="1171" y="517" type="line"/>
      <point x="1135" y="488"/>
      <point x="1077" y="475"/>
      <point x="1041" y="475" type="curve" smooth="yes"/>
      <point x="901" y="475"/>
      <point x="786" y="614"/>
      <point x="786" y="826" type="curve" smooth="yes"/>
      <point x="786" y="1037"/>
      <point x="888" y="1134"/>
      <point x="1014" y="1134" type="curve" smooth="yes"/>
      <point x="1050" y="1134"/>
      <point x="1082" y="1129"/>
      <point x="1116" y="1114" type="curve"/>
      <point x="1181" y="944" type="line"/>
      <point x="1301" y="947" type="line"/>
      <point x="1289" y="1202" type="line"/>
      <point x="1226" y="1231"/>
      <point x="1124" y="1257"/>
      <point x="1016" y="1257" type="curve" smooth="yes"/>
      <point x="727" y="1257"/>
      <point x="455" y="1105"/>
      <point x="455" y="779" type="curve" smooth="yes"/>
      <point x="455" y="515"/>
      <point x="656" y="347"/>
    </contour>
    <contour>
      <point x="930" y="86" type="curve" smooth="yes"/>
      <point x="530" y="86"/>
      <point x="224" y="394"/>
      <point x="224" y="794" type="curve" smooth="yes"/>
      <point x="224" y="1194"/>
      <point x="530" y="1498"/>
      <point x="930" y="1498" type="curve" smooth="yes"/>
      <point x="1325" y="1498"/>
      <point x="1634" y="1194"/>
      <point x="1634" y="794" type="curve" smooth="yes"/>
      <point x="1634" y="394"/>
      <point x="1325" y="86"/>
    </contour>
  </outline>
</glyph>
<glyph name="ordfeminine" format="2">
  <advance width="972"/>
  <unicode hex="00AA"/>
  <note>
ordfeminine
</note>
  <outline>
    <contour>
      <point x="345" y="505" type="curve" smooth="yes"/>
      <point x="416" y="505"/>
      <point x="500" y="546"/>
      <point x="581" y="661" type="curve"/>
      <point x="541" y="674" type="line"/>
      <point x="583" y="590" type="line" smooth="yes"/>
      <point x="612" y="536"/>
      <point x="640" y="505"/>
      <point x="698" y="505" type="curve" smooth="yes"/>
      <point x="730" y="505"/>
      <point x="760" y="515"/>
      <point x="811" y="534" type="curve" smooth="yes"/>
      <point x="959" y="601" type="line"/>
      <point x="959" y="693" type="line"/>
      <point x="836" y="721" type="line"/>
      <point x="824" y="755"/>
      <point x="818" y="798"/>
      <point x="818" y="858" type="curve"/>
      <point x="818" y="1061" type="line"/>
      <point x="821" y="1241"/>
      <point x="687" y="1351"/>
      <point x="442" y="1351" type="curve"/>
      <point x="355" y="1344"/>
      <point x="86" y="1220"/>
      <point x="86" y="1103" type="curve" smooth="yes"/>
      <point x="86" y="1038"/>
      <point x="175" y="986"/>
      <point x="314" y="1011" type="curve"/>
      <point x="324" y="1140" type="line" smooth="yes"/>
      <point x="327" y="1177"/>
      <point x="339" y="1192"/>
      <point x="376" y="1192" type="curve" smooth="yes"/>
      <point x="455" y="1192"/>
      <point x="531" y="1135"/>
      <point x="531" y="1046" type="curve" smooth="yes"/>
      <point x="531" y="1001" type="line"/>
      <point x="228" y="926" type="line" smooth="yes"/>
      <point x="113" y="899"/>
      <point x="71" y="831"/>
      <point x="71" y="747" type="curve" smooth="yes"/>
      <point x="71" y="641"/>
      <point x="180" y="505"/>
    </contour>
    <contour>
      <point x="479" y="693" type="curve" smooth="yes"/>
      <point x="402" y="693"/>
      <point x="361" y="739"/>
      <point x="361" y="792" type="curve" smooth="yes"/>
      <point x="361" y="841"/>
      <point x="390" y="870"/>
      <point x="437" y="876" type="curve" smooth="yes"/>
      <point x="536" y="894" type="line"/>
      <point x="536" y="714" type="line"/>
      <point x="515" y="698"/>
      <point x="496" y="693"/>
    </contour>
  </outline>
</glyph>
<glyph name="logicalnot" format="2">
  <advance width="1226"/>
  <unicode hex="00AC"/>
  <outline>
    <contour>
      <point x="1106" y="883" type="line"/>
      <point x="120" y="883" type="line"/>
      <point x="120" y="680" type="line"/>
      <point x="909" y="680" type="line"/>
      <point x="909" y="272" type="line"/>
      <point x="1106" y="272" type="line"/>
    </contour>
  </outline>
</glyph>
<glyph name="softhyphen" format="2">
  <advance width="727"/>
  <unicode hex="00AD"/>
  <outline>
    <contour>
      <point x="638" y="377" type="line"/>
      <point x="638" y="598" type="line"/>
      <point x="86" y="598" type="line"/>
      <point x="86" y="377" type="line"/>
    </contour>
  </outline>
</glyph>
<glyph name="registered" format="2">
  <advance width="1856"/>
  <unicode hex="00AE"/>
  <outline>
    <contour>
      <point x="492" y="453" type="line"/>
      <point x="500" y="356" type="line"/>
      <point x="951" y="356" type="line"/>
      <point x="957" y="453" type="line"/>
      <point x="881" y="483" type="line"/>
      <point x="881" y="507"/>
      <point x="876" y="632"/>
      <point x="876" y="727" type="curve" smooth="yes"/>
      <point x="876" y="1155" type="line"/>
      <point x="918" y="1155" type="line" smooth="yes"/>
      <point x="993" y="1155"/>
      <point x="1054" y="1122"/>
      <point x="1054" y="1011" type="curve" smooth="yes"/>
      <point x="1054" y="897"/>
      <point x="980" y="850"/>
      <point x="905" y="850" type="curve" smooth="yes"/>
      <point x="896" y="850"/>
      <point x="879" y="850"/>
      <point x="867" y="852" type="curve"/>
      <point x="867" y="756" type="line"/>
      <point x="954" y="756" type="line" smooth="yes"/>
      <point x="1179" y="756"/>
      <point x="1349" y="863"/>
      <point x="1349" y="1012" type="curve" smooth="yes"/>
      <point x="1349" y="1199"/>
      <point x="1192" y="1258"/>
      <point x="947" y="1258" type="curve"/>
      <point x="489" y="1258" type="line"/>
      <point x="483" y="1160" type="line"/>
      <point x="585" y="1134" type="line"/>
      <point x="596" y="1122"/>
      <point x="599" y="988"/>
      <point x="599" y="892" type="curve" smooth="yes"/>
      <point x="599" y="727" type="line" smooth="yes"/>
      <point x="599" y="632"/>
      <point x="598" y="496"/>
      <point x="596" y="483" type="curve"/>
    </contour>
    <contour>
      <point x="1312" y="345" type="curve" smooth="yes"/>
      <point x="1354" y="345"/>
      <point x="1388" y="348"/>
      <point x="1429" y="358" type="curve"/>
      <point x="1445" y="444" type="line"/>
      <point x="1372" y="470"/>
      <point x="1325" y="517"/>
      <point x="1288" y="572" type="curve" smooth="yes"/>
      <point x="1134" y="828" type="line"/>
      <point x="901" y="779" type="line"/>
      <point x="975" y="594" type="line" smooth="yes"/>
      <point x="1046" y="419"/>
      <point x="1119" y="345"/>
    </contour>
    <contour>
      <point x="930" y="-23" type="curve" smooth="yes"/>
      <point x="1395" y="-23"/>
      <point x="1756" y="330"/>
      <point x="1756" y="794" type="curve" smooth="yes"/>
      <point x="1756" y="1257"/>
      <point x="1395" y="1610"/>
      <point x="930" y="1610" type="curve" smooth="yes"/>
      <point x="460" y="1610"/>
      <point x="97" y="1257"/>
      <point x="97" y="794" type="curve" smooth="yes"/>
      <point x="97" y="330"/>
      <point x="463" y="-23"/>
    </contour>
    <contour>
      <point x="930" y="86" type="curve" smooth="yes"/>
      <point x="530" y="86"/>
      <point x="224" y="394"/>
      <point x="224" y="794" type="curve" smooth="yes"/>
      <point x="224" y="1194"/>
      <point x="530" y="1498"/>
      <point x="930" y="1498" type="curve" smooth="yes"/>
      <point x="1325" y="1498"/>
      <point x="1634" y="1194"/>
      <point x="1634" y="794" type="curve" smooth="yes"/>
      <point x="1634" y="394"/>
      <point x="1325" y="86"/>
    </contour>
  </outline>
</glyph>
<glyph name="degree" format="2">
  <advance width="913"/>
  <unicode hex="00B0"/>
  <note>
degree
</note>
  <outline>
    <contour>
      <point x="457" y="690" type="curve" smooth="yes"/>
      <point x="649" y="690"/>
      <point x="798" y="829"/>
      <point x="798" y="1022" type="curve" smooth="yes"/>
      <point x="798" y="1216"/>
      <point x="649" y="1357"/>
      <point x="457" y="1357" type="curve" smooth="yes"/>
      <point x="264" y="1357"/>
      <point x="113" y="1216"/>
      <point x="113" y="1022" type="curve" smooth="yes"/>
      <point x="113" y="829"/>
      <point x="264" y="690"/>
    </contour>
    <contour>
      <point x="457" y="841" type="curve" smooth="yes"/>
      <point x="356" y="841"/>
      <point x="282" y="917"/>
      <point x="282" y="1022" type="curve" smooth="yes"/>
      <point x="282" y="1131"/>
      <point x="356" y="1203"/>
      <point x="457" y="1203" type="curve" smooth="yes"/>
      <point x="557" y="1203"/>
      <point x="632" y="1131"/>
      <point x="632" y="1022" type="curve" smooth="yes"/>
      <point x="632" y="917"/>
      <point x="557" y="841"/>
    </contour>
  </outline>
</glyph>
<glyph name="plusminus" format="2">
  <advance width="1226"/>
  <unicode hex="00B1"/>
  <outline>
    <contour>
      <point x="1106" y="776" type="line"/>
      <point x="120" y="776" type="line"/>
      <point x="120" y="581" type="line"/>
      <point x="1106" y="581" type="line"/>
    </contour>
    <contour>
      <point x="512" y="1074" type="line"/>
      <point x="512" y="282" type="line"/>
      <point x="711" y="282" type="line"/>
      <point x="711" y="1074" type="line"/>
    </contour>
    <contour>
      <point x="1106" y="198" type="line"/>
      <point x="120" y="198" type="line"/>
      <point x="120" y="0" type="line"/>
      <point x="1106" y="0" type="line"/>
    </contour>
  </outline>
</glyph>
<glyph name="twosuperior" format="2">
  <advance width="909"/>
  <unicode hex="00B2"/>
  <note>
uni2082
</note>
  <outline>
    <contour>
      <point x="79" y="551" type="curve"/>
      <point x="83" y="442" type="line"/>
      <point x="125" y="449"/>
      <point x="168" y="452"/>
      <point x="209" y="452" type="curve" smooth="yes"/>
      <point x="551" y="452" type="line" smooth="yes"/>
      <point x="580" y="452"/>
      <point x="743" y="445"/>
      <point x="810" y="441" type="curve"/>
      <point x="870" y="730" type="line"/>
      <point x="747" y="747" type="line"/>
      <point x="701" y="651" type="line"/>
      <point x="658" y="648"/>
      <point x="645" y="645"/>
      <point x="588" y="645" type="curve" smooth="yes"/>
      <point x="324" y="645" type="line"/>
      <point x="321" y="628" type="line"/>
      <point x="598" y="743"/>
      <point x="755" y="904"/>
      <point x="755" y="1067" type="curve" smooth="yes"/>
      <point x="755" y="1237"/>
      <point x="620" y="1348"/>
      <point x="424" y="1348" type="curve" smooth="yes"/>
      <point x="253" y="1348"/>
      <point x="113" y="1265"/>
      <point x="40" y="1111" type="curve"/>
      <point x="130" y="1051" type="line"/>
      <point x="175" y="1119"/>
      <point x="240" y="1155"/>
      <point x="314" y="1155" type="curve" smooth="yes"/>
      <point x="416" y="1155"/>
      <point x="473" y="1101"/>
      <point x="473" y="1014" type="curve" smooth="yes"/>
      <point x="473" y="875"/>
      <point x="350" y="724"/>
    </contour>
  </outline>
</glyph>
<glyph name="paragraph" format="2">
  <advance width="1335"/>
  <unicode hex="00B6"/>
  <note>
paragraph
</note>
  <outline>
    <contour>
      <point x="1249" y="0" type="line"/>
      <point x="1255" y="115" type="line"/>
      <point x="1113" y="151" type="line"/>
      <point x="1106" y="175"/>
      <point x="1100" y="340"/>
      <point x="1100" y="504" type="curve" smooth="yes"/>
      <point x="1100" y="828" type="line" smooth="yes"/>
      <point x="1100" y="996"/>
      <point x="1106" y="1160"/>
      <point x="1113" y="1181" type="curve"/>
      <point x="1258" y="1218" type="line"/>
      <point x="1250" y="1335" type="line"/>
      <point x="624" y="1335" type="line" smooth="yes"/>
      <point x="295" y="1335"/>
      <point x="53" y="1168"/>
      <point x="53" y="913" type="curve" smooth="yes"/>
      <point x="53" y="641"/>
      <point x="274" y="489"/>
      <point x="661" y="489" type="curve" smooth="yes"/>
      <point x="771" y="489"/>
      <point x="865" y="500"/>
      <point x="1017" y="539" type="curve"/>
      <point x="1017" y="705" type="line"/>
      <point x="888" y="666"/>
      <point x="790" y="649"/>
      <point x="672" y="649" type="curve" smooth="yes"/>
      <point x="492" y="649"/>
      <point x="389" y="761"/>
      <point x="389" y="954" type="curve" smooth="yes"/>
      <point x="389" y="1116"/>
      <point x="499" y="1203"/>
      <point x="653" y="1203" type="curve" smooth="yes"/>
      <point x="690" y="1203" type="line"/>
      <point x="692" y="1163"/>
      <point x="690" y="1061"/>
      <point x="690" y="773" type="curve" smooth="yes"/>
      <point x="690" y="384" type="line" smooth="yes"/>
      <point x="690" y="298"/>
      <point x="680" y="170"/>
      <point x="675" y="152" type="curve"/>
      <point x="491" y="118" type="line"/>
      <point x="497" y="0" type="line"/>
    </contour>
    <contour>
      <point x="847" y="1203" type="line"/>
      <point x="967" y="1203" type="line"/>
      <point x="956" y="128" type="line"/>
      <point x="847" y="128" type="line"/>
    </contour>
  </outline>
</glyph>
<glyph name="periodcentered" format="2">
  <advance width="685"/>
  <unicode hex="00B7"/>
  <note>
periodcentered
</note>
  <outline>
    <contour>
      <point x="342" y="290" type="curve" smooth="yes"/>
      <point x="465" y="290"/>
      <point x="562" y="385"/>
      <point x="562" y="504" type="curve" smooth="yes"/>
      <point x="562" y="625"/>
      <point x="465" y="724"/>
      <point x="342" y="724" type="curve" smooth="yes"/>
      <point x="222" y="724"/>
      <point x="123" y="625"/>
      <point x="123" y="504" type="curve" smooth="yes"/>
      <point x="123" y="385"/>
      <point x="222" y="290"/>
    </contour>
  </outline>
</glyph>
<glyph name="onesuperior" format="2">
  <advance width="909"/>
  <unicode hex="00B9"/>
  <note>
uni2081
</note>
  <outline>
    <contour>
      <point x="638" y="811" type="curve" smooth="yes"/>
      <point x="638" y="922" type="line" smooth="yes"/>
      <point x="638" y="1025"/>
      <point x="638" y="1213"/>
      <point x="661" y="1357" type="curve"/>
      <point x="170" y="1190" type="line"/>
      <point x="178" y="1080" type="line"/>
      <point x="350" y="1106" type="line"/>
      <point x="355" y="1066"/>
      <point x="360" y="943"/>
      <point x="360" y="891" type="curve" smooth="yes"/>
      <point x="360" y="798" type="line" smooth="yes"/>
      <point x="360" y="708"/>
      <point x="353" y="594"/>
      <point x="347" y="580" type="curve"/>
      <point x="191" y="556" type="line"/>
      <point x="196" y="452" type="line"/>
      <point x="800" y="452" type="line"/>
      <point x="807" y="556" type="line"/>
      <point x="649" y="580" type="line"/>
      <point x="645" y="594"/>
      <point x="638" y="716"/>
    </contour>
  </outline>
</glyph>
<glyph name="ordmasculine" format="2">
  <advance width="1012"/>
  <unicode hex="00BA"/>
  <note>
ordmasculine
</note>
  <outline>
    <contour>
      <point x="512" y="505" type="curve" smooth="yes"/>
      <point x="758" y="505"/>
      <point x="951" y="696"/>
      <point x="951" y="939" type="curve" smooth="yes"/>
      <point x="951" y="1179"/>
      <point x="771" y="1351"/>
      <point x="520" y="1351" type="curve" smooth="yes"/>
      <point x="253" y="1351"/>
      <point x="60" y="1169"/>
      <point x="60" y="912" type="curve" smooth="yes"/>
      <point x="60" y="674"/>
      <point x="249" y="505"/>
    </contour>
    <contour>
      <point x="534" y="643" type="curve" smooth="yes"/>
      <point x="445" y="643"/>
      <point x="368" y="802"/>
      <point x="368" y="991" type="curve" smooth="yes"/>
      <point x="368" y="1140"/>
      <point x="411" y="1221"/>
      <point x="483" y="1221" type="curve" smooth="yes"/>
      <point x="580" y="1221"/>
      <point x="648" y="1067"/>
      <point x="648" y="855" type="curve" smooth="yes"/>
      <point x="648" y="709"/>
      <point x="609" y="643"/>
    </contour>
  </outline>
</glyph>
<glyph name="questiondown" format="2">
  <advance width="536"/>
  <unicode hex="00BF"/>
  <note>
questiondown
</note>
  <outline>
    <contour>
      <point x="388" y="293" type="curve"/>
      <point x="300" y="293" type="line"/>
      <point x="304" y="270"/>
      <point x="306" y="254"/>
      <point x="306" y="244" type="curve" smooth="yes"/>
      <point x="306" y="143"/>
      <point x="51" y="163"/>
      <point x="51" y="-17" type="curve" smooth="yes"/>
      <point x="51" y="-181"/>
      <point x="214" y="-322"/>
      <point x="402" y="-322" type="curve" smooth="yes"/>
      <point x="480" y="-322"/>
      <point x="528" y="-284"/>
      <point x="528" y="-229" type="curve" smooth="yes"/>
      <point x="528" y="-173"/>
      <point x="478" y="-131"/>
      <point x="409" y="-131" type="curve" smooth="yes"/>
      <point x="358" y="-131"/>
      <point x="314" y="-155"/>
      <point x="268" y="-155" type="curve" smooth="yes"/>
      <point x="216" y="-155"/>
      <point x="186" y="-131"/>
      <point x="186" y="-95" type="curve" smooth="yes"/>
      <point x="186" y="-6"/>
      <point x="418" y="23"/>
      <point x="418" y="161" type="curve" smooth="yes"/>
      <point x="418" y="204"/>
      <point x="408" y="241"/>
    </contour>
    <contour>
      <point x="344" y="629" type="curve" smooth="yes"/>
      <point x="269" y="629"/>
      <point x="210" y="572"/>
      <point x="210" y="497" type="curve" smooth="yes"/>
      <point x="210" y="422"/>
      <point x="269" y="363"/>
      <point x="344" y="363" type="curve" smooth="yes"/>
      <point x="418" y="363"/>
      <point x="480" y="422"/>
      <point x="480" y="497" type="curve" smooth="yes"/>
      <point x="480" y="570"/>
      <point x="420" y="629"/>
    </contour>
  </outline>
</glyph>
<glyph name="AE" format="2">
  <advance width="1905"/>
  <unicode hex="00C6"/>
  <note>
AE
</note>
  <anchor x="993" y="1335" name="above"/>
  <anchor x="993" y="0" name="below"/>
  <outline>
    <contour>
      <point x="1762" y="-13" type="curve"/>
      <point x="1867" y="356" type="line"/>
      <point x="1736" y="382" type="line"/>
      <point x="1610" y="152" type="line"/>
      <point x="1573" y="147"/>
      <point x="1565" y="144"/>
      <point x="1451" y="144" type="curve" smooth="yes"/>
      <point x="1354" y="144" type="line" smooth="yes"/>
      <point x="1276" y="144"/>
      <point x="1218" y="147"/>
      <point x="1150" y="152" type="curve"/>
      <point x="1147" y="189"/>
      <point x="1147" y="212"/>
      <point x="1147" y="444" type="curve" smooth="yes"/>
      <point x="1147" y="910" type="line" smooth="yes"/>
      <point x="1147" y="1101"/>
      <point x="1148" y="1165"/>
      <point x="1150" y="1190" type="curve"/>
      <point x="1186" y="1197"/>
      <point x="1244" y="1199"/>
      <point x="1304" y="1199" type="curve" smooth="yes"/>
      <point x="1443" y="1199" type="line" smooth="yes"/>
      <point x="1480" y="1199"/>
      <point x="1508" y="1197"/>
      <point x="1550" y="1187" type="curve"/>
      <point x="1636" y="986" type="line"/>
      <point x="1769" y="1006" type="line"/>
      <point x="1709" y="1346" type="line"/>
      <point x="1628" y="1344"/>
      <point x="1448" y="1335"/>
      <point x="1351" y="1335" type="curve" smooth="yes"/>
      <point x="633" y="1335" type="line"/>
      <point x="627" y="1218" type="line"/>
      <point x="842" y="1181" type="line"/>
      <point x="821" y="1270" type="line"/>
      <point x="68" y="151" type="line"/>
      <point x="-53" y="115" type="line"/>
      <point x="-47" y="0" type="line"/>
      <point x="392" y="0" type="line"/>
      <point x="398" y="115" type="line"/>
      <point x="254" y="151" type="line"/>
      <point x="912" y="1161" type="line"/>
      <point x="836" y="1139" type="line"/>
      <point x="836" y="434" type="line" smooth="yes"/>
      <point x="836" y="313"/>
      <point x="834" y="219"/>
      <point x="829" y="151" type="curve"/>
      <point x="685" y="115" type="line"/>
      <point x="692" y="0" type="line"/>
      <point x="1440" y="0" type="line" smooth="yes"/>
      <point x="1535" y="0"/>
      <point x="1686" y="-8"/>
    </contour>
    <contour>
      <point x="348" y="361" type="line"/>
      <point x="405" y="366"/>
      <point x="488" y="371"/>
      <point x="612" y="371" type="curve" smooth="yes"/>
      <point x="692" y="371"/>
      <point x="779" y="371"/>
      <point x="891" y="364" type="curve"/>
      <point x="891" y="522" type="line"/>
      <point x="807" y="513"/>
      <point x="724" y="512"/>
      <point x="612" y="512" type="curve" smooth="yes"/>
      <point x="481" y="512"/>
      <point x="458" y="517"/>
      <point x="397" y="522" type="curve"/>
    </contour>
    <contour>
      <point x="1471" y="452" type="line"/>
      <point x="1599" y="452" type="line"/>
      <point x="1599" y="913" type="line"/>
      <point x="1471" y="913" type="line"/>
      <point x="1448" y="764" type="line"/>
      <point x="1429" y="761"/>
      <point x="1375" y="760"/>
      <point x="1315" y="760" type="curve" smooth="yes"/>
      <point x="1223" y="760" type="line" smooth="yes"/>
      <point x="1169" y="760"/>
      <point x="1121" y="764"/>
      <point x="1096" y="766" type="curve"/>
      <point x="1096" y="603" type="line"/>
      <point x="1121" y="604"/>
      <point x="1169" y="609"/>
      <point x="1223" y="609" type="curve" smooth="yes"/>
      <point x="1315" y="609" type="line" smooth="yes"/>
      <point x="1375" y="609"/>
      <point x="1429" y="606"/>
      <point x="1448" y="606" type="curve"/>
    </contour>
  </outline>
</glyph>
<glyph name="multiply" format="2">
  <advance width="1226"/>
  <unicode hex="00D7"/>
  <outline>
    <contour>
      <point x="947" y="1053" type="line"/>
      <point x="139" y="248" type="line"/>
      <point x="277" y="107" type="line"/>
      <point x="1087" y="910" type="line"/>
    </contour>
    <contour>
      <point x="277" y="1053" type="line"/>
      <point x="139" y="910" type="line"/>
      <point x="947" y="107" type="line"/>
      <point x="1087" y="248" type="line"/>
    </contour>
  </outline>
</glyph>
<glyph name="Thorn" format="2">
  <advance width="1309"/>
  <unicode hex="00DE"/>
  <note>
Thorn
</note>
  <outline>
    <contour>
      <point x="91" y="0" type="line"/>
      <point x="735" y="0" type="line"/>
      <point x="743" y="118" type="line"/>
      <point x="557" y="151" type="line"/>
      <point x="556" y="170"/>
      <point x="554" y="225"/>
      <point x="554" y="295" type="curve" smooth="yes"/>
      <point x="554" y="985" type="line"/>
      <point x="614" y="985" type="line" smooth="yes"/>
      <point x="792" y="985"/>
      <point x="894" y="896"/>
      <point x="894" y="692" type="curve" smooth="yes"/>
      <point x="894" y="522"/>
      <point x="815" y="419"/>
      <point x="659" y="419" type="curve" smooth="yes"/>
      <point x="606" y="419"/>
      <point x="556" y="434"/>
      <point x="525" y="452" type="curve"/>
      <point x="525" y="298" type="line"/>
      <point x="568" y="288"/>
      <point x="622" y="279"/>
      <point x="671" y="279" type="curve" smooth="yes"/>
      <point x="1027" y="279"/>
      <point x="1233" y="470"/>
      <point x="1233" y="721" type="curve" smooth="yes"/>
      <point x="1233" y="977"/>
      <point x="1046" y="1114"/>
      <point x="669" y="1114" type="curve" smooth="yes"/>
      <point x="473" y="1114" type="line"/>
      <point x="554" y="1032" type="line"/>
      <point x="554" y="1098" type="line" smooth="yes"/>
      <point x="554" y="1132"/>
      <point x="556" y="1168"/>
      <point x="557" y="1184" type="curve"/>
      <point x="701" y="1218" type="line"/>
      <point x="695" y="1335" type="line"/>
      <point x="84" y="1335" type="line"/>
      <point x="78" y="1218" type="line"/>
      <point x="222" y="1184" type="line"/>
      <point x="230" y="1165"/>
      <point x="238" y="1022"/>
      <point x="238" y="828" type="curve" smooth="yes"/>
      <point x="238" y="504" type="line" smooth="yes"/>
      <point x="238" y="313"/>
      <point x="230" y="170"/>
      <point x="222" y="151" type="curve"/>
      <point x="86" y="115" type="line"/>
    </contour>
  </outline>
</glyph>
<glyph name="germandbls" format="2">
  <advance width="1438"/>
  <unicode hex="00DF"/>
  <note>
germandbls
</note>
  <outline>
    <contour>
      <point x="991" y="-16" type="curve" smooth="yes"/>
      <point x="1244" y="-16"/>
      <point x="1406" y="110"/>
      <point x="1406" y="316" type="curve" smooth="yes"/>
      <point x="1406" y="658"/>
      <point x="935" y="627"/>
      <point x="935" y="839" type="curve" smooth="yes"/>
      <point x="935" y="975"/>
      <point x="1139" y="1093"/>
      <point x="1142" y="1270" type="curve" smooth="yes"/>
      <point x="1142" y="1464"/>
      <point x="977" y="1587"/>
      <point x="724" y="1587" type="curve" smooth="yes"/>
      <point x="392" y="1587"/>
      <point x="183" y="1372"/>
      <point x="183" y="1071" type="curve" smooth="yes"/>
      <point x="183" y="849" type="line"/>
      <point x="188" y="463" type="line" smooth="yes"/>
      <point x="189" y="343"/>
      <point x="183" y="198"/>
      <point x="178" y="144" type="curve"/>
      <point x="60" y="105" type="line"/>
      <point x="66" y="0" type="line"/>
      <point x="609" y="0" type="line"/>
      <point x="617" y="105" type="line"/>
      <point x="504" y="144" type="line"/>
      <point x="499" y="167"/>
      <point x="496" y="261"/>
      <point x="492" y="536" type="curve" smooth="yes"/>
      <point x="488" y="1184" type="line"/>
      <point x="488" y="1357"/>
      <point x="568" y="1456"/>
      <point x="695" y="1456" type="curve" smooth="yes"/>
      <point x="815" y="1456"/>
      <point x="876" y="1377"/>
      <point x="876" y="1233" type="curve" smooth="yes"/>
      <point x="876" y="996"/>
      <point x="664" y="915"/>
      <point x="664" y="735" type="curve" smooth="yes"/>
      <point x="664" y="407"/>
      <point x="1126" y="457"/>
      <point x="1126" y="230" type="curve" smooth="yes"/>
      <point x="1126" y="159"/>
      <point x="1080" y="113"/>
      <point x="1006" y="113" type="curve" smooth="yes"/>
      <point x="960" y="113"/>
      <point x="901" y="123"/>
      <point x="845" y="159" type="curve"/>
      <point x="810" y="322" type="line"/>
      <point x="671" y="322" type="line"/>
      <point x="682" y="58" type="line"/>
      <point x="768" y="13"/>
      <point x="881" y="-16"/>
    </contour>
    <contour>
      <point x="13" y="849" type="line"/>
      <point x="317" y="849" type="line"/>
      <point x="317" y="996" type="line"/>
      <point x="183" y="1004" type="line"/>
      <point x="13" y="957" type="line"/>
    </contour>
  </outline>
</glyph>
<glyph name="ae" format="2">
  <advance width="1659"/>
  <unicode hex="00E6"/>
  <note>
ae
</note>
  <anchor x="826" y="1001" name="above"/>
  <anchor x="826" y="0" name="below"/>
  <outline>
    <contour>
      <point x="475" y="-16" type="curve" smooth="yes"/>
      <point x="562" y="-16"/>
      <point x="680" y="36"/>
      <point x="828" y="201" type="curve"/>
      <point x="756" y="300" type="line"/>
      <point x="692" y="225"/>
      <point x="646" y="189"/>
      <point x="570" y="189" type="curve" smooth="yes"/>
      <point x="492" y="189"/>
      <point x="408" y="243"/>
      <point x="408" y="316" type="curve" smooth="yes"/>
      <point x="408" y="368"/>
      <point x="444" y="402"/>
      <point x="530" y="413" type="curve" smooth="yes"/>
      <point x="1584" y="570" type="line"/>
      <point x="1584" y="834"/>
      <point x="1438" y="1019"/>
      <point x="1194" y="1019" type="curve" smooth="yes"/>
      <point x="1040" y="1019"/>
      <point x="913" y="941"/>
      <point x="836" y="818" type="curve"/>
      <point x="943" y="818" type="line"/>
      <point x="873" y="952"/>
      <point x="727" y="1019"/>
      <point x="530" y="1019" type="curve"/>
      <point x="398" y="1001"/>
      <point x="109" y="858"/>
      <point x="109" y="739" type="curve" smooth="yes"/>
      <point x="109" y="646"/>
      <point x="215" y="596"/>
      <point x="373" y="628" type="curve"/>
      <point x="382" y="771" type="line" smooth="yes"/>
      <point x="387" y="837"/>
      <point x="407" y="852"/>
      <point x="452" y="852" type="curve" smooth="yes"/>
      <point x="567" y="852"/>
      <point x="671" y="763"/>
      <point x="671" y="609" type="curve" smooth="yes"/>
      <point x="671" y="484" type="line" smooth="yes"/>
      <point x="671" y="201"/>
      <point x="886" y="-16"/>
      <point x="1168" y="-16" type="curve" smooth="yes"/>
      <point x="1357" y="-16"/>
      <point x="1519" y="78"/>
      <point x="1597" y="261" type="curve"/>
      <point x="1526" y="329" type="line"/>
      <point x="1451" y="238"/>
      <point x="1372" y="204"/>
      <point x="1278" y="204" type="curve" smooth="yes"/>
      <point x="1093" y="204"/>
      <point x="980" y="347"/>
      <point x="980" y="552" type="curve" smooth="yes"/>
      <point x="980" y="607" type="line" smooth="yes"/>
      <point x="980" y="805"/>
      <point x="1054" y="888"/>
      <point x="1158" y="888" type="curve" smooth="yes"/>
      <point x="1254" y="888"/>
      <point x="1310" y="807"/>
      <point x="1310" y="659" type="curve" smooth="yes"/>
      <point x="1310" y="578" type="line"/>
      <point x="1359" y="654" type="line"/>
      <point x="423" y="518" type="line" smooth="yes"/>
      <point x="183" y="486"/>
      <point x="91" y="397"/>
      <point x="91" y="258" type="curve" smooth="yes"/>
      <point x="91" y="144"/>
      <point x="230" y="-16"/>
    </contour>
  </outline>
</glyph>
<glyph name="eth" format="2">
  <advance width="1197"/>
  <unicode hex="00F0"/>
  <note>
eth
</note>
  <outline>
    <contour>
      <point x="884" y="834" type="curve"/>
      <point x="933" y="975" type="line"/>
      <point x="854" y="998"/>
      <point x="758" y="1014"/>
      <point x="682" y="1014" type="curve" smooth="yes"/>
      <point x="319" y="1014"/>
      <point x="76" y="823"/>
      <point x="76" y="494" type="curve" smooth="yes"/>
      <point x="76" y="194"/>
      <point x="306" y="-16"/>
      <point x="607" y="-16" type="curve" smooth="yes"/>
      <point x="912" y="-16"/>
      <point x="1118" y="206"/>
      <point x="1118" y="622" type="curve" smooth="yes"/>
      <point x="1118" y="1048"/>
      <point x="837" y="1466"/>
      <point x="442" y="1565" type="curve"/>
      <point x="94" y="1565" type="line"/>
      <point x="89" y="1461" type="line"/>
      <point x="590" y="1330"/>
      <point x="803" y="1019"/>
      <point x="803" y="515" type="curve" smooth="yes"/>
      <point x="803" y="240"/>
      <point x="750" y="133"/>
      <point x="646" y="133" type="curve" smooth="yes"/>
      <point x="526" y="133"/>
      <point x="405" y="254"/>
      <point x="405" y="528" type="curve" smooth="yes"/>
      <point x="405" y="747"/>
      <point x="507" y="873"/>
      <point x="679" y="873" type="curve" smooth="yes"/>
      <point x="747" y="873"/>
      <point x="820" y="862"/>
    </contour>
    <contour>
      <point x="198" y="1082" type="line"/>
      <point x="1014" y="1458" type="line"/>
      <point x="956" y="1587" type="line"/>
      <point x="136" y="1213" type="line"/>
    </contour>
  </outline>
</glyph>
<glyph name="divide" format="2">
  <advance width="1226"/>
  <unicode hex="00F7"/>
  <outline>
    <contour>
      <point x="1106" y="679" type="line"/>
      <point x="120" y="679" type="line"/>
      <point x="120" y="476" type="line"/>
      <point x="1106" y="476" type="line"/>
    </contour>
    <contour>
      <point x="599" y="32" type="curve" smooth="yes"/>
      <point x="683" y="32"/>
      <point x="753" y="99"/>
      <point x="753" y="183" type="curve" smooth="yes"/>
      <point x="753" y="269"/>
      <point x="683" y="342"/>
      <point x="599" y="342" type="curve" smooth="yes"/>
      <point x="518" y="342"/>
      <point x="449" y="269"/>
      <point x="449" y="183" type="curve" smooth="yes"/>
      <point x="449" y="99"/>
      <point x="518" y="32"/>
    </contour>
    <contour>
      <point x="599" y="816" type="curve" smooth="yes"/>
      <point x="683" y="816"/>
      <point x="753" y="881"/>
      <point x="753" y="969" type="curve" smooth="yes"/>
      <point x="753" y="1054"/>
      <point x="683" y="1124"/>
      <point x="599" y="1124" type="curve" smooth="yes"/>
      <point x="518" y="1124"/>
      <point x="449" y="1054"/>
      <point x="449" y="969" type="curve" smooth="yes"/>
      <point x="449" y="881"/>
      <point x="518" y="816"/>
    </contour>
  </outline>
</glyph>
<glyph name="thorn" format="2">
  <advance width="1270"/>
  <unicode hex="00FE"/>
  <note>
thorn
</note>
  <outline>
    <contour>
      <point x="16" y="-499" type="line"/>
      <point x="659" y="-499" type="line"/>
      <point x="664" y="-390" type="line"/>
      <point x="478" y="-353" type="line"/>
      <point x="471" y="-326"/>
      <point x="466" y="-230"/>
      <point x="466" y="-131" type="curve" smooth="yes"/>
      <point x="466" y="8" type="line"/>
      <point x="522" y="-6"/>
      <point x="565" y="-15"/>
      <point x="622" y="-15" type="curve" smooth="yes"/>
      <point x="972" y="-15"/>
      <point x="1189" y="245"/>
      <point x="1189" y="543" type="curve" smooth="yes"/>
      <point x="1189" y="845"/>
      <point x="988" y="1019"/>
      <point x="769" y="1019" type="curve" smooth="yes"/>
      <point x="649" y="1019"/>
      <point x="533" y="944"/>
      <point x="468" y="831" type="curve"/>
      <point x="462" y="834" type="line"/>
      <point x="470" y="1242"/>
      <point x="471" y="1369"/>
      <point x="484" y="1545" type="curve"/>
      <point x="421" y="1586" type="line"/>
      <point x="-18" y="1471" type="line"/>
      <point x="-13" y="1370" type="line"/>
      <point x="152" y="1348" type="line"/>
      <point x="160" y="1244"/>
      <point x="162" y="1027"/>
      <point x="165" y="818" type="curve"/>
      <point x="162" y="97" type="line" smooth="yes"/>
      <point x="162" y="-136"/>
      <point x="155" y="-311"/>
      <point x="149" y="-353" type="curve"/>
      <point x="10" y="-394" type="line"/>
    </contour>
    <contour>
      <point x="628" y="147" type="curve" smooth="yes"/>
      <point x="568" y="147"/>
      <point x="512" y="165"/>
      <point x="466" y="194" type="curve"/>
      <point x="466" y="709" type="line"/>
      <point x="509" y="761"/>
      <point x="572" y="797"/>
      <point x="633" y="797" type="curve" smooth="yes"/>
      <point x="748" y="797"/>
      <point x="860" y="705"/>
      <point x="862" y="470" type="curve" smooth="yes"/>
      <point x="862" y="238"/>
      <point x="761" y="147"/>
    </contour>
  </outline>
</glyph>
<glyph name="idotless" format="2">
  <advance width="682"/>
  <unicode hex="0131"/>
  <note>
dotlessi
</note>
  <anchor x="342" y="1001" name="above"/>
  <anchor x="342" y="0" name="below"/>
  <anchor x="473" y="0" name="ogonek"/>
  <outline>
    <contour>
      <point x="32" y="0" type="line"/>
      <point x="649" y="0" type="line"/>
      <point x="656" y="109" type="line"/>
      <point x="505" y="144" type="line"/>
      <point x="499" y="167"/>
      <point x="492" y="272"/>
      <point x="492" y="371" type="curve" smooth="yes"/>
      <point x="492" y="661" type="line" smooth="yes"/>
      <point x="492" y="784"/>
      <point x="499" y="876"/>
      <point x="507" y="973" type="curve"/>
      <point x="442" y="1014" type="line"/>
      <point x="18" y="909" type="line"/>
      <point x="18" y="805" type="line"/>
      <point x="172" y="773" type="line"/>
      <point x="183" y="695"/>
      <point x="189" y="632"/>
      <point x="189" y="539" type="curve"/>
      <point x="188" y="371" type="line"/>
      <point x="185" y="264"/>
      <point x="178" y="164"/>
      <point x="177" y="144" type="curve"/>
      <point x="26" y="109" type="line"/>
    </contour>
  </outline>
</glyph>
<glyph name="OE" format="2">
  <advance width="2107"/>
  <unicode hex="0152"/>
  <note>
OE
</note>
  <anchor x="1202" y="1335" name="above"/>
  <anchor x="1202" y="0" name="below"/>
  <outline>
    <contour>
      <point x="858" y="-19" type="curve" smooth="yes"/>
      <point x="965" y="-19"/>
      <point x="1058" y="0"/>
      <point x="1181" y="0" type="curve" smooth="yes"/>
      <point x="1642" y="0" type="line" smooth="yes"/>
      <point x="1738" y="0"/>
      <point x="1882" y="-3"/>
      <point x="1966" y="-13" type="curve"/>
      <point x="2070" y="356" type="line"/>
      <point x="1939" y="382" type="line"/>
      <point x="1814" y="152" type="line"/>
      <point x="1775" y="147"/>
      <point x="1765" y="144"/>
      <point x="1652" y="144" type="curve" smooth="yes"/>
      <point x="1566" y="144" type="line" smooth="yes"/>
      <point x="1480" y="144"/>
      <point x="1427" y="147"/>
      <point x="1367" y="157" type="curve"/>
      <point x="1362" y="198"/>
      <point x="1360" y="288"/>
      <point x="1360" y="444" type="curve" smooth="yes"/>
      <point x="1360" y="910" type="line" smooth="yes"/>
      <point x="1360" y="1064"/>
      <point x="1362" y="1155"/>
      <point x="1367" y="1190" type="curve"/>
      <point x="1395" y="1197"/>
      <point x="1446" y="1199"/>
      <point x="1513" y="1199" type="curve" smooth="yes"/>
      <point x="1649" y="1199" type="line" smooth="yes"/>
      <point x="1684" y="1199"/>
      <point x="1712" y="1197"/>
      <point x="1756" y="1187" type="curve"/>
      <point x="1842" y="986" type="line"/>
      <point x="1974" y="1006" type="line"/>
      <point x="1911" y="1346" type="line"/>
      <point x="1822" y="1338"/>
      <point x="1654" y="1335"/>
      <point x="1556" y="1335" type="curve" smooth="yes"/>
      <point x="1189" y="1335" type="line" smooth="yes"/>
      <point x="1077" y="1335"/>
      <point x="983" y="1346"/>
      <point x="902" y="1346" type="curve" smooth="yes"/>
      <point x="335" y="1346"/>
      <point x="99" y="1004"/>
      <point x="99" y="651" type="curve" smooth="yes"/>
      <point x="99" y="243"/>
      <point x="400" y="-19"/>
    </contour>
    <contour>
      <point x="894" y="147" type="curve" smooth="yes"/>
      <point x="633" y="147"/>
      <point x="473" y="356"/>
      <point x="473" y="696" type="curve" smooth="yes"/>
      <point x="473" y="998"/>
      <point x="632" y="1194"/>
      <point x="884" y="1194" type="curve" smooth="yes"/>
      <point x="939" y="1194"/>
      <point x="996" y="1187"/>
      <point x="1032" y="1176" type="curve"/>
      <point x="1040" y="1135"/>
      <point x="1045" y="975"/>
      <point x="1045" y="845" type="curve" smooth="yes"/>
      <point x="1045" y="512" type="line" smooth="yes"/>
      <point x="1045" y="394"/>
      <point x="1041" y="222"/>
      <point x="1037" y="168" type="curve"/>
      <point x="990" y="155"/>
      <point x="936" y="147"/>
    </contour>
    <contour>
      <point x="1673" y="452" type="line"/>
      <point x="1803" y="452" type="line"/>
      <point x="1803" y="913" type="line"/>
      <point x="1673" y="913" type="line"/>
      <point x="1654" y="761" type="line"/>
      <point x="1631" y="764"/>
      <point x="1581" y="760"/>
      <point x="1521" y="760" type="curve" smooth="yes"/>
      <point x="1435" y="760" type="line" smooth="yes"/>
      <point x="1378" y="760"/>
      <point x="1331" y="764"/>
      <point x="1309" y="766" type="curve"/>
      <point x="1309" y="603" type="line"/>
      <point x="1331" y="604"/>
      <point x="1378" y="609"/>
      <point x="1435" y="609" type="curve" smooth="yes"/>
      <point x="1521" y="609" type="line" smooth="yes"/>
      <point x="1581" y="609"/>
      <point x="1631" y="604"/>
      <point x="1654" y="604" type="curve"/>
    </contour>
  </outline>
</glyph>
<glyph name="oe" format="2">
  <advance width="1833"/>
  <unicode hex="0153"/>
  <note>
oe
</note>
  <anchor x="975" y="1001" name="above"/>
  <anchor x="975" y="0" name="below"/>
  <outline>
    <contour>
      <point x="615" y="-16" type="curve" smooth="yes"/>
      <point x="905" y="-16"/>
      <point x="1085" y="217"/>
      <point x="1085" y="512" type="curve" smooth="yes"/>
      <point x="1085" y="808"/>
      <point x="897" y="1019"/>
      <point x="604" y="1019" type="curve" smooth="yes"/>
      <point x="309" y="1019"/>
      <point x="76" y="795"/>
      <point x="76" y="489" type="curve" smooth="yes"/>
      <point x="76" y="188"/>
      <point x="304" y="-16"/>
    </contour>
    <contour>
      <point x="646" y="126" type="curve" smooth="yes"/>
      <point x="515" y="126"/>
      <point x="413" y="306"/>
      <point x="413" y="559" type="curve" smooth="yes"/>
      <point x="413" y="784"/>
      <point x="494" y="879"/>
      <point x="596" y="879" type="curve" smooth="yes"/>
      <point x="730" y="879"/>
      <point x="821" y="700"/>
      <point x="821" y="436" type="curve" smooth="yes"/>
      <point x="821" y="224"/>
      <point x="748" y="126"/>
    </contour>
    <contour>
      <point x="1357" y="-16" type="curve" smooth="yes"/>
      <point x="1526" y="-16"/>
      <point x="1691" y="78"/>
      <point x="1773" y="261" type="curve"/>
      <point x="1702" y="329" type="line"/>
      <point x="1624" y="238"/>
      <point x="1545" y="204"/>
      <point x="1441" y="204" type="curve" smooth="yes"/>
      <point x="1249" y="204"/>
      <point x="1127" y="345"/>
      <point x="1127" y="554" type="curve" smooth="yes"/>
      <point x="1127" y="607" type="line" smooth="yes"/>
      <point x="1127" y="792"/>
      <point x="1208" y="888"/>
      <point x="1320" y="888" type="curve" smooth="yes"/>
      <point x="1429" y="888"/>
      <point x="1487" y="800"/>
      <point x="1487" y="659" type="curve" smooth="yes"/>
      <point x="1487" y="578" type="line"/>
      <point x="1535" y="637" type="line"/>
      <point x="1105" y="637" type="line"/>
      <point x="1101" y="515" type="line"/>
      <point x="1759" y="515" type="line"/>
      <point x="1759" y="570" type="line" smooth="yes"/>
      <point x="1759" y="832"/>
      <point x="1607" y="1017"/>
      <point x="1346" y="1019" type="curve" smooth="yes"/>
      <point x="1071" y="1019"/>
      <point x="857" y="786"/>
      <point x="857" y="502" type="curve" smooth="yes"/>
      <point x="857" y="199"/>
      <point x="1061" y="-16"/>
    </contour>
  </outline>
</glyph>
<glyph name="florin" format="2">
  <advance width="888"/>
  <unicode hex="0192"/>
  <outline>
    <contour>
      <point x="170" y="-522" type="curve" smooth="yes"/>
      <point x="392" y="-522"/>
      <point x="581" y="-311"/>
      <point x="581" y="159" type="curve" smooth="yes"/>
      <point x="581" y="849" type="line"/>
      <point x="577" y="996" type="line"/>
      <point x="577" y="1166" type="line" smooth="yes"/>
      <point x="577" y="1336"/>
      <point x="609" y="1419"/>
      <point x="648" y="1456" type="curve"/>
      <point x="740" y="1373" type="line" smooth="yes"/>
      <point x="784" y="1331"/>
      <point x="823" y="1312"/>
      <point x="875" y="1312" type="curve" smooth="yes"/>
      <point x="941" y="1312"/>
      <point x="983" y="1349"/>
      <point x="983" y="1416" type="curve" smooth="yes"/>
      <point x="983" y="1514"/>
      <point x="871" y="1587"/>
      <point x="717" y="1587" type="curve" smooth="yes"/>
      <point x="473" y="1587"/>
      <point x="274" y="1377"/>
      <point x="274" y="1062" type="curve" smooth="yes"/>
      <point x="274" y="-13" type="line"/>
      <point x="274" y="-272"/>
      <point x="256" y="-353"/>
      <point x="236" y="-394" type="curve"/>
      <point x="146" y="-309" type="line" smooth="yes"/>
      <point x="102" y="-267"/>
      <point x="63" y="-248"/>
      <point x="10" y="-248" type="curve" smooth="yes"/>
      <point x="-53" y="-248"/>
      <point x="-96" y="-283"/>
      <point x="-96" y="-350" type="curve" smooth="yes"/>
      <point x="-96" y="-450"/>
      <point x="15" y="-522"/>
    </contour>
    <contour>
      <point x="105" y="849" type="line"/>
      <point x="818" y="849" type="line"/>
      <point x="818" y="996" type="line"/>
      <point x="408" y="996" type="line"/>
      <point x="274" y="1004" type="line"/>
      <point x="217" y="981"/>
      <point x="164" y="965"/>
      <point x="105" y="957" type="curve"/>
    </contour>
  </outline>
</glyph>
<glyph name="glottalstopmod" format="2">
  <advance width="640"/>
  <unicode hex="02C0"/>
  <outline>
    <contour>
      <point x="293" y="1563" type="line"/>
      <point x="369" y="1563" type="line"/>
      <point x="369" y="1573"/>
      <point x="369" y="1590"/>
      <point x="369" y="1599" type="curve" smooth="yes"/>
      <point x="369" y="1712"/>
      <point x="522" y="1722"/>
      <point x="522" y="1858" type="curve" smooth="yes"/>
      <point x="522" y="1961"/>
      <point x="428" y="2023"/>
      <point x="332" y="2023" type="curve" smooth="yes"/>
      <point x="243" y="2023"/>
      <point x="154" y="1969"/>
      <point x="138" y="1848" type="curve"/>
      <point x="214" y="1840" type="line"/>
      <point x="225" y="1918"/>
      <point x="283" y="1947"/>
      <point x="334" y="1947" type="curve" smooth="yes"/>
      <point x="394" y="1947"/>
      <point x="445" y="1908"/>
      <point x="445" y="1856" type="curve" smooth="yes"/>
      <point x="445" y="1762"/>
      <point x="293" y="1748"/>
      <point x="293" y="1600" type="curve" smooth="yes"/>
    </contour>
  </outline>
</glyph>
<glyph name="macroncomb" format="2">
  <unicode hex="0304"/>
  <anchor x="413" y="0" name="_above"/>
  <anchor x="413" y="364" name="above"/>
  <outline>
    <contour>
      <point x="76" y="0" type="curve" smooth="yes"/>
      <point x="777" y="0" type="line" smooth="yes"/>
      <point x="828" y="0"/>
      <point x="854" y="19"/>
      <point x="854" y="60" type="curve" smooth="yes"/>
      <point x="854" y="100"/>
      <point x="828" y="121"/>
      <point x="774" y="121" type="curve" smooth="yes"/>
      <point x="81" y="121" type="line" smooth="yes"/>
      <point x="28" y="121"/>
      <point x="2" y="100"/>
      <point x="2" y="60" type="curve" smooth="yes"/>
      <point x="2" y="19"/>
      <point x="26" y="0"/>
    </contour>
  </outline>
</glyph>
<glyph name="dotaccentcomb" format="2">
  <unicode hex="0307"/>
  <anchor x="110" y="0" name="_above"/>
  <anchor x="110" y="315" name="above"/>
  <outline>
    <contour>
      <point x="12" y="2" type="line"/>
      <point x="206" y="2" type="line"/>
      <point x="206" y="196" type="line"/>
      <point x="12" y="196" type="line"/>
    </contour>
  </outline>
</glyph>
<glyph name="ringcomb" format="2">
  <unicode hex="030A"/>
  <anchor x="191" y="0" name="_above"/>
  <anchor x="191" y="546" name="above"/>
  <outline>
    <contour>
      <point x="191" y="0" type="curve" smooth="yes"/>
      <point x="296" y="0"/>
      <point x="384" y="86"/>
      <point x="384" y="189" type="curve" smooth="yes"/>
      <point x="384" y="295"/>
      <point x="296" y="381"/>
      <point x="191" y="381" type="curve" smooth="yes"/>
      <point x="86" y="381"/>
      <point x="-3" y="295"/>
      <point x="-3" y="189" type="curve" smooth="yes"/>
      <point x="-3" y="86"/>
      <point x="86" y="0"/>
    </contour>
    <contour>
      <point x="191" y="65" type="curve" smooth="yes"/>
      <point x="121" y="65"/>
      <point x="62" y="120"/>
      <point x="62" y="189" type="curve" smooth="yes"/>
      <point x="62" y="261"/>
      <point x="120" y="316"/>
      <point x="191" y="316" type="curve" smooth="yes"/>
      <point x="262" y="316"/>
      <point x="321" y="261"/>
      <point x="321" y="189" type="curve" smooth="yes"/>
      <point x="321" y="120"/>
      <point x="262" y="65"/>
    </contour>
  </outline>
</glyph>
<glyph name="circumflexbelowcomb" format="2">
  <unicode hex="032D"/>
  <anchor x="0" y="-152" name="_below"/>
  <outline>
    <contour>
      <point x="-573" y="-711" type="line"/>
      <point x="-437" y="-711" type="line"/>
      <point x="3" y="-136" type="line"/>
      <point x="196" y="-345"/>
      <point x="369" y="-534"/>
      <point x="520" y="-708" type="curve"/>
      <point x="648" y="-708" type="line"/>
      <point x="50" y="0" type="line"/>
      <point x="-31" y="0" type="line"/>
    </contour>
  </outline>
</glyph>
